<svg width="56" height="9" viewBox="0 0 56 9" fill="none" xmlns="http://www.w3.org/2000/svg">
<path d="M54.5511 4.08575L51.583 6.63021L51.583 1.54129L54.5511 4.08575Z" fill="#707070" stroke="#2A2A2A" stroke-width="1.27223"/>
<path d="M49.9222 3.44954C49.5709 3.44954 49.2861 3.73434 49.2861 4.08566C49.2861 4.43697 49.5709 4.72177 49.9222 4.72177L49.9222 3.44954ZM47.3429 4.72177C47.6942 4.72177 47.979 4.43697 47.979 4.08566C47.979 3.73434 47.6942 3.44954 47.3429 3.44954L47.3429 4.72177ZM44.7635 3.44954C44.4122 3.44954 44.1274 3.73434 44.1274 4.08566C44.1274 4.43697 44.4122 4.72177 44.7635 4.72177L44.7635 3.44954ZM42.1841 4.72177C42.5354 4.72177 42.8202 4.43697 42.8202 4.08565C42.8202 3.73434 42.5354 3.44954 42.1841 3.44954L42.1841 4.72177ZM39.6047 3.44954C39.2534 3.44954 38.9686 3.73434 38.9686 4.08565C38.9686 4.43697 39.2534 4.72177 39.6047 4.72177L39.6047 3.44954ZM37.0254 4.72177C37.3767 4.72177 37.6615 4.43697 37.6615 4.08565C37.6615 3.73434 37.3767 3.44954 37.0254 3.44954L37.0254 4.72177ZM34.446 3.44954C34.0947 3.44954 33.8099 3.73434 33.8099 4.08565C33.8099 4.43697 34.0947 4.72177 34.446 4.72177L34.446 3.44954ZM31.8666 4.72177C32.2179 4.72177 32.5027 4.43697 32.5027 4.08565C32.5027 3.73434 32.2179 3.44954 31.8666 3.44954L31.8666 4.72177ZM29.2873 3.44954C28.9359 3.44954 28.6511 3.73433 28.6511 4.08565C28.6511 4.43697 28.9359 4.72177 29.2873 4.72177L29.2873 3.44954ZM26.7079 4.72176C27.0592 4.72176 27.344 4.43697 27.344 4.08565C27.344 3.73433 27.0592 3.44954 26.7079 3.44954L26.7079 4.72176ZM24.1285 3.44953C23.7772 3.44953 23.4924 3.73433 23.4924 4.08565C23.4924 4.43697 23.7772 4.72176 24.1285 4.72176L24.1285 3.44953ZM21.5491 4.72176C21.9004 4.72176 22.1852 4.43697 22.1852 4.08565C22.1852 3.73433 21.9004 3.44953 21.5491 3.44953L21.5491 4.72176ZM18.9698 3.44953C18.6184 3.44953 18.3336 3.73433 18.3336 4.08565C18.3336 4.43696 18.6184 4.72176 18.9698 4.72176L18.9698 3.44953ZM16.3904 4.72176C16.7417 4.72176 17.0265 4.43696 17.0265 4.08565C17.0265 3.73433 16.7417 3.44953 16.3904 3.44953L16.3904 4.72176ZM13.811 3.44953C13.4597 3.44953 13.1749 3.73433 13.1749 4.08565C13.1749 4.43696 13.4597 4.72176 13.811 4.72176L13.811 3.44953ZM11.2316 4.72176C11.583 4.72176 11.8678 4.43696 11.8678 4.08565C11.8678 3.73433 11.583 3.44953 11.2316 3.44953L11.2316 4.72176ZM8.65227 3.44953C8.30096 3.44953 8.01616 3.73433 8.01616 4.08564C8.01616 4.43696 8.30096 4.72176 8.65227 4.72176L8.65227 3.44953ZM6.0729 4.72176C6.42422 4.72176 6.70901 4.43696 6.70901 4.08564C6.70901 3.73433 6.42421 3.44953 6.0729 3.44953L6.0729 4.72176ZM51.2119 3.44954L49.9222 3.44954L49.9222 4.72177L51.2119 4.72177L51.2119 3.44954ZM47.3429 3.44954L44.7635 3.44954L44.7635 4.72177L47.3429 4.72177L47.3429 3.44954ZM42.1841 3.44954L39.6047 3.44954L39.6047 4.72177L42.1841 4.72177L42.1841 3.44954ZM37.0254 3.44954L34.446 3.44954L34.446 4.72177L37.0254 4.72177L37.0254 3.44954ZM31.8666 3.44954L29.2873 3.44954L29.2873 4.72177L31.8666 4.72177L31.8666 3.44954ZM26.7079 3.44954L24.1285 3.44953L24.1285 4.72176L26.7079 4.72176L26.7079 3.44954ZM21.5491 3.44953L18.9698 3.44953L18.9698 4.72176L21.5491 4.72176L21.5491 3.44953ZM16.3904 3.44953L13.811 3.44953L13.811 4.72176L16.3904 4.72176L16.3904 3.44953ZM11.2316 3.44953L8.65227 3.44953L8.65227 4.72176L11.2316 4.72176L11.2316 3.44953ZM6.0729 3.44953L4.78321 3.44953L4.78321 4.72176L6.0729 4.72176L6.0729 3.44953Z" fill="#707070"/>
<ellipse cx="3.31668" cy="4.24475" rx="1.80203" ry="2.70349" stroke="#707070" stroke-width="1.27223"/>
</svg>
