<svg width="25" height="10" viewBox="0 0 25 10" fill="none" xmlns="http://www.w3.org/2000/svg">
<path d="M23.9999 5.29843L22.5686 7.59693L22.5686 2.99994L23.9999 5.29843Z" fill="#A4A4A4" stroke="#A4A4A4" stroke-width="1.14925"/>
<path d="M21.2702 4.72374C20.9528 4.72374 20.6955 4.98101 20.6955 5.29837C20.6955 5.61572 20.9528 5.87299 21.2702 5.87299L21.2702 4.72374ZM19.0312 5.87299C19.3486 5.87299 19.6058 5.61572 19.6058 5.29837C19.6058 4.98101 19.3486 4.72374 19.0312 4.72374L19.0312 5.87299ZM16.7922 4.72374C16.4749 4.72374 16.2176 4.98101 16.2176 5.29836C16.2176 5.61572 16.4749 5.87299 16.7922 5.87299L16.7922 4.72374ZM14.5533 5.87299C14.8706 5.87299 15.1279 5.61572 15.1279 5.29836C15.1279 4.98101 14.8706 4.72374 14.5533 4.72374L14.5533 5.87299ZM12.3143 4.72374C11.997 4.72374 11.7397 4.98101 11.7397 5.29836C11.7397 5.61572 11.997 5.87299 12.3143 5.87299L12.3143 4.72374ZM10.0753 5.87298C10.3927 5.87299 10.65 5.61572 10.65 5.29836C10.65 4.98101 10.3927 4.72374 10.0753 4.72374L10.0753 5.87298ZM7.83638 4.72374C7.51903 4.72374 7.26176 4.981 7.26176 5.29836C7.26176 5.61572 7.51903 5.87298 7.83638 5.87298L7.83638 4.72374ZM5.59742 5.87298C5.91478 5.87298 6.17204 5.61572 6.17204 5.29836C6.17204 4.981 5.91477 4.72374 5.59742 4.72374L5.59742 5.87298ZM3.35846 4.72373C3.0411 4.72373 2.78383 4.981 2.78383 5.29836C2.78383 5.61571 3.0411 5.87298 3.35846 5.87298L3.35846 4.72373ZM1.11949 5.87298C1.43685 5.87298 1.69412 5.61571 1.69411 5.29836C1.69411 4.981 1.43685 4.72373 1.11949 4.72373L1.11949 5.87298ZM22.3896 4.72374L21.2702 4.72374L21.2702 5.87299L22.3896 5.87299L22.3896 4.72374ZM19.0312 4.72374L16.7922 4.72374L16.7922 5.87299L19.0312 5.87299L19.0312 4.72374ZM14.5533 4.72374L12.3143 4.72374L12.3143 5.87299L14.5533 5.87299L14.5533 4.72374ZM10.0753 4.72374L7.83638 4.72374L7.83638 5.87298L10.0753 5.87298L10.0753 4.72374ZM5.59742 4.72374L3.35846 4.72373L3.35846 5.87298L5.59742 5.87298L5.59742 4.72374ZM1.11949 4.72373L9.57267e-06 4.72373L9.50081e-06 5.87298L1.11949 5.87298L1.11949 4.72373Z" fill="#A4A4A4"/>
</svg>
