<svg width="194" height="110" viewBox="0 0 194 110" fill="none" xmlns="http://www.w3.org/2000/svg">
<path d="M66.5569 71.0335C13.1762 67.2722 54.0563 18.3742 0 -2H195.279V109.588C195.279 75.7353 169.123 63.2763 139.195 61.9435C96.9635 60.0628 98.6792 73.297 66.5569 71.0335Z" fill="white"/>
<path fill-rule="evenodd" clip-rule="evenodd" d="M71.5417 30.5655C76.0509 30.576 79.703 34.2347 79.703 38.7464C79.703 39.9286 79.4523 41.0523 79.001 42.0671C80.4746 39.9139 82.9508 38.501 85.757 38.501C88.5628 38.501 91.0388 39.9136 92.5125 42.0664C92.0614 41.0518 91.8107 39.9283 91.8107 38.7464C91.8107 34.2347 95.4629 30.576 99.972 30.5655C95.4629 30.5549 91.8107 26.8962 91.8107 22.3846C91.8107 21.2027 92.0614 20.0793 92.5124 19.0647C91.0387 21.2174 88.5628 22.6299 85.757 22.6299C82.9508 22.6299 80.4747 21.2171 79.0011 19.064C79.4523 20.0787 79.703 21.2024 79.703 22.3846C79.703 26.8962 76.0509 30.5549 71.5417 30.5655ZM100.012 30.5655C100.17 30.5658 100.327 30.5707 100.483 30.5799C100.483 30.5751 100.483 30.5703 100.483 30.5655L100.483 30.551C100.327 30.5602 100.17 30.5651 100.012 30.5655ZM71.0313 30.5799C71.187 30.5707 71.344 30.5658 71.5019 30.5655C71.344 30.5651 71.187 30.5602 71.0313 30.551L71.0312 30.5655L71.0313 30.5799Z" fill="#008169"/>
<path d="M71.5417 30.5655L71.5416 30.5143V30.6167L71.5417 30.5655ZM79.001 42.0671L78.9542 42.0463L79.0432 42.096L79.001 42.0671ZM92.5125 42.0664L92.4702 42.0953L92.5593 42.0456L92.5125 42.0664ZM99.972 30.5655L99.9722 30.6167V30.5143L99.972 30.5655ZM92.5124 19.0647L92.5592 19.0855L92.4702 19.0358L92.5124 19.0647ZM79.0011 19.064L79.0433 19.035L78.9543 19.0848L79.0011 19.064ZM100.012 30.5655L100.012 30.5143V30.6167L100.012 30.5655ZM100.483 30.5799L100.48 30.631L100.534 30.6342L100.534 30.58L100.483 30.5799ZM100.483 30.5655H100.534V30.5655L100.483 30.5655ZM100.483 30.551L100.534 30.551L100.534 30.4967L100.48 30.4999L100.483 30.551ZM71.5019 30.5655L71.5021 30.6167V30.5143L71.5019 30.5655ZM71.0313 30.5799L70.9801 30.5799L70.9801 30.6342L71.0343 30.631L71.0313 30.5799ZM71.0313 30.551L71.0343 30.4999L70.9801 30.4967L70.9801 30.551L71.0313 30.551ZM71.0312 30.5655L70.9801 30.5655L70.9801 30.5656L71.0312 30.5655ZM79.7542 38.7464C79.7542 34.2065 76.0792 30.5249 71.5418 30.5143L71.5416 30.6167C76.0226 30.6272 79.6518 34.2629 79.6518 38.7464H79.7542ZM79.0478 42.0879C79.5019 41.0667 79.7542 39.9359 79.7542 38.7464H79.6518C79.6518 39.9213 79.4026 41.0379 78.9542 42.0463L79.0478 42.0879ZM85.757 38.4498C82.9332 38.4498 80.4415 39.8717 78.9587 42.0382L79.0432 42.096C80.5077 39.9562 82.9684 38.5522 85.757 38.5522V38.4498ZM92.5547 42.0375C91.0719 39.8713 88.5804 38.4498 85.757 38.4498V38.5522C88.5452 38.5522 91.0057 39.9559 92.4702 42.0953L92.5547 42.0375ZM92.5593 42.0456C92.111 41.0374 91.8619 39.921 91.8619 38.7464H91.7595C91.7595 39.9356 92.0118 41.0661 92.4657 42.0872L92.5593 42.0456ZM91.8619 38.7464C91.8619 34.2629 95.4912 30.6272 99.9722 30.6167L99.9719 30.5143C95.4345 30.5249 91.7595 34.2065 91.7595 38.7464H91.8619ZM91.7595 22.3846C91.7595 26.9245 95.4345 30.606 99.9719 30.6167L99.9722 30.5143C95.4912 30.5038 91.8619 26.868 91.8619 22.3846H91.7595ZM92.4656 19.0439C92.0117 20.0649 91.7595 21.1954 91.7595 22.3846H91.8619C91.8619 21.21 92.111 20.0937 92.5592 19.0855L92.4656 19.0439ZM85.757 22.6811C88.5804 22.6811 91.0718 21.2597 92.5546 19.0936L92.4702 19.0358C91.0056 21.1752 88.5452 22.5787 85.757 22.5787V22.6811ZM78.9588 19.0929C80.4416 21.2594 82.9332 22.6811 85.757 22.6811V22.5787C82.9684 22.5787 80.5078 21.1748 79.0433 19.035L78.9588 19.0929ZM79.7542 22.3846C79.7542 21.1951 79.5019 20.0644 79.0478 19.0432L78.9543 19.0848C79.4026 20.0931 79.6518 21.2097 79.6518 22.3846H79.7542ZM71.5418 30.6167C76.0792 30.606 79.7542 26.9245 79.7542 22.3846H79.6518C79.6518 26.868 76.0226 30.5038 71.5416 30.5143L71.5418 30.6167ZM100.012 30.6167C100.169 30.617 100.325 30.6219 100.48 30.631L100.486 30.5288C100.329 30.5195 100.171 30.5146 100.012 30.5143L100.012 30.6167ZM100.431 30.5655C100.431 30.5703 100.431 30.5751 100.431 30.5799L100.534 30.58C100.534 30.5752 100.534 30.5704 100.534 30.5655H100.431ZM100.431 30.551L100.431 30.5656L100.534 30.5655L100.534 30.551L100.431 30.551ZM100.012 30.6167C100.171 30.6163 100.329 30.6114 100.486 30.6021L100.48 30.4999C100.325 30.5091 100.169 30.5139 100.012 30.5143L100.012 30.6167ZM71.5018 30.5143C71.3429 30.5146 71.185 30.5195 71.0282 30.5288L71.0343 30.631C71.1891 30.6219 71.345 30.617 71.5021 30.6167L71.5018 30.5143ZM71.0282 30.6021C71.185 30.6114 71.3429 30.6163 71.5018 30.6167L71.5021 30.5143C71.3451 30.5139 71.1891 30.5091 71.0343 30.4999L71.0282 30.6021ZM71.0824 30.5656L71.0825 30.551L70.9801 30.551L70.9801 30.5655L71.0824 30.5656ZM71.0825 30.5799L71.0824 30.5655L70.9801 30.5656L70.9801 30.5799L71.0825 30.5799Z" fill="#979797"/>
<path fill-rule="evenodd" clip-rule="evenodd" d="M85.757 17.9665C87.6999 17.9665 89.2748 16.3915 89.2748 14.4487C89.2748 12.5059 87.6999 10.9309 85.757 10.9309C83.8142 10.9309 82.2393 12.5059 82.2393 14.4487C82.2393 16.3915 83.8142 17.9665 85.757 17.9665ZM71.5222 25.9017C73.465 25.9017 75.04 24.3268 75.04 22.3839C75.04 20.4411 73.465 18.8661 71.5222 18.8661C69.5794 18.8661 68.0044 20.4411 68.0044 22.3839C68.0044 24.3268 69.5794 25.9017 71.5222 25.9017ZM99.9917 25.9017C101.935 25.9017 103.51 24.3268 103.51 22.3839C103.51 20.4411 101.935 18.8661 99.9917 18.8661C98.0489 18.8661 96.4739 20.4411 96.4739 22.3839C96.4739 24.3268 98.0489 25.9017 99.9917 25.9017ZM75.04 38.7464C75.04 40.6892 73.465 42.2642 71.5222 42.2642C69.5794 42.2642 68.0044 40.6892 68.0044 38.7464C68.0044 36.8036 69.5794 35.2286 71.5222 35.2286C73.465 35.2286 75.04 36.8036 75.04 38.7464ZM85.757 50.1994C87.6999 50.1994 89.2748 48.6244 89.2748 46.6816C89.2748 44.7387 87.6999 43.1638 85.757 43.1638C83.8142 43.1638 82.2393 44.7387 82.2393 46.6816C82.2393 48.6244 83.8142 50.1994 85.757 50.1994ZM103.51 38.7464C103.51 40.6892 101.935 42.2642 99.9917 42.2642C98.0489 42.2642 96.4739 40.6892 96.4739 38.7464C96.4739 36.8036 98.0489 35.2286 99.9917 35.2286C101.935 35.2286 103.51 36.8036 103.51 38.7464Z" fill="#008169"/>
<path fill-rule="evenodd" clip-rule="evenodd" d="M164.898 46.016C164.401 46.5326 163.759 46.7908 162.972 46.7908C162.039 46.7908 161.335 46.4809 160.859 45.8611L151.413 34.1148V43.9705C151.413 44.8176 151.174 45.4995 150.698 46.016C150.222 46.5326 149.579 46.7908 148.772 46.7908C147.984 46.7908 147.342 46.5326 146.845 46.016C146.348 45.4995 146.099 44.8176 146.099 43.9705V27.3894C146.099 26.563 146.348 25.8915 146.845 25.3749C147.342 24.8584 147.984 24.6001 148.772 24.6001C149.662 24.6001 150.356 24.91 150.853 25.5299L160.299 37.2451V27.3894C160.299 26.5423 160.543 25.8656 161.029 25.3594C161.516 24.8532 162.153 24.6001 162.94 24.6001C163.728 24.6001 164.375 24.8584 164.882 25.3749C165.39 25.8915 165.644 26.563 165.644 27.3894V43.9705C165.644 44.8176 165.395 45.4995 164.898 46.016ZM117.326 46.0326C116.809 46.5388 116.104 46.792 115.214 46.792C114.344 46.792 113.655 46.5388 113.147 46.0326C112.64 45.5264 112.386 44.8394 112.386 43.9716V27.3906C112.386 26.5434 112.64 25.8667 113.147 25.3605C113.655 24.8543 114.344 24.6012 115.214 24.6012C116.104 24.6012 116.809 24.8543 117.326 25.3605C117.844 25.8667 118.103 26.5434 118.103 27.3906V43.9716C118.103 44.8394 117.844 45.5264 117.326 46.0326ZM137.29 45.3032C135.54 46.171 133.443 46.6049 130.998 46.6049H124.722C123.872 46.6049 123.22 46.3776 122.764 45.9231C122.308 45.4685 122.08 44.8177 122.08 43.9705V27.3894C122.08 26.5423 122.308 25.8915 122.764 25.4369C123.22 24.9823 123.872 24.7551 124.722 24.7551H130.998C133.422 24.7551 135.509 25.1941 137.259 26.0723C139.01 26.9504 140.351 28.2056 141.283 29.8379C142.215 31.4701 142.681 33.4124 142.681 35.6645C142.681 37.9373 142.22 39.895 141.299 41.5376C140.377 43.1802 139.041 44.4354 137.29 45.3032ZM130.594 42.0179H127.798V29.3419H130.594C132.728 29.3419 134.328 29.8585 135.395 30.8916C136.462 31.9247 136.995 33.5156 136.995 35.6644C136.995 37.8133 136.462 39.4094 135.395 40.4528C134.328 41.4962 132.728 42.0179 130.594 42.0179Z" fill="#008169"/>
<path fill-rule="evenodd" clip-rule="evenodd" d="M147.137 21.7645C147.42 21.7645 147.726 21.7455 148.054 21.7075C148.382 21.6695 148.681 21.616 148.95 21.5469C149.219 21.4709 149.421 21.3811 149.556 21.2775C149.691 21.1739 149.784 21.0306 149.836 20.8475C149.888 20.6645 149.914 20.4003 149.914 20.0549V18.2521C149.914 18.038 149.846 17.867 149.712 17.7392C149.577 17.6114 149.396 17.5475 149.168 17.5475H147.458C147.23 17.5475 147.054 17.6045 146.93 17.7185C146.805 17.8325 146.743 17.9931 146.743 18.2003C146.743 18.4075 146.805 18.5681 146.93 18.6821C147.054 18.796 147.23 18.853 147.458 18.853H148.204V20.2103C147.879 20.2794 147.551 20.3139 147.22 20.3139C146.529 20.3139 146.016 20.1257 145.681 19.7493C145.346 19.3728 145.179 18.7943 145.179 18.0138C145.179 17.254 145.339 16.691 145.66 16.3249C145.982 15.9588 146.47 15.7758 147.126 15.7758C147.389 15.7758 147.632 15.8069 147.857 15.869C148.081 15.9312 148.321 16.0314 148.577 16.1695C148.701 16.2455 148.803 16.299 148.883 16.3301C148.962 16.3612 149.057 16.3767 149.168 16.3767C149.333 16.3767 149.475 16.3025 149.592 16.154C149.71 16.0055 149.769 15.8241 149.769 15.61C149.769 15.4581 149.743 15.3337 149.691 15.237C149.639 15.1403 149.554 15.0505 149.437 14.9676C149.105 14.7328 148.748 14.5584 148.365 14.4444C147.981 14.3304 147.548 14.2734 147.064 14.2734C146.298 14.2734 145.628 14.4254 145.054 14.7293C144.481 15.0332 144.039 15.4667 143.728 16.0296C143.417 16.5926 143.262 17.254 143.262 18.0138C143.262 18.7874 143.417 19.4557 143.728 20.0186C144.039 20.5816 144.486 21.0133 145.07 21.3138C145.653 21.6142 146.342 21.7645 147.137 21.7645ZM123.348 21.7024C123.583 21.7024 123.792 21.6229 123.975 21.4641C124.158 21.3052 124.249 21.1118 124.249 20.8838C124.249 20.7595 124.218 20.6317 124.156 20.5005L121.421 14.8848C121.331 14.6983 121.196 14.555 121.017 14.4548C120.837 14.3546 120.644 14.3046 120.436 14.3046C120.222 14.3046 120.027 14.3546 119.851 14.4548C119.675 14.555 119.542 14.6983 119.452 14.8848L116.717 20.5005C116.655 20.6317 116.623 20.7595 116.623 20.8838C116.623 21.1118 116.718 21.3052 116.908 21.4641C117.098 21.6229 117.311 21.7024 117.546 21.7024C117.704 21.7024 117.851 21.6609 117.986 21.578C118.121 21.4951 118.226 21.3708 118.302 21.205L118.779 20.1586H122.136L122.602 21.205C122.678 21.3708 122.781 21.4951 122.913 21.578C123.044 21.6609 123.189 21.7024 123.348 21.7024ZM112.199 20.9686C112.199 21.5142 112.579 21.7698 113.339 21.7353L113.671 21.7146C114.389 21.6662 114.929 21.4503 115.292 21.067C115.655 20.6836 115.836 20.1466 115.836 19.4558V15.2493C115.836 14.9661 115.748 14.7398 115.572 14.5706C115.396 14.4014 115.166 14.3168 114.883 14.3168C114.586 14.3168 114.351 14.4014 114.178 14.5706C114.006 14.7398 113.919 14.9661 113.919 15.2493V19.4869C113.919 19.708 113.866 19.8824 113.759 20.0102C113.652 20.1379 113.494 20.2053 113.287 20.2122L112.935 20.2329C112.679 20.2467 112.493 20.3124 112.375 20.4298C112.258 20.5472 112.199 20.7268 112.199 20.9686ZM120.457 16.4182L119.421 18.7287H121.493L120.457 16.4182ZM130.466 21.7644C130.708 21.7644 130.92 21.6902 131.103 21.5417C131.286 21.3932 131.378 21.2084 131.378 20.9874C131.378 20.8216 131.315 20.6454 131.191 20.4589L130.549 19.5368C130.383 19.302 130.215 19.1258 130.046 19.0084C129.877 18.891 129.678 18.815 129.45 18.7805C130.003 18.6492 130.431 18.3919 130.735 18.0086C131.039 17.6252 131.191 17.1572 131.191 16.6046C131.191 15.8794 130.968 15.325 130.523 14.9417C130.077 14.5583 129.412 14.3666 128.528 14.3666H125.928C125.645 14.3666 125.427 14.4426 125.275 14.5946C125.123 14.7465 125.047 14.9641 125.047 15.2473V20.7905C125.047 21.0806 125.132 21.3103 125.301 21.4795C125.47 21.6487 125.7 21.7334 125.99 21.7334C126.28 21.7334 126.508 21.6487 126.674 21.4795C126.839 21.3103 126.922 21.0806 126.922 20.7905V18.9359H127.596C127.741 18.9359 127.867 18.9687 127.974 19.0343C128.081 19.0999 128.183 19.2018 128.28 19.3399L129.627 21.3086C129.73 21.4605 129.855 21.5745 130 21.6505C130.145 21.7264 130.3 21.7644 130.466 21.7644ZM126.902 17.5062H128.228C128.649 17.5062 128.952 17.4405 129.135 17.3093C129.318 17.1781 129.409 16.9639 129.409 16.6669C129.409 16.363 129.318 16.1437 129.135 16.009C128.952 15.8743 128.649 15.8069 128.228 15.8069H126.902V17.5062ZM133.315 21.7332C133.612 21.7332 133.847 21.6486 134.02 21.4794C134.192 21.3102 134.279 21.0805 134.279 20.7904V15.2472C134.279 14.964 134.192 14.7378 134.02 14.5686C133.847 14.3993 133.612 14.3147 133.315 14.3147C133.025 14.3147 132.795 14.3993 132.626 14.5686C132.457 14.7378 132.372 14.964 132.372 15.2472V20.7904C132.372 21.0805 132.457 21.3102 132.626 21.4794C132.795 21.6486 133.025 21.7332 133.315 21.7332ZM141.873 21.4742C141.708 21.6469 141.493 21.7332 141.231 21.7332C140.92 21.7332 140.685 21.6296 140.526 21.4224L137.377 17.4956V20.7904C137.377 21.0736 137.297 21.3015 137.138 21.4742C136.979 21.6469 136.765 21.7332 136.496 21.7332C136.233 21.7332 136.019 21.6469 135.854 21.4742C135.688 21.3015 135.605 21.0736 135.605 20.7904V15.2472C135.605 14.9709 135.688 14.7464 135.854 14.5737C136.019 14.4011 136.233 14.3147 136.496 14.3147C136.793 14.3147 137.024 14.4183 137.19 14.6256L140.34 18.542V15.2472C140.34 14.964 140.421 14.7378 140.583 14.5686C140.746 14.3993 140.958 14.3147 141.221 14.3147C141.483 14.3147 141.699 14.4011 141.868 14.5737C142.037 14.7464 142.122 14.9709 142.122 15.2472V20.7904C142.122 21.0736 142.039 21.3015 141.873 21.4742ZM157.969 21.4641C157.786 21.6229 157.577 21.7024 157.342 21.7024C157.184 21.7024 157.038 21.6609 156.907 21.578C156.776 21.4951 156.672 21.3708 156.596 21.205L156.13 20.1586H152.773L152.297 21.205C152.221 21.3708 152.115 21.4951 151.981 21.578C151.846 21.6609 151.699 21.7024 151.54 21.7024C151.305 21.7024 151.093 21.6229 150.903 21.4641C150.713 21.3052 150.618 21.1118 150.618 20.8838C150.618 20.7595 150.649 20.6317 150.711 20.5005L153.447 14.8848C153.536 14.6983 153.669 14.555 153.846 14.4548C154.022 14.3546 154.217 14.3046 154.431 14.3046C154.638 14.3046 154.832 14.3546 155.011 14.4548C155.191 14.555 155.325 14.6983 155.415 14.8848L158.151 20.5005C158.213 20.6317 158.244 20.7595 158.244 20.8838C158.244 21.1118 158.152 21.3052 157.969 21.4641ZM155.488 18.7287H153.416L154.452 16.4182L155.488 18.7287ZM165.31 21.4742C165.144 21.6469 164.93 21.7332 164.668 21.7332C164.357 21.7332 164.122 21.6296 163.963 21.4224L160.813 17.4956V20.7904C160.813 21.0736 160.734 21.3015 160.575 21.4742C160.416 21.6469 160.202 21.7332 159.933 21.7332C159.67 21.7332 159.456 21.6469 159.29 21.4742C159.125 21.3015 159.042 21.0736 159.042 20.7904V15.2472C159.042 14.9709 159.125 14.7464 159.29 14.5737C159.456 14.4011 159.67 14.3147 159.933 14.3147C160.23 14.3147 160.461 14.4183 160.627 14.6256L163.777 18.542V15.2472C163.777 14.964 163.858 14.7378 164.02 14.5686C164.182 14.3993 164.395 14.3147 164.657 14.3147C164.92 14.3147 165.136 14.4011 165.305 14.5737C165.474 14.7464 165.559 14.9709 165.559 15.2472V20.7904C165.559 21.0736 165.476 21.3015 165.31 21.4742Z" fill="#008169"/>
</svg>
