<svg width="200" height="200" viewBox="0 0 200 200" fill="none" xmlns="http://www.w3.org/2000/svg">
<mask id="mask0_81_135449" style="mask-type:alpha" maskUnits="userSpaceOnUse" x="0" y="0" width="200" height="200">
<rect width="200" height="200" fill="#F9FFFF"/>
</mask>
<g mask="url(#mask0_81_135449)">
<rect width="200" height="200" fill="#FFFFF4"/>
<path fill-rule="evenodd" clip-rule="evenodd" d="M153.933 178.564C177.781 178.909 192.595 155.664 191.416 132.515C191.689 134.6 191.816 136.697 191.801 138.786C191.762 144.521 190.663 150.2 188.645 155.4C186.631 160.594 183.7 165.309 179.99 169.121C173.468 175.824 164.531 179.739 153.933 178.564ZM12.4876 154.782C10.8928 151.153 9.57114 146.879 8.58201 141.867C1.37183 105.317 11.236 68.9829 28.4705 45.7483C35.2616 36.5915 43.1947 29.475 51.6741 25.1907C60.1254 20.9185 69.1212 19.4642 78.0643 21.6128C85.5586 23.4131 93.0252 27.7465 100.117 35.0721C54.0243 -5.63185 -5.27828 69.3763 9.90596 145.304C10.608 148.813 11.4772 151.958 12.4876 154.782ZM139.665 77.5278C106.736 57.9478 124.632 1.80979 157.073 26.2597C178.709 42.5651 186.256 64.8017 180.829 77.1457C176.225 87.6202 162.276 90.972 139.665 77.5278ZM108.039 43.4003C98.7579 30.4521 88.5366 23.3159 78.248 20.8436C69.1109 18.6481 59.9327 20.1291 51.3178 24.4834C42.7278 28.8239 34.6989 36.0225 27.8338 45.2769C10.4834 68.6703 0.548736 105.242 7.8028 142.019C9.63852 151.324 12.6104 158.139 16.3589 163.025C29.5166 184.521 55.1102 176.357 73.1164 169.649C94.8982 161.534 107.71 163.67 139.314 175.628C141.57 176.481 143.77 177.128 145.914 177.604C160.257 182.294 172.295 178.167 180.558 169.673C184.341 165.784 187.33 160.977 189.384 155.685C191.434 150.398 192.551 144.623 192.593 138.789C192.628 133.722 191.851 128.611 190.173 123.737C187.002 110.281 177.929 97.9124 161.503 91.5455C141.098 83.6365 131.876 84.8709 119.242 60.7404C115.69 53.9561 111.934 48.2077 108.039 43.4003Z" fill="#FFE6D0"/>
<path fill-rule="evenodd" clip-rule="evenodd" d="M153.277 88.5732C140.662 84.2532 132.774 82.0841 124.115 69.0699L106.196 86.3385L106.565 88.9072L139.183 105.476L153.277 88.5732ZM167.579 68.4045L167.951 70.9736L156.266 84.9873C151.391 83.6258 145.853 81.2065 139.665 77.5278C134.371 74.3794 130.397 70.2829 127.579 65.7314L135.075 58.5088L167.579 68.4045" fill="#F2CFB1"/>
<path fill-rule="evenodd" clip-rule="evenodd" d="M167.238 143.958C167.133 143.923 167.023 143.904 166.906 143.904C166.849 143.904 166.794 143.908 166.739 143.917C166.854 143.647 166.919 143.35 166.919 143.038C166.919 142.414 166.663 141.851 166.253 141.445C166.52 141.53 166.761 141.679 166.956 141.873C167.27 142.187 167.463 142.621 167.463 143.1C167.463 143.413 167.383 143.706 167.238 143.958V143.958ZM163.271 140.328C163.214 140.318 163.157 140.313 163.098 140.313L163.069 140.314C163.074 140.233 163.077 140.152 163.077 140.07C163.077 138.302 161.934 136.799 160.347 136.26C161.124 136.354 161.818 136.708 162.343 137.233C162.959 137.848 163.341 138.7 163.341 139.639C163.341 139.875 163.317 140.106 163.271 140.328ZM173.044 145.592C172.569 145.592 172.113 145.677 171.693 145.833C171.503 145.624 171.227 145.492 170.923 145.492C170.781 145.492 170.645 145.52 170.522 145.572C170.454 144.677 169.706 143.972 168.792 143.972C168.395 143.972 168.031 144.104 167.739 144.328C167.676 144.242 167.599 144.164 167.512 144.1C167.678 143.805 167.772 143.463 167.772 143.1C167.772 142.535 167.544 142.025 167.174 141.655C166.804 141.285 166.293 141.056 165.729 141.056H165.721C165.41 140.892 165.057 140.799 164.68 140.799C164.451 140.799 164.227 140.834 164.02 140.899C163.923 140.696 163.764 140.529 163.564 140.426C163.62 140.173 163.649 139.909 163.649 139.639C163.649 138.614 163.234 137.687 162.562 137.015C161.89 136.343 160.962 135.928 159.937 135.928C159.611 135.928 159.295 135.97 158.993 136.049C156.8 136.081 155.032 137.869 155.032 140.07V140.163C154.838 140.114 154.636 140.088 154.426 140.088C154.01 140.088 153.618 140.191 153.273 140.373C152.688 139.573 151.741 139.054 150.673 139.054C148.895 139.054 147.452 140.496 147.452 142.276C147.452 142.625 147.507 142.962 147.611 143.277L147.514 143.275C146.637 143.275 145.927 143.985 145.927 144.861C145.927 144.964 145.936 145.065 145.956 145.162L145.923 145.162C145.427 145.162 145.023 145.555 145.008 146.046C144.87 146.02 144.728 146.006 144.584 146.006C144.012 146.006 143.476 146.205 143.091 146.569C142.061 147.544 143.185 147.797 144.27 147.797H145.684H146.794H169.543H171.32H174.236C175.366 147.797 176.981 147.983 175.86 146.801C175.153 146.055 174.153 145.592 173.044 145.592" fill="#FFFFE7"/>
<path fill-rule="evenodd" clip-rule="evenodd" d="M55.2261 48.6309C55.3287 48.5952 55.4401 48.576 55.5561 48.576C55.6145 48.576 55.6703 48.5805 55.7247 48.5899C55.6087 48.3196 55.5454 48.0217 55.5454 47.7095C55.5454 47.0865 55.7991 46.5229 56.2103 46.117C55.9423 46.2022 55.7015 46.3507 55.5084 46.5447C55.1931 46.8591 54.9995 47.2935 54.9995 47.7729C54.9995 48.0846 55.0816 48.378 55.2261 48.6309ZM59.1929 44.9999C59.2486 44.9901 59.3066 44.9852 59.3659 44.9852L59.3944 44.9861C59.3904 44.9054 59.3877 44.8242 59.3877 44.7422C59.3877 42.9731 60.5285 41.4715 62.1165 40.9324C61.3397 41.0256 60.6435 41.3801 60.1195 41.905C59.5037 42.5204 59.1228 43.3713 59.1228 44.3114C59.1228 44.5468 59.1474 44.7774 59.1929 44.9999V44.9999ZM49.418 50.2631C49.8943 50.2631 50.3491 50.3491 50.771 50.5048C50.9605 50.2961 51.2344 50.1641 51.5407 50.1641C51.683 50.1641 51.8186 50.1926 51.9416 50.2443C52.0094 49.3489 52.7577 48.6438 53.6697 48.6438C54.0671 48.6438 54.4323 48.7767 54.7248 49.0006C54.7877 48.9132 54.8644 48.836 54.9523 48.7722C54.7859 48.4766 54.6909 48.1359 54.6909 47.7729C54.6909 47.2078 54.9193 46.6968 55.2894 46.3266C55.6587 45.9565 56.1711 45.7282 56.7356 45.7282H56.7423C57.0527 45.5645 57.4073 45.4717 57.7841 45.4717C58.0138 45.4717 58.2345 45.5065 58.4445 45.5712C58.54 45.3683 58.7005 45.2019 58.899 45.0989C58.8428 44.8452 58.8147 44.5816 58.8147 44.3114C58.8147 43.2861 59.2299 42.3581 59.9019 41.6865C60.574 41.0153 61.5016 40.6001 62.5259 40.6001C62.8515 40.6001 63.169 40.6416 63.47 40.721C65.6636 40.7531 67.4314 42.5409 67.4314 44.7422L67.4305 44.8354C67.6245 44.7859 67.8279 44.7596 68.0375 44.7596C68.4535 44.7596 68.8451 44.863 69.1889 45.0454C69.7753 44.2458 70.7217 43.7258 71.7893 43.7258C73.5695 43.7258 75.0117 45.1676 75.0117 46.9479C75.0117 47.2975 74.9546 47.6342 74.8521 47.9495L74.9502 47.9468C75.8256 47.9468 76.5369 48.6572 76.5369 49.5335C76.5369 49.6361 76.5257 49.7368 76.5079 49.8341L76.5414 49.8332C77.0359 49.8332 77.4391 50.227 77.4556 50.7179C77.5934 50.6921 77.7347 50.6778 77.8805 50.6778C78.4514 50.6778 78.9878 50.8772 79.3727 51.2415C80.4033 52.2164 79.2773 52.4692 78.1936 52.4692H76.7799H75.6704H52.9196H51.1443H48.2277C47.0968 52.4692 45.4816 52.6552 46.604 51.4729C47.3113 50.7278 48.3111 50.2631 49.418 50.2631" fill="#FFFFE7"/>
<path fill-rule="evenodd" clip-rule="evenodd" d="M100.478 101.204C100.478 101.204 108.353 103.543 110.535 113.922C112.717 124.3 117.465 133.98 118.116 137.179C118.767 140.377 121.423 149.106 121.965 150.136C122.507 151.166 130.052 154.834 130.052 154.834L129.89 155.849C129.283 169.888 109.837 168.197 106.18 154.907C103.808 146.292 101.811 141.941 99.7033 138.34C97.5962 134.739 100.478 101.204 100.478 101.204" fill="#675D82"/>
<path fill-rule="evenodd" clip-rule="evenodd" d="M120.802 146.815C121.331 148.483 121.776 149.777 121.965 150.136C122.284 150.742 125.025 152.26 127.229 153.408C127.019 153.747 126.763 154.101 126.445 154.473C120.482 161.485 110.217 155.594 108.41 155.522C106.644 155.45 107.034 157.205 107.053 157.284C106.704 156.538 106.41 155.746 106.18 154.907C105.989 154.215 105.801 153.55 105.615 152.912C106.944 152.063 115.695 146.789 117.084 146.557C117.532 146.483 119.043 146.531 120.802 146.815" fill="#4C466A"/>
<path fill-rule="evenodd" clip-rule="evenodd" d="M62.0947 98.8917C62.0947 98.8917 50.2212 102.953 47.2837 104.253C47.2837 104.253 54.9777 117.502 51.4271 135.282C56.2304 149.639 52.3154 154.215 51.7401 171.211C51.6786 173.028 52.6788 174.539 53.7157 175.608C60.5276 174.191 67.2285 171.843 73.1165 169.649C85.6353 164.984 95.1939 163.708 107.058 165.735C106.296 156.907 102.911 146.705 103.7 136.874C103.756 136.173 104.781 132.389 105.095 130.816C105.41 129.244 101.674 103.154 100.478 101.204L86.248 97.4606L62.0947 98.8917" fill="#675D82"/>
<path fill-rule="evenodd" clip-rule="evenodd" d="M52.182 121.616C52.5334 125.689 52.4206 130.308 51.427 135.282C52.401 138.191 53.0155 140.699 53.3731 142.99C57.9513 131.837 53.6809 120.856 53.6809 120.856L52.182 121.616" fill="#4C466A"/>
<path fill-rule="evenodd" clip-rule="evenodd" d="M85.9745 165.876L81.0512 120.118L78.8967 119.922L76.0417 168.602C79.5224 167.413 82.7904 166.506 85.9745 165.876" fill="#4C466A"/>
<path fill-rule="evenodd" clip-rule="evenodd" d="M62.0947 98.8917L60.4099 99.4723C61.9877 102.63 66.8999 111.702 68.3225 113.727C69.7446 115.753 72.7566 114.058 72.7566 114.058L80.1639 108.774L83.6428 108.279C83.6428 108.279 85.7655 108.999 87.4646 109.624C89.1628 110.248 89.0312 108.217 89.0312 108.217L86.2966 102.866L62.8778 98.8453L62.0947 98.8917" fill="#4C466A"/>
<path fill-rule="evenodd" clip-rule="evenodd" d="M80.4627 104.097L80.0926 104.654L79.2983 104.316C79.2983 104.316 72.2366 104.191 72.1113 104.034C71.9856 103.877 63.3987 97.8374 63.5258 97.4606C63.6502 97.0833 65.8376 94.4259 65.8376 94.4259V85.5104L83.4929 86.4812L83.5433 94.033L84.5342 97.2403L80.4627 104.097" fill="#FCD1C8"/>
<path fill-rule="evenodd" clip-rule="evenodd" d="M65.8376 93.7632V85.5104L83.493 86.4821L83.5433 94.033L84.0468 95.6616C82.9012 96.8211 81.7734 97.8954 81.1013 98.3565C80.0359 99.087 78.6597 99.5013 77.2764 99.6137C75.8935 99.7336 74.4664 99.5553 73.294 99.0134C71.6288 98.2424 67.1666 94.8018 65.8376 93.7632" fill="#F8A8A0"/>
<path fill-rule="evenodd" clip-rule="evenodd" d="M81.9067 104.406C81.838 104.406 81.3746 104.067 80.4627 104.097C80.1353 104.107 79.7362 104.188 79.2983 104.316C77.6309 104.804 75.7119 107.535 75.7119 107.535L80.1603 111.639C80.1603 111.639 82.1738 110.775 83.7154 111.278L84.0927 105.538L81.9067 104.406" fill="#FF808F"/>
<path fill-rule="evenodd" clip-rule="evenodd" d="M83.7154 111.278C83.7154 111.278 86.4188 115.35 87.5524 119.501C88.6838 123.653 93.2374 174.692 93.2374 174.692C93.2374 174.692 93.307 175.388 93.1188 175.765C92.931 176.143 87.725 182.409 87.725 182.409C87.725 182.409 87.5042 182.779 86.9071 182.401C86.3095 182.024 78.7064 176.143 78.7064 176.143C78.7064 176.143 78.1089 175.797 78.0469 174.774C77.9831 173.753 78.7216 130.131 78.7216 123.903C78.7216 117.677 80.1602 111.639 80.1602 111.639C80.1602 111.639 82.4328 110.191 83.7154 111.278" fill="#FF808F"/>
<path fill-rule="evenodd" clip-rule="evenodd" d="M83.5433 94.0331C83.5433 94.0331 83.5433 97.1779 82.9154 98.5617C82.2853 99.9455 80.4626 104.097 80.4626 104.097L88.6704 108.657C88.6704 108.657 88.9692 108.846 89.0312 108.217C89.095 107.588 86.248 97.4606 86.248 97.4606L83.5433 94.0331" fill="white"/>
<path fill-rule="evenodd" clip-rule="evenodd" d="M79.2983 104.316C78.9201 104.034 65.8693 96.8786 65.8693 96.8786L65.8376 94.4259C65.8376 94.4259 64.7053 94.5195 64.296 95.0859C63.887 95.6523 62.0947 98.8917 62.0947 98.8917L71.6243 111.22C71.6243 111.22 72.0645 111.849 72.6308 111.472C73.1968 111.094 79.2983 104.316 79.2983 104.316Z" fill="white"/>
<path d="M80.1612 111.837C80.0965 111.837 80.0332 111.806 79.9948 111.749C79.9346 111.657 79.96 111.534 80.0515 111.474C80.1277 111.423 81.9637 110.232 83.8001 111.099C83.8991 111.146 83.9415 111.264 83.8947 111.363C83.8474 111.462 83.7315 111.505 83.6302 111.457C82.0007 110.688 80.2865 111.794 80.27 111.805L80.1612 111.837" fill="#D66982"/>
<path fill-rule="evenodd" clip-rule="evenodd" d="M47.2837 104.253C47.2837 104.253 39.2878 107.069 36.8689 115.491C32.912 129.262 34.8862 135.512 27.5142 151.781C25.9429 155.251 26.9344 166.963 32.3942 168.914C42.7787 172.623 46.9631 161.416 48.333 155.251C49.8649 148.356 49.7204 144.053 51.9814 136.427C56.5587 120.997 51.7094 109.185 47.2837 104.253Z" fill="#675D82"/>
<path fill-rule="evenodd" clip-rule="evenodd" d="M20.1934 132.829C20.1934 132.829 19.4661 133.038 19.4539 133.541C19.4417 134.044 19.5 135.649 19.5 135.649C19.5 135.649 16.8095 139.124 17.4836 141.702C18.3106 144.872 22.0085 157.185 24.7264 163.499C26.8774 168.499 34.1534 172.958 41.4751 168.17C47.3278 164.344 45.288 157.721 42.821 152.904C39.8898 147.182 40.3544 130.621 30.8762 132.436C28.4662 132.898 25.0448 132.141 20.1934 132.829" fill="#675D82"/>
<path fill-rule="evenodd" clip-rule="evenodd" d="M19.4487 135.718C19.1508 136.119 17.6654 138.212 17.4114 140.247C19.939 144.545 31.4607 144.063 31.5164 133.508L26.7529 135.232C26.7529 135.232 22.3073 135.022 19.4487 135.718" fill="#4C466A"/>
<path fill-rule="evenodd" clip-rule="evenodd" d="M105.899 152.369L89.681 154.136C89.326 154.174 89.0032 153.914 88.9635 153.559C88.9251 153.203 89.1847 152.879 89.5414 152.84L105.757 151.074C106.113 151.035 106.437 151.295 106.475 151.651C106.514 152.007 106.254 152.33 105.899 152.369Z" fill="#ACA2B9"/>
<path fill-rule="evenodd" clip-rule="evenodd" d="M88.3091 153.63C87.9706 153.666 87.8565 153.96 88.0553 154.281L88.401 154.841C88.7907 155.469 89.6528 155.925 90.3159 155.852L105.715 154.175C106.377 154.103 107.121 153.473 107.366 152.775L107.584 152.154C107.71 151.797 107.535 151.536 107.196 151.573L88.3091 153.63Z" fill="#E4D9E1"/>
<path fill-rule="evenodd" clip-rule="evenodd" d="M152.168 149.115L105.541 154.194C105.276 154.223 105.073 154.025 105.091 153.754L107.629 114.728C107.647 114.457 107.879 114.212 108.146 114.183L154.771 109.104C155.037 109.075 155.24 109.273 155.222 109.543L152.684 148.57C152.665 148.841 152.433 149.086 152.168 149.115" fill="white"/>
<path fill-rule="evenodd" clip-rule="evenodd" d="M152.168 149.115L105.541 154.194C105.276 154.223 105.073 154.025 105.091 153.754L106.249 135.967L107.218 135.307C107.218 135.307 108.325 148.944 120.757 147.59L152.975 144.081L152.684 148.57C152.665 148.841 152.433 149.086 152.168 149.115" fill="#E4D9E1"/>
<path fill-rule="evenodd" clip-rule="evenodd" d="M108.562 114.626L106.206 150.85C106.206 150.85 106.115 151.69 105.218 151.788L107.629 114.728C107.647 114.457 107.879 114.212 108.146 114.183L109.078 114.081C108.812 114.11 108.58 114.355 108.562 114.626" fill="#ACA2B9"/>
<path fill-rule="evenodd" clip-rule="evenodd" d="M103.062 152.678L100.752 152.93C100.631 152.943 100.544 153.051 100.556 153.171L100.629 153.829C100.642 153.949 100.75 154.036 100.869 154.023L103.183 153.771C103.302 153.758 103.39 153.649 103.375 153.53L103.305 152.872C103.292 152.752 103.183 152.664 103.062 152.678Z" fill="#4C466A"/>
<path fill-rule="evenodd" clip-rule="evenodd" d="M99.2813 153.089L96.9704 153.341C96.85 153.354 96.7621 153.463 96.7755 153.583L96.8478 154.241C96.8607 154.361 96.9691 154.448 97.0881 154.435L99.4013 154.184C99.5217 154.17 99.6078 154.062 99.5948 153.942L99.5239 153.283C99.5106 153.164 99.4013 153.076 99.2813 153.089" fill="#4C466A"/>
<path fill-rule="evenodd" clip-rule="evenodd" d="M97.4199 153.513L97.4908 154.17C97.5042 154.291 97.6135 154.378 97.7339 154.365L97.0881 154.435C96.9691 154.448 96.8607 154.361 96.8478 154.241L96.7755 153.583C96.7621 153.463 96.85 153.354 96.9704 153.341L97.6135 153.271C97.4939 153.284 97.407 153.393 97.4199 153.513Z" fill="#675D82"/>
<path fill-rule="evenodd" clip-rule="evenodd" d="M101.2 153.101L101.273 153.759C101.286 153.879 101.395 153.966 101.514 153.953L100.869 154.023C100.75 154.036 100.642 153.949 100.629 153.829L100.556 153.171C100.544 153.051 100.631 152.943 100.752 152.93L101.395 152.86C101.274 152.872 101.188 152.981 101.2 153.101Z" fill="#675D82"/>
<path fill-rule="evenodd" clip-rule="evenodd" d="M94.8893 153.782C94.7056 153.803 94.5718 153.969 94.5918 154.153C94.6115 154.338 94.7774 154.472 94.9615 154.452C95.1475 154.432 95.2808 154.266 95.2599 154.081C95.2407 153.896 95.0744 153.763 94.8893 153.782Z" fill="#FF808F"/>
<path fill-rule="evenodd" clip-rule="evenodd" d="M93.2875 153.957C93.1037 153.977 92.97 154.143 92.99 154.328C93.0097 154.513 93.1755 154.646 93.3611 154.626C93.5457 154.606 93.679 154.44 93.6594 154.255C93.6398 154.071 93.4734 153.937 93.2875 153.957Z" fill="#675D82"/>
<path fill-rule="evenodd" clip-rule="evenodd" d="M91.6873 154.132C91.5017 154.152 91.3684 154.318 91.3885 154.503C91.409 154.687 91.574 154.821 91.7604 154.8C91.9441 154.781 92.0775 154.615 92.0579 154.429C92.0382 154.245 91.8719 154.111 91.6873 154.132" fill="#06C7F0"/>
<path fill-rule="evenodd" clip-rule="evenodd" d="M131.233 127.12C128.826 127.382 126.858 129.573 126.838 132.01C126.817 134.448 128.755 136.213 131.161 135.951C133.569 135.689 135.538 133.498 135.557 131.061C135.577 128.623 133.64 126.858 131.233 127.12" fill="#E4D9E1"/>
<path fill-rule="evenodd" clip-rule="evenodd" d="M108.986 114.091L154.771 109.104C155.037 109.075 155.24 109.273 155.222 109.543L154.032 127.834L153.936 127.899C153.936 127.899 152.828 114.262 140.395 115.616L108.178 119.126L108.469 114.636C108.487 114.365 108.719 114.12 108.986 114.091" fill="white"/>
<path fill-rule="evenodd" clip-rule="evenodd" d="M114.854 153.18C114.854 153.18 114.97 153.864 115.649 154.217C116.327 154.569 117.357 154.298 118.874 153.783C120.393 153.268 121.259 154.542 122.345 154.921C123.428 155.301 123.727 155.274 126.085 155.138C128.443 155.003 130.071 155.074 130.912 154.478C131.753 153.881 132.621 152.228 132.621 152.228C132.621 152.228 135.916 152.125 137.199 152.161C138.482 152.198 140.927 150.21 141.767 149.641C142.608 149.071 140.656 148.421 139.11 148.786C137.566 149.153 133.649 151.132 133.649 151.132L114.854 153.18" fill="#FCD1C8"/>
<path fill-rule="evenodd" clip-rule="evenodd" d="M61.0774 74.828C61.0774 74.828 59.4857 72.8319 58.366 72.9095C57.2453 72.9866 55.7839 75.5785 55.8851 77.5804C55.9863 79.5819 57.9102 86.5842 61.6593 84.0744C65.4062 81.5637 61.0774 74.828 61.0774 74.828" fill="#FCD1C8"/>
<path fill-rule="evenodd" clip-rule="evenodd" d="M62.4163 77.1126C62.5407 77.2535 62.5706 77.489 62.4841 77.6379C62.4074 77.7717 62.2611 77.7896 62.1429 77.6897C62.1429 77.6897 60.9808 83.7997 60.1821 82.8137C59.3834 81.8281 58.541 80.8773 58.2373 79.308C57.9313 77.7387 59.2268 76.35 58.784 75.9286C58.3626 75.5268 57.8827 76.1168 57.8386 76.1725L57.8363 76.1748V76.1765L57.8355 76.177C57.4559 76.6921 57.2695 77.3057 57.2686 77.3084C57.2129 77.4854 57.055 77.5456 56.915 77.4426C56.7736 77.3392 56.705 77.1113 56.762 76.9342C56.7643 76.9275 57.4631 74.6157 59.0123 74.7455C60.4929 74.8686 62.4118 77.1059 62.4163 77.1126" fill="#F8A8A0"/>
<path fill-rule="evenodd" clip-rule="evenodd" d="M88.3614 75.8033C88.3614 75.8033 90.068 73.9254 91.1816 74.0824C92.2942 74.2398 93.6009 76.9311 93.3815 78.921C93.1639 80.9113 90.8329 87.7616 87.2407 84.9891C83.6485 82.2161 88.3614 75.8033 88.3614 75.8033Z" fill="#F8A8A0"/>
<path fill-rule="evenodd" clip-rule="evenodd" d="M86.8915 77.9871C86.7599 78.1191 86.7162 78.3524 86.7929 78.5071C86.8629 78.6458 87.007 78.6744 87.1323 78.5829C87.1323 78.5829 87.9332 84.763 88.7885 83.8363C89.643 82.9096 90.5389 82.0212 90.9354 80.4769C91.3314 78.9326 90.1193 77.4542 90.5862 77.0654C91.0295 76.6939 91.4745 77.3178 91.5151 77.3766L91.5173 77.3793V77.3806L91.5182 77.3815C91.8674 77.922 92.0164 78.5477 92.0172 78.5508C92.0618 78.7319 92.2175 78.8028 92.3638 78.71C92.5082 78.6164 92.5916 78.3943 92.5457 78.2132C92.543 78.2066 91.9816 75.8501 90.4274 75.868C88.9437 75.8854 86.8977 77.9813 86.8915 77.9871Z" fill="#F8A8A0"/>
<path fill-rule="evenodd" clip-rule="evenodd" d="M76.7117 50.1418C96.6771 51.1764 93.2463 68.2306 91.0861 82.0034C90.1759 87.7999 87.1604 91.1339 87.1604 91.1339C87.1604 91.1339 83.3007 96.0336 81.3233 97.1079C80.1455 97.7474 78.6855 98.0131 77.2535 97.9583C75.8211 97.9101 74.3794 97.5418 73.24 96.8189C71.7893 95.8984 66.9797 91.9268 64.7428 90.064C61.8878 87.6853 60.9414 85.0421 60.5365 80.9108C59.171 67.0127 56.7281 49.7476 76.7117 50.1418" fill="#FCD1C8"/>
<path fill-rule="evenodd" clip-rule="evenodd" d="M79.0965 68.3202C79.0965 68.3202 76.1604 67.563 75.4219 67.9576C74.6834 68.3519 74.0885 71.6484 74.773 73.6043C74.773 73.6043 74.9229 74.0895 74.7347 74.2068C74.5465 74.3236 73.3986 74.2625 72.401 71.8629C71.403 69.4645 72.9237 66.6617 74.0542 65.5294C75.1842 64.3962 77.8934 65.5134 79.0965 68.3202Z" fill="#F8A8A0"/>
<path fill-rule="evenodd" clip-rule="evenodd" d="M88.5619 48.1925C82.4885 45.9378 74.4439 45.9288 66.3155 50.0767C68.3286 41.9228 57.2546 49.1272 60.3785 57.5825C58.5122 59.0778 57.8647 60.8679 58.0489 62.6066C58.1523 63.6002 58.4052 69.2723 58.6897 72.9385C60.2158 73.908 60.1908 78.1356 60.416 79.7067C61.464 79.007 62.7452 77.8569 62.8933 75.4969C67.5691 74.5506 66.926 67.563 67.1811 67.1933C67.6654 66.4913 69.7752 64.105 71.1185 64.6946C71.8159 65.001 75.1882 66.9221 76.5212 67.8907C77.7707 68.8014 78.7376 68.9936 79.9243 68.9316C84.8931 68.668 89.7691 66.8365 90.9563 69.3089C92.5546 72.6384 89.6969 75.6227 91.342 80.3757L92.9113 76.1141C93.4384 74.5796 94.4646 69.3218 94.2242 68.9909C102.243 67.9991 103.481 58.6211 100.287 62.0688C100.287 62.0688 102.712 55.7898 100.287 49.4019C98.1803 43.8489 92.0729 43.5782 88.5619 48.1925" fill="#4C466A"/>
<path fill-rule="evenodd" clip-rule="evenodd" d="M101.313 56.9711C101.471 54.777 101.312 52.0991 100.287 49.4019C99.7546 47.9972 98.9661 46.9318 98.0269 46.1964C88.3805 66.5587 64.8694 53.3491 64.8694 53.3491C72.5911 63.6551 92.4057 66.1542 101.313 56.9711" fill="#595276"/>
<path fill-rule="evenodd" clip-rule="evenodd" d="M78.1395 68.7439C78.1395 68.7439 75.3015 67.6201 74.5269 67.9175C73.7531 68.2158 72.8188 71.4147 73.2938 73.4447C73.2938 73.4447 73.3923 73.9464 73.193 74.0382C72.9941 74.1301 71.8605 73.9236 71.1198 71.4138C70.3786 68.9048 72.1798 66.313 73.4218 65.3319C74.6624 64.3499 77.2369 65.8032 78.1395 68.7439" fill="#4C466A"/>
<path fill-rule="evenodd" clip-rule="evenodd" d="M79.3246 90.2322C79.5325 90.2161 79.689 90.0337 79.6725 89.8259C79.6573 89.6176 79.4758 89.4611 79.2676 89.4772C79.2644 89.4772 78.1625 89.5458 76.7903 89.2198C76.5874 89.1717 76.3836 89.2979 76.3359 89.5017C76.2872 89.705 76.4134 89.9093 76.6172 89.957C78.0969 90.3093 79.3202 90.2322 79.3246 90.2322Z" fill="#F8A8A0"/>
<path fill-rule="evenodd" clip-rule="evenodd" d="M82.1487 88.2847C82.3574 88.2396 82.4908 88.0327 82.4457 87.8236C82.4011 87.6144 82.1956 87.4806 81.9855 87.5257C81.9695 87.5297 76.1221 88.8305 73.9829 85.7686C73.8607 85.5929 73.619 85.5496 73.4424 85.6727C73.2676 85.7954 73.2234 86.0371 73.3465 86.2123C75.7841 89.7024 82.1296 88.2882 82.1487 88.2847" fill="#F8A8A0"/>
<path fill-rule="evenodd" clip-rule="evenodd" d="M74.5083 86.0839C74.7228 86.0874 74.9003 85.9166 74.9034 85.7021C74.9065 85.4881 74.7357 85.3106 74.5212 85.3066C74.5172 85.3066 72.9394 85.2473 72.9439 86.7488C72.9439 86.9628 73.1178 87.1354 73.3309 87.135C73.5459 87.1345 73.7185 86.9611 73.7176 86.747C73.7162 86.0558 74.5047 86.0834 74.5083 86.0839" fill="#F8A8A0"/>
<path fill-rule="evenodd" clip-rule="evenodd" d="M22.4092 114.634C20.8666 115.416 20.4976 116.171 20.4976 116.171L23.6102 118.591C22.4243 116.895 22.4092 114.634 22.4092 114.634ZM24.3588 110.36C24.3588 110.36 25.8444 108.96 26.65 109.931C27.4549 110.901 26.4901 113.409 26.941 114.929C27.3904 116.448 31.1662 119.738 31.836 122.269C32.5065 124.801 34.0223 133.002 29.8437 135.02C29.8437 135.02 23.571 146.19 16.1684 133.689L13.8149 131.796C13.8149 131.796 12.5285 131.065 12.991 129.328C13.2984 128.169 13.3141 126.332 13.8489 125.133C14.2365 124.265 14.7748 122.916 15.989 123.072C15.989 123.072 15.4658 122.296 16.1292 121.137L15.3392 115.905C15.3392 115.905 14.2417 112.346 13.7505 110.824C13.2584 109.302 13.6016 108.296 14.0466 107.288C14.492 106.28 15.0918 105.067 15.3314 104.727C15.5709 104.386 17.5664 104.019 17.2298 108.716L18.4835 112.41C18.4835 112.41 19.8492 111.613 21.3172 110.822C22.7854 110.032 23.9552 109.827 24.3588 110.36" fill="#FCD1C8"/>
<path d="M29.3808 124.977L29.3381 124.972C25.6956 124.167 25.1625 121.397 25.1007 120.953L23.451 118.709C23.3857 118.62 23.4048 118.496 23.4928 118.431C23.5817 118.367 23.7058 118.386 23.7706 118.473L25.4255 120.725C25.5257 120.775 25.882 120.919 26.4032 120.702C26.5047 120.66 26.6206 120.709 26.6624 120.809C26.7051 120.911 26.6563 121.027 26.5552 121.069C26.1342 121.244 25.7844 121.233 25.5431 121.18C25.7217 121.961 26.4606 123.929 29.4235 124.584C29.5306 124.608 29.5985 124.714 29.5745 124.821C29.5541 124.914 29.4723 124.977 29.3808 124.977V124.977ZM28.2572 134.498L28.1701 134.478C25.5153 133.187 24.0825 131.378 23.6827 130.818C23.3073 131.04 22.7925 131.122 22.1912 130.864C21.1716 130.427 19.9682 129.315 19.3712 128.723C19.1822 129.243 18.6713 130.289 17.3906 131.368C17.3069 131.439 17.1815 131.428 17.1104 131.345C17.0399 131.261 17.0508 131.135 17.1345 131.065C18.5368 129.884 18.9592 128.737 19.0576 128.404L19.0449 128.391L17.0209 128.027L15.1068 129.431C15.0193 129.495 14.8937 129.477 14.8289 129.388C14.7645 129.299 14.7836 129.175 14.8716 129.11L16.4812 127.93L15.7679 127.802C15.6604 127.783 15.5881 127.68 15.6076 127.572C15.6268 127.464 15.7309 127.393 15.8379 127.412L19.1796 128.012C19.2214 128.019 19.2606 128.04 19.2902 128.071C19.3067 128.09 21.0357 129.937 22.3474 130.5C23.1806 130.856 23.6574 130.372 23.7837 130.215C24.0023 129.943 24.0386 129.649 23.9471 129.521L23.712 129.195C23.5808 129.014 23.4727 128.864 23.0721 128.295L23.0468 128.259C22.9984 128.189 22.9453 128.114 22.888 128.033C22.7234 127.798 22.573 127.567 22.4267 127.342C21.8815 126.504 21.4111 125.78 20.4739 125.339C19.2418 124.761 15.9403 123.268 15.9078 123.253C15.8074 123.208 15.763 123.09 15.8079 122.99C15.8532 122.89 15.9717 122.845 16.0706 122.891C16.1041 122.906 19.4083 124.4 20.642 124.98C21.682 125.468 22.2054 126.273 22.7594 127.126C22.9031 127.347 23.0512 127.574 23.2132 127.804C23.2716 127.888 23.3255 127.965 23.3749 128.035C23.505 128.151 24.3441 128.867 25.8663 129.521C26.7477 129.9 27.657 129.39 28.1022 128.692C28.3126 128.362 28.4627 127.891 28.1936 127.652C27.3391 126.889 20.1943 120.831 18.974 119.848C18.6326 119.574 18.2885 119.456 17.9637 119.5C17.4297 119.569 17.0871 120.029 17.084 120.033L16.2957 121.246C16.2365 121.337 16.1128 121.364 16.021 121.304C15.929 121.244 15.9029 121.121 15.963 121.029L16.7573 119.808C16.7812 119.774 17.212 119.197 17.9123 119.106C18.3582 119.047 18.7946 119.194 19.2231 119.539C20.4452 120.524 27.6022 126.591 28.4584 127.356C28.832 127.69 28.8242 128.297 28.4366 128.905C27.9009 129.745 26.7922 130.351 25.7095 129.886C25.0441 129.6 24.5066 129.305 24.0955 129.048L24.2697 129.291C24.4828 129.588 24.41 130.07 24.0938 130.463L23.9971 130.572C24.3589 131.076 25.7727 132.871 28.3443 134.121C28.4427 134.169 28.4837 134.287 28.4357 134.386C28.4018 134.457 28.3303 134.498 28.2572 134.498" fill="#F8A8A0"/>
<path fill-rule="evenodd" clip-rule="evenodd" d="M24.3588 110.36C24.3588 110.36 26.4157 112.796 22.4092 114.634C22.4092 114.634 22.4135 115.216 22.5711 116.01C27.8137 114.668 25.3587 110.855 24.4412 110.288C24.3898 110.333 24.3588 110.36 24.3588 110.36V110.36ZM25.6205 125.185C22.2364 121.518 21.7393 118.457 21.7109 117.114L20.4976 116.171L18.0001 119.296C18.3172 119.271 18.6891 119.364 19.0984 119.694C19.9155 120.352 23.1882 123.115 25.6205 125.185ZM18.4835 112.41C16.5208 113.51 14.9899 112.858 14.2339 112.353C14.7173 113.892 15.2765 115.703 15.3349 115.889C15.2951 115.758 15.0666 114.823 16.0569 114.114C17.1248 113.349 18.4835 112.41 18.4835 112.41Z" fill="#F8A8A0"/>
<path d="M51.9813 136.626L51.9251 136.618C51.8203 136.586 51.7601 136.476 51.7918 136.371C53.6269 130.185 54.0938 124.15 53.1827 118.41L53.1765 118.371C53.106 117.932 53.0275 117.494 52.9415 117.058C52.92 116.95 52.9901 116.845 53.0971 116.824C53.2041 116.804 53.3098 116.873 53.3308 116.98C53.3914 117.287 53.4481 117.595 53.5016 117.904L53.7246 117.64C53.795 117.556 53.9199 117.546 54.0042 117.618C54.088 117.689 54.0978 117.814 54.0274 117.897L53.5859 118.418C54.4907 124.196 54.0171 130.265 52.1722 136.484C52.1463 136.57 52.0678 136.626 51.9813 136.626V136.626ZM104.353 149.144C104.256 149.144 104.172 149.073 104.157 148.975C103.433 144.171 103.225 140.321 103.502 136.858C103.535 136.452 103.864 135.113 104.214 133.696C104.483 132.601 104.763 131.468 104.9 130.777C105.042 130.069 104.27 123.637 103.2 116.473L103.197 116.454C103.094 115.761 102.988 115.062 102.879 114.361C102.863 114.253 102.937 114.151 103.045 114.134C103.151 114.116 103.255 114.192 103.272 114.3C103.342 114.759 103.413 115.222 103.484 115.687L103.596 115.41C103.637 115.308 103.754 115.26 103.854 115.301C103.956 115.342 104.006 115.458 103.964 115.559L103.599 116.459C104.593 123.129 105.455 130.03 105.29 130.855C105.15 131.555 104.87 132.691 104.599 133.791C104.269 135.13 103.928 136.515 103.898 136.89C103.623 140.321 103.831 144.142 104.549 148.916C104.566 149.024 104.491 149.125 104.383 149.141L104.353 149.144ZM42.821 153.103C42.7487 153.103 42.6792 153.063 42.6444 152.995C42.3701 152.46 42.1253 151.831 41.8996 151.134L41.8943 151.117C41.4073 149.609 41.0091 147.782 40.5948 145.883C39.3394 140.128 37.9168 133.605 33.4675 132.623C33.3605 132.6 33.2923 132.493 33.3164 132.387C33.34 132.279 33.4457 132.212 33.5527 132.236C38.2508 133.272 39.702 139.927 40.9823 145.798C41.3868 147.65 41.7752 149.431 42.2421 150.902L42.8995 151.083C43.0056 151.112 43.0676 151.222 43.0386 151.328C43.0092 151.433 42.9004 151.493 42.7942 151.466L42.3915 151.355C42.5788 151.896 42.7786 152.387 42.9976 152.814C43.0475 152.911 43.0092 153.031 42.9111 153.081L42.821 153.103" fill="#4C466A"/>
<path d="M100.287 62.2677L100.216 62.2543C100.114 62.2151 100.063 62.1 100.102 61.9979C100.126 61.9359 102.47 55.7117 100.102 49.4728C99.1958 47.0834 97.4365 45.5342 95.2754 45.2211C92.9092 44.8791 90.4546 46.0337 88.7203 48.3125C88.653 48.4003 88.5286 48.4164 88.4416 48.3508C88.3546 48.2844 88.3381 48.1595 88.4041 48.0726C90.2272 45.6769 92.8151 44.4635 95.332 44.8282C97.6403 45.1623 99.5137 46.8038 100.473 49.3319C102.896 55.7167 100.497 62.0768 100.473 62.1406C100.442 62.2191 100.367 62.2677 100.287 62.2677V62.2677ZM73.2399 97.0178L73.1338 96.9866C71.7188 96.0889 67.1892 92.3593 64.6152 90.2165C62.6316 88.5638 61.58 86.7622 60.9824 84.6475C60.2332 84.9208 59.5139 84.8495 58.8401 84.4361C56.7749 83.1705 55.7616 79.082 55.6876 77.5902C55.639 76.631 55.9391 75.451 56.4899 74.4342C56.5425 74.3375 56.6616 74.3018 56.7588 74.3544C56.8556 74.4066 56.8912 74.527 56.8391 74.6233C56.3218 75.579 56.0386 76.6805 56.0836 77.5706C56.1528 78.9535 57.1361 82.9261 59.0474 84.0976C59.6299 84.4539 60.2305 84.5101 60.8794 84.2622C60.6194 83.2316 60.4562 82.1269 60.3389 80.93C60.3282 80.8212 60.408 80.724 60.5173 80.7133C60.6332 80.695 60.7238 80.7824 60.734 80.8912C60.8562 82.1336 61.0212 83.2574 61.2897 84.2925L61.2933 84.2992L61.3098 84.3705C61.877 86.5035 62.8893 88.2615 64.8694 89.9111C67.4358 92.0485 71.9511 95.7651 73.3465 96.6512C73.4397 96.7101 73.4665 96.8327 73.4072 96.9255C73.3697 96.9848 73.3059 97.0178 73.2399 97.0178V97.0178ZM12.991 129.526L12.9404 129.519C12.8342 129.491 12.7715 129.382 12.7993 129.277C12.9157 128.839 12.9892 128.297 13.0676 127.723C13.1965 126.783 13.3289 125.812 13.6677 125.052L13.72 124.934C14.078 124.126 14.6029 122.943 15.6806 122.865C15.5683 122.512 15.4937 121.886 15.9228 121.1L15.1423 115.935C15.138 115.928 14.0466 112.388 13.5615 110.885C13.0459 109.291 13.4108 108.236 13.8655 107.208C14.2896 106.247 14.9089 104.982 15.1688 104.612C15.3209 104.395 15.7529 104.257 16.1881 104.412C16.7497 104.612 17.6561 105.435 17.4305 108.69L18.5933 112.117C19.034 111.863 20.1036 111.25 21.2228 110.647C22.6992 109.853 23.8233 109.657 24.3694 110.089C24.6633 109.847 25.3502 109.356 26.0064 109.392C26.3243 109.412 26.5917 109.55 26.8025 109.804C27.2989 110.402 27.2017 111.437 27.0992 112.533C27.0211 113.366 26.9401 114.228 27.1312 114.873C27.3129 115.487 28.1343 116.483 29.0039 117.539C30.2368 119.036 31.6348 120.732 32.0282 122.219C32.056 122.325 31.9928 122.434 31.8865 122.462C31.7794 122.489 31.6719 122.426 31.6441 122.32C31.2733 120.917 29.905 119.257 28.6978 117.792C27.7623 116.657 26.9549 115.676 26.7506 114.986C26.5373 114.267 26.6222 113.367 26.704 112.496C26.799 111.485 26.8887 110.529 26.4973 110.057C26.3574 109.889 26.1884 109.801 25.9825 109.788C25.4376 109.753 24.719 110.294 24.4952 110.505C24.4534 110.544 24.3959 110.563 24.3422 110.558C24.2861 110.553 24.2348 110.525 24.2008 110.48C23.878 110.055 22.7846 110.257 21.4115 110.997C19.9634 111.777 18.5971 112.574 18.5837 112.582C18.5323 112.611 18.4696 112.617 18.4139 112.596C18.3581 112.575 18.3145 112.53 18.2954 112.474L17.0415 108.779L17.0316 108.701C17.2554 105.583 16.4323 104.928 16.0677 104.791C15.7782 104.682 15.5317 104.791 15.4937 104.841C15.2777 105.148 14.6981 106.305 14.2287 107.368C13.7906 108.36 13.4657 109.3 13.9392 110.763C14.4255 112.269 15.5177 115.811 15.5291 115.846L16.3252 121.108C16.3321 121.151 16.3234 121.197 16.3013 121.236C15.7132 122.263 16.1362 122.934 16.1545 122.962C16.1971 123.027 16.198 123.111 16.1571 123.177C16.1161 123.243 16.0426 123.28 15.9637 123.269C14.9574 123.136 14.4482 124.27 14.0832 125.095L14.0301 125.214C13.7144 125.922 13.5859 126.865 13.4613 127.776C13.3812 128.363 13.3054 128.917 13.1831 129.378C13.1594 129.467 13.0789 129.526 12.991 129.526V129.526ZM33.6392 131.915L33.6067 131.913C33.4987 131.895 33.4252 131.793 33.443 131.684C33.6009 130.735 33.748 129.791 33.897 128.841C34.524 124.824 35.1737 120.671 36.6779 115.436C39.0977 107.013 47.1369 104.095 47.2176 104.066C50.115 102.783 61.9114 98.7445 62.0304 98.7039C62.1303 98.6687 62.2467 98.724 62.2819 98.8275C62.3176 98.9314 62.2628 99.0442 62.1584 99.0799C62.0407 99.12 50.2604 103.153 47.3643 104.435C47.2702 104.468 39.4214 107.324 37.0597 115.545C35.5622 120.757 34.9151 124.897 34.289 128.902C34.1405 129.854 33.9924 130.799 33.835 131.75C33.8194 131.847 33.7346 131.915 33.6392 131.915" fill="white"/>
<path fill-rule="evenodd" clip-rule="evenodd" d="M22.9614 106.036L22.9675 106.039L22.9867 106.054V106.054C25.5295 107.9 30.7247 105.174 34.6128 99.941C38.4993 94.7091 39.6128 88.9487 37.1097 87.0462V87.0458L37.091 87.0315L37.0856 87.028L37.0812 87.0239L36.7636 86.7894L36.4488 86.5548L34.9936 85.4725L20.8684 104.481L22.6409 105.798V105.797L22.9562 106.032L22.9614 106.036" fill="#F6B670"/>
<path fill-rule="evenodd" clip-rule="evenodd" d="M20.8684 104.482C23.4026 106.365 28.6194 103.635 32.5199 98.3864C36.4202 93.1371 37.5275 87.3557 34.9936 85.4725C32.4597 83.5896 27.2432 86.3184 23.3423 91.5678C19.4417 96.8166 18.3346 102.598 20.8684 104.482" fill="#FBD978"/>
<path fill-rule="evenodd" clip-rule="evenodd" d="M22.2889 102.277C24.2626 103.744 28.3258 101.618 31.3656 97.5284C34.4035 93.4399 35.2669 88.9353 33.2922 87.4685C31.3172 86.0023 27.2536 88.1277 24.2164 92.2166C21.1772 96.3065 20.3152 100.81 22.2889 102.277" fill="#FBB872"/>
<path d="M21.7438 94.2105L21.6462 94.1846C21.5504 94.1302 21.5173 94.0094 21.5717 93.9139C22.0443 93.0822 22.5864 92.2532 23.1836 91.4496C27.1431 86.1209 32.4936 83.3676 35.1118 85.3133C35.2001 85.3788 35.2184 85.5028 35.1529 85.5911C35.0878 85.6794 34.9624 85.6968 34.8755 85.6317C32.4321 83.818 27.3313 86.5334 23.5015 91.686C22.9144 92.4771 22.3814 93.2923 21.9162 94.1102C21.8805 94.1748 21.813 94.2105 21.7438 94.2105V94.2105ZM21.0022 95.6313L20.9172 95.6121C20.8184 95.5653 20.7758 95.4471 20.8226 95.3477C20.8998 95.1845 20.9822 95.0208 21.0644 94.8562C21.1141 94.7572 21.2325 94.7189 21.3309 94.768C21.4288 94.8175 21.4686 94.9365 21.4189 95.0346C21.3379 95.1961 21.2577 95.357 21.1814 95.5176C21.148 95.5889 21.0766 95.6313 21.0022 95.6313V95.6313ZM31.9476 99.3256C31.9041 99.3256 31.8599 99.3113 31.8234 99.2823C31.738 99.2132 31.7238 99.0888 31.7926 99.0032C31.9838 98.7641 32.1735 98.5189 32.3603 98.2678C32.4268 98.1791 32.5516 98.1625 32.6381 98.2272C32.7264 98.2923 32.7447 98.4167 32.6792 98.505C32.4896 98.7592 32.297 99.0085 32.1026 99.2507C32.0634 99.3002 32.006 99.3256 31.9476 99.3256ZM22.8299 105.274C22.0335 105.274 21.3266 105.069 20.7508 104.641C20.6625 104.576 20.6437 104.451 20.7094 104.363C20.7752 104.275 20.8992 104.257 20.9869 104.322C23.1159 105.904 27.4732 103.96 31.1219 99.8001C31.195 99.718 31.3196 99.7096 31.4024 99.7823C31.4851 99.8541 31.4929 99.9798 31.4206 100.062C28.5214 103.365 25.26 105.274 22.8299 105.274Z" fill="white"/>
<path fill-rule="evenodd" clip-rule="evenodd" d="M174.761 117.912H173.711V113.71H165.307V128.416H177.912V117.912H174.761ZM176.862 115.811H175.811V114.76H174.761V116.861H176.862V115.811ZM164.256 112.66H174.761V113.71H175.811V114.76H176.862V115.811H177.912V116.861H178.963V117.912V128.416V129.467H177.912H165.307H164.256V128.416V113.71V112.66" fill="#E18B09"/>
<path fill-rule="evenodd" clip-rule="evenodd" d="M166.357 117.912H167.409V116.861H168.459V115.811H170.56V116.861H171.61V117.912H172.661V118.962H166.357V117.912" fill="#E18B09"/>
<path fill-rule="evenodd" clip-rule="evenodd" d="M166.357 126.315H167.409V125.264H168.459V124.214H169.509V123.163H170.56V122.113H171.085V121.063H172.136V122.113H172.661V123.163H173.711V124.214H174.761V125.264H175.811V126.315H176.862V127.365H166.357V126.315" fill="#E18B09"/>
<path fill-rule="evenodd" clip-rule="evenodd" d="M131.162 57.1103L159.368 62.8323L163.847 61.3442L164.461 63.866L139.109 100.951L105.063 87.5627L104.45 85.0408L106.9 85.419L131.162 57.1103" fill="#4C466A"/>
<path fill-rule="evenodd" clip-rule="evenodd" d="M155.956 62.1397L159.368 62.8323L163.847 61.3442L164.461 63.866L139.109 100.951L138.495 98.4292L137.824 81.809L155.956 62.1397" fill="#595276"/>
<path fill-rule="evenodd" clip-rule="evenodd" d="M130.549 54.588L163.847 61.3442L138.495 98.4292L104.45 85.0408L130.549 54.588Z" fill="#675D82"/>
<path fill-rule="evenodd" clip-rule="evenodd" d="M131.834 58.3295L110.158 83.6209L137.213 94.2604L158.131 63.6644L131.834 58.3295Z" fill="white"/>
<path fill-rule="evenodd" clip-rule="evenodd" d="M132.36 60.2199L153.728 64.5555L157.058 65.2311L158.131 63.6644L155.113 63.0521L131.834 58.3295L124.187 67.2512L120.857 71.1377L110.158 83.6209L111.763 84.2523L121.766 72.5804L125.01 68.796L132.36 60.2199" fill="#E3CED3"/>
<path fill-rule="evenodd" clip-rule="evenodd" d="M132.36 60.2199L153.728 64.5555L157.058 65.2311L158.131 63.6645L155.113 63.0522L131.834 58.3295L132.36 60.2199" fill="#F0E3E5"/>
<path fill-rule="evenodd" clip-rule="evenodd" d="M140.831 72.01C141.426 71.1346 142.015 70.2708 142.597 69.4146C143.077 69.6344 143.562 69.8547 144.051 70.0773C144.236 70.5018 144.424 70.9268 144.614 71.358C144.413 71.8209 144.212 72.2879 144.012 72.7579C142.94 72.505 141.879 72.2562 140.831 72.01ZM142.761 68.1521C141.02 67.798 139.311 67.4515 137.636 67.1108C135.992 66.7768 134.38 66.4481 132.798 66.1275C132.292 66.7522 131.785 67.3815 131.271 68.0152C130.754 68.6529 130.236 69.2973 129.71 69.9453C128.732 71.156 127.738 72.386 126.732 73.6311C125.71 74.8958 124.671 76.1801 123.617 77.4832C122.756 78.5491 121.885 79.6265 121.003 80.7186C122.184 81.0874 123.384 81.4629 124.603 81.8442C126.137 82.3209 127.701 82.8088 129.294 83.3052C130.918 83.8122 132.577 84.3313 134.268 84.858C134.894 85.0533 135.525 85.2504 136.159 85.4484C136.356 85.51 136.553 85.5724 136.752 85.6339C137.563 84.4749 138.363 83.3279 139.152 82.1974C140.194 80.7106 141.217 79.2461 142.223 77.8083C143.213 76.392 144.188 74.9984 145.146 73.6266C143.741 73.3015 142.359 72.9831 140.997 72.6678C140.55 72.5652 140.105 72.4613 139.658 72.3592C139.923 72.0002 140.186 71.643 140.45 71.2858C141.229 70.2293 141.999 69.1849 142.761 68.1521Z" fill="#FBD978"/>
<path fill-rule="evenodd" clip-rule="evenodd" d="M131.052 70.5981C131.428 70.6847 131.805 70.7734 132.186 70.8608C132.437 70.5433 132.687 70.2262 132.94 69.9069C133.321 69.9921 133.704 70.079 134.089 70.1664C134.338 69.848 134.586 69.5314 134.834 69.2157C135.609 69.3847 136.388 69.5555 137.176 69.729C136.929 70.0501 136.684 70.3725 136.436 70.6958C136.835 70.7859 137.234 70.8742 137.636 70.9665C137.388 71.2952 137.138 71.6238 136.89 71.9525C137.294 72.0475 137.699 72.1425 138.106 72.2361C137.855 72.5733 137.604 72.9077 137.354 73.2449C136.132 72.9537 134.929 72.6656 133.745 72.3828C132.575 72.1023 131.424 71.8276 130.288 71.5543C130.541 71.235 130.798 70.9179 131.052 70.5981" fill="white"/>
<path fill-rule="evenodd" clip-rule="evenodd" d="M124.685 78.5834C125.065 78.6944 125.445 78.8064 125.829 78.9174C126.105 78.5678 126.38 78.2186 126.658 77.8677C127.043 77.9774 127.429 78.088 127.82 78.1972C128.091 77.8485 128.365 77.4993 128.636 77.1515C129.026 77.2585 129.419 77.3677 129.812 77.4748C130.08 77.1256 130.349 76.7804 130.617 76.4312C131.012 76.5383 131.408 76.644 131.809 76.7514C132.075 76.4045 132.339 76.0575 132.604 75.7119C132.805 75.7623 133.003 75.8154 133.205 75.868C133.467 75.5246 133.728 75.1803 133.99 74.8352C134.392 74.9382 134.796 75.0399 135.202 75.1442C134.944 75.4912 134.682 75.8377 134.422 76.1846C134.627 76.239 134.832 76.2925 135.037 76.3452C134.774 76.6984 134.509 77.0502 134.246 77.4034C134.658 77.5153 135.074 77.6255 135.491 77.7383C135.223 78.0982 134.958 78.459 134.691 78.8202C135.11 78.937 135.533 79.0521 135.955 79.1707C135.685 79.5386 135.417 79.9057 135.147 80.2758C135.574 80.3962 136.004 80.5184 136.436 80.6415C136.164 81.017 135.892 81.3943 135.62 81.7729C136.055 81.8982 136.491 82.0262 136.929 82.1546C136.654 82.5386 136.379 82.9243 136.104 83.3105C133.932 82.6594 131.811 82.0248 129.746 81.4063C127.732 80.8029 125.765 80.212 123.847 79.6381C124.126 79.2853 124.406 78.9344 124.685 78.5834" fill="#F6B670"/>
<path fill-rule="evenodd" clip-rule="evenodd" d="M140.592 72.8136C140.174 72.7169 139.757 72.6192 139.341 72.5238C139.588 72.1866 139.835 71.8535 140.083 71.519C140.818 70.5259 141.542 69.5435 142.258 68.5726C140.626 68.2373 139.024 67.9064 137.454 67.5831C135.911 67.2646 134.394 66.9516 132.905 66.6443C131.185 68.7809 129.419 70.9723 127.607 73.2217C125.745 75.5344 123.833 77.9104 121.865 80.3547C124.143 81.0562 126.487 81.7791 128.902 82.523C131.391 83.29 133.957 84.0798 136.603 84.895C137.982 82.9301 139.334 81.0063 140.656 79.1257C141.949 77.2866 143.218 75.48 144.46 73.7131C143.15 73.4081 141.861 73.1093 140.592 72.8136V72.8136ZM144.614 71.358C144.185 71.2635 143.756 71.1694 143.33 71.0771C143.57 70.7426 143.809 70.4099 144.051 70.0773C143.625 69.9867 143.205 69.8971 142.787 69.8075C142.305 70.4679 141.82 71.1324 141.332 71.7995C142.176 71.9909 143.028 72.1831 143.888 72.3775C144.129 72.0363 144.372 71.6974 144.614 71.358V71.358ZM132.531 65.5259C132.894 65.599 133.26 65.6726 133.629 65.7457C135.115 66.0432 136.629 66.3464 138.17 66.6541C139.739 66.9681 141.336 67.2874 142.967 67.6134C143.376 67.6954 143.791 67.7784 144.205 67.8613C143.971 68.1855 143.735 68.5066 143.5 68.8295C143.919 68.916 144.337 69.0025 144.762 69.0899C144.525 69.4195 144.288 69.7486 144.051 70.0773C144.477 70.1665 144.903 70.2579 145.332 70.3493C145.091 70.6847 144.853 71.0205 144.614 71.358C145.045 71.4517 145.48 71.5467 145.916 71.643C145.675 71.9855 145.435 72.328 145.192 72.6714C145.632 72.7699 146.072 72.8707 146.52 72.9697C146.277 73.3203 146.033 73.6699 145.79 74.0204C144.552 75.8051 143.288 77.6286 141.999 79.4869C140.682 81.3862 139.334 83.3275 137.959 85.3115C137.678 85.7151 137.398 86.1187 137.118 86.5227C136.659 86.3787 136.207 86.2351 135.759 86.0928C133.108 85.254 130.54 84.4401 128.049 83.6521C125.632 82.8873 123.284 82.1439 121.006 81.4223C120.634 81.3042 120.26 81.1864 119.892 81.07C120.179 80.7182 120.466 80.3654 120.754 80.0109C122.723 77.5907 124.638 75.2343 126.502 72.9416C128.316 70.7096 130.084 68.537 131.806 66.4164C132.047 66.1199 132.289 65.8247 132.531 65.5259" fill="#F6B670"/>
<path fill-rule="evenodd" clip-rule="evenodd" d="M174.372 38.3209H157.15C156.05 38.3209 155.149 39.2217 155.149 40.3214V47.7742C155.149 48.874 156.05 49.7748 157.15 49.7748H159.926L162.304 52.3024C162.571 52.587 163.008 52.587 163.274 52.3038L165.652 49.7748H174.372C175.471 49.7748 176.372 48.874 176.372 47.7742V40.3214C176.372 39.2208 175.47 38.3209 174.372 38.3209Z" fill="#F2994A"/>
<path d="M157.15 38.5987C156.2 38.5987 155.427 39.3715 155.427 40.3214V47.7742C155.427 48.7241 156.2 49.4965 157.15 49.4965H159.926C160.002 49.4965 160.076 49.5286 160.129 49.5843L162.506 52.112C162.658 52.2748 162.92 52.2748 163.072 52.1138L165.449 49.5843C165.502 49.5286 165.575 49.4965 165.652 49.4965H174.372C175.321 49.4965 176.094 48.7241 176.094 47.7742V40.3214C176.094 39.3715 175.321 38.5987 174.372 38.5987H157.15ZM162.79 52.7939C162.528 52.7939 162.284 52.6868 162.102 52.4929L159.806 50.0526H157.15C155.894 50.0526 154.871 49.0305 154.871 47.7742V40.3214C154.871 39.0652 155.894 38.0431 157.15 38.0431H174.372C175.627 38.0431 176.649 39.0652 176.649 40.3214V47.7742C176.649 49.0305 175.627 50.0526 174.372 50.0526H165.772L163.476 52.4942C163.295 52.6873 163.051 52.7939 162.79 52.7939" fill="white"/>
<path fill-rule="evenodd" clip-rule="evenodd" d="M170.025 42.8148C169.476 42.8148 169.031 43.2598 169.031 43.8092C169.031 44.3578 169.476 44.8024 170.025 44.8024C170.574 44.8024 171.019 44.3578 171.019 43.8092C171.019 43.2598 170.574 42.8148 170.025 42.8148Z" fill="white"/>
<path fill-rule="evenodd" clip-rule="evenodd" d="M165.761 42.8148C165.212 42.8148 164.767 43.2598 164.767 43.8092C164.767 44.3578 165.212 44.8024 165.761 44.8024C166.31 44.8024 166.755 44.3578 166.755 43.8092C166.755 43.2598 166.31 42.8148 165.761 42.8148Z" fill="white"/>
<path fill-rule="evenodd" clip-rule="evenodd" d="M161.497 42.8148C160.947 42.8148 160.503 43.2598 160.503 43.8092C160.503 44.3578 160.947 44.8024 161.497 44.8024C162.045 44.8024 162.49 44.3578 162.49 43.8092C162.49 43.2598 162.045 42.8148 161.497 42.8148Z" fill="white"/>
<path fill-rule="evenodd" clip-rule="evenodd" d="M110.332 12.7312C110.227 12.6255 110.054 12.6255 109.949 12.7312C109.842 12.8368 109.842 13.0094 109.949 13.1156L110.439 13.6057L109.949 14.0958C109.842 14.2019 109.842 14.3745 109.949 14.4797C110.054 14.5859 110.227 14.5859 110.332 14.4797L110.822 13.9896L111.312 14.4797C111.419 14.5859 111.589 14.5859 111.697 14.4797C111.802 14.3745 111.802 14.2019 111.697 14.0958L111.207 13.6057L111.697 13.1151C111.802 13.009 111.802 12.8368 111.697 12.7312C111.589 12.6255 111.419 12.6255 111.312 12.7312L110.822 13.2217L110.332 12.7312Z" fill="#F2994A"/>
<path fill-rule="evenodd" clip-rule="evenodd" d="M104.137 12.7312C104.029 12.6255 103.858 12.6255 103.751 12.7312C103.647 12.8368 103.647 13.0094 103.751 13.1156L104.242 13.6057L103.751 14.0958C103.647 14.2019 103.647 14.3745 103.751 14.4797C103.858 14.5859 104.029 14.5859 104.137 14.4797L104.627 13.9896L105.117 14.4797C105.222 14.5859 105.395 14.5859 105.5 14.4797C105.607 14.3745 105.607 14.2019 105.5 14.0958L105.01 13.6057L105.5 13.1151C105.607 13.009 105.607 12.8368 105.5 12.7312C105.395 12.6255 105.222 12.6255 105.117 12.7312L104.627 13.2217L104.137 12.7312ZM116.529 12.7312C116.421 12.6255 116.249 12.6255 116.143 12.7312C116.038 12.8368 116.038 13.0094 116.143 13.1156L116.633 13.6057L116.143 14.0958C116.038 14.2019 116.038 14.3745 116.143 14.4797C116.249 14.5859 116.421 14.5859 116.529 14.4797L117.018 13.9896L117.509 14.4797C117.614 14.5859 117.787 14.5859 117.892 14.4797C117.999 14.3745 117.999 14.2019 117.892 14.0958L117.402 13.6057L117.892 13.1151C117.999 13.009 117.999 12.8368 117.892 12.7312C117.787 12.6255 117.614 12.6255 117.509 12.7312L117.018 13.2217L116.529 12.7312ZM122.723 12.7312C122.618 12.6255 122.445 12.6255 122.339 12.7312C122.233 12.8368 122.233 13.0094 122.339 13.1156L122.83 13.6057L122.339 14.0958C122.233 14.2019 122.233 14.3745 122.339 14.4797C122.445 14.5859 122.618 14.5859 122.723 14.4797L123.213 13.9896L123.703 14.4797C123.811 14.5859 123.981 14.5859 124.089 14.4797C124.194 14.3745 124.194 14.2019 124.089 14.0958L123.599 13.6057L124.089 13.1151C124.194 13.009 124.194 12.8368 124.089 12.7312C123.981 12.6255 123.811 12.6255 123.703 12.7312L123.213 13.2217L122.723 12.7312Z" fill="#E4D9E1"/>
<path fill-rule="evenodd" clip-rule="evenodd" d="M36.1784 187.496C36.0727 187.39 35.9006 187.39 35.7944 187.496C35.6883 187.601 35.6883 187.773 35.7944 187.879L36.2845 188.37L35.7944 188.86C35.6883 188.966 35.6883 189.138 35.7944 189.244C35.9006 189.35 36.0727 189.35 36.1784 189.244L36.6681 188.754L37.1586 189.244C37.2648 189.35 37.4365 189.35 37.5426 189.244C37.6492 189.138 37.6492 188.966 37.5426 188.86L37.0525 188.37L37.5426 187.879C37.6492 187.773 37.6492 187.601 37.5426 187.496C37.4365 187.39 37.2648 187.39 37.1586 187.496L36.6681 187.986L36.1784 187.496" fill="#F2994A"/>
<path fill-rule="evenodd" clip-rule="evenodd" d="M29.9826 187.496C29.8763 187.39 29.7047 187.39 29.5985 187.496C29.4922 187.601 29.4922 187.773 29.5985 187.879L30.0889 188.37L29.5985 188.86C29.4922 188.966 29.4922 189.138 29.5985 189.244C29.7047 189.35 29.8763 189.35 29.9826 189.244L30.473 188.754L30.9628 189.244C31.0691 189.35 31.2409 189.35 31.3483 189.244C31.4529 189.138 31.4529 188.966 31.3483 188.86L30.8571 188.37L31.3483 187.879C31.4529 187.773 31.4529 187.601 31.3483 187.496C31.2409 187.39 31.0691 187.39 30.9628 187.496L30.473 187.986L29.9826 187.496ZM42.3742 187.496C42.2681 187.39 42.0964 187.39 41.9902 187.496C41.8841 187.601 41.8841 187.773 41.9902 187.879L42.4808 188.37L41.9902 188.86C41.8841 188.966 41.8841 189.138 41.9902 189.244C42.0964 189.35 42.2681 189.35 42.3742 189.244L42.8647 188.754L43.3553 189.244C43.461 189.35 43.6331 189.35 43.7388 189.244C43.8449 189.138 43.8449 188.966 43.7388 188.86L43.2487 188.37L43.7388 187.879C43.8449 187.773 43.8449 187.601 43.7388 187.496C43.6331 187.39 43.461 187.39 43.3553 187.496L42.8647 187.986L42.3742 187.496ZM48.5707 187.496C48.4646 187.39 48.2924 187.39 48.1867 187.496C48.0802 187.601 48.0802 187.773 48.1867 187.879L48.6764 188.37L48.1867 188.86C48.0802 188.966 48.0802 189.138 48.1867 189.244C48.2924 189.35 48.4646 189.35 48.5707 189.244L49.0608 188.754L49.5505 189.244C49.6566 189.35 49.8283 189.35 49.9349 189.244C50.041 189.138 50.041 188.966 49.9349 188.86L49.4443 188.37L49.9349 187.879C50.041 187.773 50.041 187.601 49.9349 187.496C49.8283 187.39 49.6566 187.39 49.5505 187.496L49.0608 187.986L48.5707 187.496" fill="#E4D9E1"/>
<path fill-rule="evenodd" clip-rule="evenodd" d="M197.424 186.619C197.106 186.619 196.849 186.877 196.849 187.195C196.849 187.513 197.106 187.77 197.424 187.77C197.742 187.77 198 187.513 198 187.195C198 186.877 197.742 186.619 197.424 186.619Z" fill="#E4D9E1"/>
<path fill-rule="evenodd" clip-rule="evenodd" d="M194.545 186.619C194.228 186.619 193.969 186.877 193.969 187.195C193.969 187.513 194.228 187.77 194.545 187.77C194.863 187.77 195.12 187.513 195.12 187.195C195.12 186.877 194.863 186.619 194.545 186.619Z" fill="#E4D9E1"/>
<path fill-rule="evenodd" clip-rule="evenodd" d="M191.666 186.619C191.348 186.619 191.091 186.877 191.091 187.195C191.091 187.513 191.348 187.77 191.666 187.77C191.985 187.77 192.242 187.513 192.242 187.195C192.242 186.877 191.985 186.619 191.666 186.619Z" fill="#E4D9E1"/>
<path fill-rule="evenodd" clip-rule="evenodd" d="M188.787 186.619C188.47 186.619 188.212 186.877 188.212 187.195C188.212 187.513 188.47 187.77 188.787 187.77C189.105 187.77 189.363 187.513 189.363 187.195C189.363 186.877 189.105 186.619 188.787 186.619Z" fill="#E4D9E1"/>
<path fill-rule="evenodd" clip-rule="evenodd" d="M185.909 186.619C185.591 186.619 185.332 186.877 185.332 187.195C185.332 187.513 185.591 187.77 185.909 187.77C186.228 187.77 186.485 187.513 186.485 187.195C186.485 186.877 186.228 186.619 185.909 186.619Z" fill="#E4D9E1"/>
<path fill-rule="evenodd" clip-rule="evenodd" d="M183.031 186.619C182.712 186.619 182.455 186.877 182.455 187.195C182.455 187.513 182.712 187.77 183.031 187.77C183.348 187.77 183.606 187.513 183.606 187.195C183.606 186.877 183.348 186.619 183.031 186.619Z" fill="#E4D9E1"/>
<path fill-rule="evenodd" clip-rule="evenodd" d="M180.151 186.619C179.834 186.619 179.575 186.877 179.575 187.195C179.575 187.513 179.834 187.77 180.151 187.77C180.47 187.77 180.726 187.513 180.726 187.195C180.726 186.877 180.47 186.619 180.151 186.619Z" fill="#E4D9E1"/>
<path fill-rule="evenodd" clip-rule="evenodd" d="M177.273 186.619C176.954 186.619 176.698 186.877 176.698 187.195C176.698 187.513 176.954 187.77 177.273 187.77C177.591 187.77 177.849 187.513 177.849 187.195C177.849 186.877 177.591 186.619 177.273 186.619Z" fill="#E4D9E1"/>
<path fill-rule="evenodd" clip-rule="evenodd" d="M174.393 186.619C174.076 186.619 173.818 186.877 173.818 187.195C173.818 187.513 174.076 187.77 174.393 187.77C174.712 187.77 174.969 187.513 174.969 187.195C174.969 186.877 174.712 186.619 174.393 186.619Z" fill="#E4D9E1"/>
<path fill-rule="evenodd" clip-rule="evenodd" d="M171.515 186.619C171.197 186.619 170.939 186.877 170.939 187.195C170.939 187.513 171.197 187.77 171.515 187.77C171.833 187.77 172.09 187.513 172.09 187.195C172.09 186.877 171.833 186.619 171.515 186.619Z" fill="#E4D9E1"/>
<path fill-rule="evenodd" clip-rule="evenodd" d="M168.636 186.619C168.319 186.619 168.061 186.877 168.061 187.195C168.061 187.513 168.319 187.77 168.636 187.77C168.954 187.77 169.211 187.513 169.211 187.195C169.211 186.877 168.954 186.619 168.636 186.619Z" fill="#E4D9E1"/>
<path fill-rule="evenodd" clip-rule="evenodd" d="M165.757 186.619C165.439 186.619 165.181 186.877 165.181 187.195C165.181 187.513 165.439 187.77 165.757 187.77C166.075 187.77 166.332 187.513 166.332 187.195C166.332 186.877 166.075 186.619 165.757 186.619Z" fill="#E4D9E1"/>
<path fill-rule="evenodd" clip-rule="evenodd" d="M162.879 186.619C162.561 186.619 162.304 186.877 162.304 187.195C162.304 187.513 162.561 187.77 162.879 187.77C163.197 187.77 163.455 187.513 163.455 187.195C163.455 186.877 163.197 186.619 162.879 186.619Z" fill="#E4D9E1"/>
<path fill-rule="evenodd" clip-rule="evenodd" d="M159.999 186.619C159.682 186.619 159.424 186.877 159.424 187.195C159.424 187.513 159.682 187.77 159.999 187.77C160.318 187.77 160.575 187.513 160.575 187.195C160.575 186.877 160.318 186.619 159.999 186.619Z" fill="#E4D9E1"/>
<path fill-rule="evenodd" clip-rule="evenodd" d="M157.121 186.619C156.802 186.619 156.545 186.877 156.545 187.195C156.545 187.513 156.802 187.77 157.121 187.77C157.439 187.77 157.696 187.513 157.696 187.195C157.696 186.877 157.439 186.619 157.121 186.619Z" fill="#E4D9E1"/>
<path fill-rule="evenodd" clip-rule="evenodd" d="M154.242 186.619C153.925 186.619 153.667 186.877 153.667 187.195C153.667 187.513 153.925 187.77 154.242 187.77C154.56 187.77 154.818 187.513 154.818 187.195C154.818 186.877 154.56 186.619 154.242 186.619Z" fill="#E4D9E1"/>
<path fill-rule="evenodd" clip-rule="evenodd" d="M151.364 186.619C151.045 186.619 150.788 186.877 150.788 187.195C150.788 187.513 151.045 187.77 151.364 187.77C151.682 187.77 151.938 187.513 151.938 187.195C151.938 186.877 151.682 186.619 151.364 186.619Z" fill="#E4D9E1"/>
<path fill-rule="evenodd" clip-rule="evenodd" d="M197.424 189.498C197.106 189.498 196.849 189.756 196.849 190.074C196.849 190.391 197.106 190.649 197.424 190.649C197.742 190.649 198 190.391 198 190.074C198 189.756 197.742 189.498 197.424 189.498Z" fill="#E4D9E1"/>
<path fill-rule="evenodd" clip-rule="evenodd" d="M194.545 189.498C194.228 189.498 193.969 189.756 193.969 190.074C193.969 190.391 194.228 190.649 194.545 190.649C194.863 190.649 195.12 190.391 195.12 190.074C195.12 189.756 194.863 189.498 194.545 189.498Z" fill="#E4D9E1"/>
<path fill-rule="evenodd" clip-rule="evenodd" d="M191.666 189.498C191.348 189.498 191.091 189.756 191.091 190.074C191.091 190.391 191.348 190.649 191.666 190.649C191.985 190.649 192.242 190.391 192.242 190.074C192.242 189.756 191.985 189.498 191.666 189.498Z" fill="#E4D9E1"/>
<path fill-rule="evenodd" clip-rule="evenodd" d="M188.787 189.498C188.47 189.498 188.212 189.756 188.212 190.074C188.212 190.391 188.47 190.649 188.787 190.649C189.105 190.649 189.363 190.391 189.363 190.074C189.363 189.756 189.105 189.498 188.787 189.498Z" fill="#E4D9E1"/>
<path fill-rule="evenodd" clip-rule="evenodd" d="M185.909 189.498C185.591 189.498 185.332 189.756 185.332 190.074C185.332 190.391 185.591 190.649 185.909 190.649C186.228 190.649 186.485 190.391 186.485 190.074C186.485 189.756 186.228 189.498 185.909 189.498Z" fill="#E4D9E1"/>
<path fill-rule="evenodd" clip-rule="evenodd" d="M183.031 189.498C182.712 189.498 182.455 189.756 182.455 190.074C182.455 190.391 182.712 190.649 183.031 190.649C183.348 190.649 183.606 190.391 183.606 190.074C183.606 189.756 183.348 189.498 183.031 189.498Z" fill="#E4D9E1"/>
<path fill-rule="evenodd" clip-rule="evenodd" d="M180.151 189.498C179.834 189.498 179.575 189.756 179.575 190.074C179.575 190.391 179.834 190.649 180.151 190.649C180.47 190.649 180.726 190.391 180.726 190.074C180.726 189.756 180.47 189.498 180.151 189.498Z" fill="#E4D9E1"/>
<path fill-rule="evenodd" clip-rule="evenodd" d="M177.273 189.498C176.954 189.498 176.698 189.756 176.698 190.074C176.698 190.391 176.954 190.649 177.273 190.649C177.591 190.649 177.849 190.391 177.849 190.074C177.849 189.756 177.591 189.498 177.273 189.498Z" fill="#E4D9E1"/>
<path fill-rule="evenodd" clip-rule="evenodd" d="M174.393 189.498C174.076 189.498 173.818 189.756 173.818 190.074C173.818 190.391 174.076 190.649 174.393 190.649C174.712 190.649 174.969 190.391 174.969 190.074C174.969 189.756 174.712 189.498 174.393 189.498Z" fill="#E4D9E1"/>
<path fill-rule="evenodd" clip-rule="evenodd" d="M171.515 189.498C171.197 189.498 170.939 189.756 170.939 190.074C170.939 190.391 171.197 190.649 171.515 190.649C171.833 190.649 172.09 190.391 172.09 190.074C172.09 189.756 171.833 189.498 171.515 189.498Z" fill="#E4D9E1"/>
<path fill-rule="evenodd" clip-rule="evenodd" d="M168.636 189.498C168.319 189.498 168.061 189.756 168.061 190.074C168.061 190.391 168.319 190.649 168.636 190.649C168.954 190.649 169.211 190.391 169.211 190.074C169.211 189.756 168.954 189.498 168.636 189.498Z" fill="#E4D9E1"/>
<path fill-rule="evenodd" clip-rule="evenodd" d="M165.757 189.498C165.439 189.498 165.181 189.756 165.181 190.074C165.181 190.391 165.439 190.649 165.757 190.649C166.075 190.649 166.332 190.391 166.332 190.074C166.332 189.756 166.075 189.498 165.757 189.498Z" fill="#E4D9E1"/>
<path fill-rule="evenodd" clip-rule="evenodd" d="M162.879 189.498C162.561 189.498 162.304 189.756 162.304 190.074C162.304 190.391 162.561 190.649 162.879 190.649C163.197 190.649 163.455 190.391 163.455 190.074C163.455 189.756 163.197 189.498 162.879 189.498Z" fill="#E4D9E1"/>
<path fill-rule="evenodd" clip-rule="evenodd" d="M159.999 189.498C159.682 189.498 159.424 189.756 159.424 190.074C159.424 190.391 159.682 190.649 159.999 190.649C160.318 190.649 160.575 190.391 160.575 190.074C160.575 189.756 160.318 189.498 159.999 189.498Z" fill="#E4D9E1"/>
<path fill-rule="evenodd" clip-rule="evenodd" d="M157.121 189.498C156.802 189.498 156.545 189.756 156.545 190.074C156.545 190.391 156.802 190.649 157.121 190.649C157.439 190.649 157.696 190.391 157.696 190.074C157.696 189.756 157.439 189.498 157.121 189.498Z" fill="#E4D9E1"/>
<path fill-rule="evenodd" clip-rule="evenodd" d="M154.242 189.498C153.925 189.498 153.667 189.756 153.667 190.074C153.667 190.391 153.925 190.649 154.242 190.649C154.56 190.649 154.818 190.391 154.818 190.074C154.818 189.756 154.56 189.498 154.242 189.498Z" fill="#E4D9E1"/>
<path fill-rule="evenodd" clip-rule="evenodd" d="M151.364 189.498C151.045 189.498 150.788 189.756 150.788 190.074C150.788 190.391 151.045 190.649 151.364 190.649C151.682 190.649 151.938 190.391 151.938 190.074C151.938 189.756 151.682 189.498 151.364 189.498Z" fill="#E4D9E1"/>
<path fill-rule="evenodd" clip-rule="evenodd" d="M197.424 192.377C197.106 192.377 196.849 192.635 196.849 192.953C196.849 193.27 197.106 193.528 197.424 193.528C197.742 193.528 198 193.27 198 192.953C198 192.635 197.742 192.377 197.424 192.377Z" fill="#E4D9E1"/>
<path fill-rule="evenodd" clip-rule="evenodd" d="M194.545 192.377C194.228 192.377 193.969 192.635 193.969 192.953C193.969 193.27 194.228 193.528 194.545 193.528C194.863 193.528 195.12 193.27 195.12 192.953C195.12 192.635 194.863 192.377 194.545 192.377Z" fill="#E4D9E1"/>
<path fill-rule="evenodd" clip-rule="evenodd" d="M191.666 192.377C191.348 192.377 191.091 192.635 191.091 192.953C191.091 193.27 191.348 193.528 191.666 193.528C191.985 193.528 192.242 193.27 192.242 192.953C192.242 192.635 191.985 192.377 191.666 192.377Z" fill="#E4D9E1"/>
<path fill-rule="evenodd" clip-rule="evenodd" d="M188.787 192.377C188.47 192.377 188.212 192.635 188.212 192.953C188.212 193.27 188.47 193.528 188.787 193.528C189.105 193.528 189.363 193.27 189.363 192.953C189.363 192.635 189.105 192.377 188.787 192.377Z" fill="#E4D9E1"/>
<path fill-rule="evenodd" clip-rule="evenodd" d="M185.909 192.377C185.591 192.377 185.332 192.635 185.332 192.953C185.332 193.27 185.591 193.528 185.909 193.528C186.228 193.528 186.485 193.27 186.485 192.953C186.485 192.635 186.228 192.377 185.909 192.377Z" fill="#E4D9E1"/>
<path fill-rule="evenodd" clip-rule="evenodd" d="M183.031 192.377C182.712 192.377 182.455 192.635 182.455 192.953C182.455 193.27 182.712 193.528 183.031 193.528C183.348 193.528 183.606 193.27 183.606 192.953C183.606 192.635 183.348 192.377 183.031 192.377Z" fill="#E4D9E1"/>
<path fill-rule="evenodd" clip-rule="evenodd" d="M180.151 192.377C179.834 192.377 179.575 192.635 179.575 192.953C179.575 193.27 179.834 193.528 180.151 193.528C180.47 193.528 180.726 193.27 180.726 192.953C180.726 192.635 180.47 192.377 180.151 192.377Z" fill="#E4D9E1"/>
<path fill-rule="evenodd" clip-rule="evenodd" d="M177.273 192.377C176.954 192.377 176.698 192.635 176.698 192.953C176.698 193.27 176.954 193.528 177.273 193.528C177.591 193.528 177.849 193.27 177.849 192.953C177.849 192.635 177.591 192.377 177.273 192.377Z" fill="#E4D9E1"/>
<path fill-rule="evenodd" clip-rule="evenodd" d="M174.393 192.377C174.076 192.377 173.818 192.635 173.818 192.953C173.818 193.27 174.076 193.528 174.393 193.528C174.712 193.528 174.969 193.27 174.969 192.953C174.969 192.635 174.712 192.377 174.393 192.377Z" fill="#E4D9E1"/>
<path fill-rule="evenodd" clip-rule="evenodd" d="M171.515 192.377C171.197 192.377 170.939 192.635 170.939 192.953C170.939 193.27 171.197 193.528 171.515 193.528C171.833 193.528 172.09 193.27 172.09 192.953C172.09 192.635 171.833 192.377 171.515 192.377Z" fill="#E4D9E1"/>
<path fill-rule="evenodd" clip-rule="evenodd" d="M168.636 192.377C168.319 192.377 168.061 192.635 168.061 192.953C168.061 193.27 168.319 193.528 168.636 193.528C168.954 193.528 169.211 193.27 169.211 192.953C169.211 192.635 168.954 192.377 168.636 192.377Z" fill="#E4D9E1"/>
<path fill-rule="evenodd" clip-rule="evenodd" d="M165.757 192.377C165.439 192.377 165.181 192.635 165.181 192.953C165.181 193.27 165.439 193.528 165.757 193.528C166.075 193.528 166.332 193.27 166.332 192.953C166.332 192.635 166.075 192.377 165.757 192.377Z" fill="#E4D9E1"/>
<path fill-rule="evenodd" clip-rule="evenodd" d="M162.879 192.377C162.561 192.377 162.304 192.635 162.304 192.953C162.304 193.27 162.561 193.528 162.879 193.528C163.197 193.528 163.455 193.27 163.455 192.953C163.455 192.635 163.197 192.377 162.879 192.377Z" fill="#E4D9E1"/>
<path fill-rule="evenodd" clip-rule="evenodd" d="M159.999 192.377C159.682 192.377 159.424 192.635 159.424 192.953C159.424 193.27 159.682 193.528 159.999 193.528C160.318 193.528 160.575 193.27 160.575 192.953C160.575 192.635 160.318 192.377 159.999 192.377Z" fill="#E4D9E1"/>
<path fill-rule="evenodd" clip-rule="evenodd" d="M157.121 192.377C156.802 192.377 156.545 192.635 156.545 192.953C156.545 193.27 156.802 193.528 157.121 193.528C157.439 193.528 157.696 193.27 157.696 192.953C157.696 192.635 157.439 192.377 157.121 192.377Z" fill="#E4D9E1"/>
<path fill-rule="evenodd" clip-rule="evenodd" d="M154.242 192.377C153.925 192.377 153.667 192.635 153.667 192.953C153.667 193.27 153.925 193.528 154.242 193.528C154.56 193.528 154.818 193.27 154.818 192.953C154.818 192.635 154.56 192.377 154.242 192.377Z" fill="#E4D9E1"/>
<path fill-rule="evenodd" clip-rule="evenodd" d="M151.364 192.377C151.045 192.377 150.788 192.635 150.788 192.953C150.788 193.27 151.045 193.528 151.364 193.528C151.682 193.528 151.938 193.27 151.938 192.953C151.938 192.635 151.682 192.377 151.364 192.377Z" fill="#E4D9E1"/>
<path fill-rule="evenodd" clip-rule="evenodd" d="M197.424 195.256C197.106 195.256 196.849 195.513 196.849 195.831C196.849 196.149 197.106 196.407 197.424 196.407C197.742 196.407 198 196.149 198 195.831C198 195.513 197.742 195.256 197.424 195.256Z" fill="#E4D9E1"/>
<path fill-rule="evenodd" clip-rule="evenodd" d="M194.545 195.256C194.228 195.256 193.969 195.513 193.969 195.831C193.969 196.149 194.228 196.407 194.545 196.407C194.863 196.407 195.12 196.149 195.12 195.831C195.12 195.513 194.863 195.256 194.545 195.256Z" fill="#E4D9E1"/>
<path fill-rule="evenodd" clip-rule="evenodd" d="M191.666 195.256C191.348 195.256 191.091 195.513 191.091 195.831C191.091 196.149 191.348 196.407 191.666 196.407C191.985 196.407 192.242 196.149 192.242 195.831C192.242 195.513 191.985 195.256 191.666 195.256Z" fill="#E4D9E1"/>
<path fill-rule="evenodd" clip-rule="evenodd" d="M188.787 195.256C188.47 195.256 188.212 195.513 188.212 195.831C188.212 196.149 188.47 196.407 188.787 196.407C189.105 196.407 189.363 196.149 189.363 195.831C189.363 195.513 189.105 195.256 188.787 195.256Z" fill="#E4D9E1"/>
<path fill-rule="evenodd" clip-rule="evenodd" d="M185.909 195.256C185.591 195.256 185.332 195.513 185.332 195.831C185.332 196.149 185.591 196.407 185.909 196.407C186.228 196.407 186.485 196.149 186.485 195.831C186.485 195.513 186.228 195.256 185.909 195.256Z" fill="#E4D9E1"/>
<path fill-rule="evenodd" clip-rule="evenodd" d="M183.031 195.256C182.712 195.256 182.455 195.513 182.455 195.831C182.455 196.149 182.712 196.407 183.031 196.407C183.348 196.407 183.606 196.149 183.606 195.831C183.606 195.513 183.348 195.256 183.031 195.256Z" fill="#E4D9E1"/>
<path fill-rule="evenodd" clip-rule="evenodd" d="M180.151 195.256C179.834 195.256 179.575 195.513 179.575 195.831C179.575 196.149 179.834 196.407 180.151 196.407C180.47 196.407 180.726 196.149 180.726 195.831C180.726 195.513 180.47 195.256 180.151 195.256Z" fill="#E4D9E1"/>
<path fill-rule="evenodd" clip-rule="evenodd" d="M177.273 195.256C176.954 195.256 176.698 195.513 176.698 195.831C176.698 196.149 176.954 196.407 177.273 196.407C177.591 196.407 177.849 196.149 177.849 195.831C177.849 195.513 177.591 195.256 177.273 195.256Z" fill="#E4D9E1"/>
<path fill-rule="evenodd" clip-rule="evenodd" d="M174.393 195.256C174.076 195.256 173.818 195.513 173.818 195.831C173.818 196.149 174.076 196.407 174.393 196.407C174.712 196.407 174.969 196.149 174.969 195.831C174.969 195.513 174.712 195.256 174.393 195.256Z" fill="#E4D9E1"/>
<path fill-rule="evenodd" clip-rule="evenodd" d="M171.515 195.256C171.197 195.256 170.939 195.513 170.939 195.831C170.939 196.149 171.197 196.407 171.515 196.407C171.833 196.407 172.09 196.149 172.09 195.831C172.09 195.513 171.833 195.256 171.515 195.256Z" fill="#E4D9E1"/>
<path fill-rule="evenodd" clip-rule="evenodd" d="M168.636 195.256C168.319 195.256 168.061 195.513 168.061 195.831C168.061 196.149 168.319 196.407 168.636 196.407C168.954 196.407 169.211 196.149 169.211 195.831C169.211 195.513 168.954 195.256 168.636 195.256Z" fill="#E4D9E1"/>
<path fill-rule="evenodd" clip-rule="evenodd" d="M165.757 195.256C165.439 195.256 165.181 195.513 165.181 195.831C165.181 196.149 165.439 196.407 165.757 196.407C166.075 196.407 166.332 196.149 166.332 195.831C166.332 195.513 166.075 195.256 165.757 195.256Z" fill="#E4D9E1"/>
<path fill-rule="evenodd" clip-rule="evenodd" d="M162.879 195.256C162.561 195.256 162.304 195.513 162.304 195.831C162.304 196.149 162.561 196.407 162.879 196.407C163.197 196.407 163.455 196.149 163.455 195.831C163.455 195.513 163.197 195.256 162.879 195.256Z" fill="#E4D9E1"/>
<path fill-rule="evenodd" clip-rule="evenodd" d="M159.999 195.256C159.682 195.256 159.424 195.513 159.424 195.831C159.424 196.149 159.682 196.407 159.999 196.407C160.318 196.407 160.575 196.149 160.575 195.831C160.575 195.513 160.318 195.256 159.999 195.256Z" fill="#E4D9E1"/>
<path fill-rule="evenodd" clip-rule="evenodd" d="M157.121 195.256C156.802 195.256 156.545 195.513 156.545 195.831C156.545 196.149 156.802 196.407 157.121 196.407C157.439 196.407 157.696 196.149 157.696 195.831C157.696 195.513 157.439 195.256 157.121 195.256Z" fill="#E4D9E1"/>
<path fill-rule="evenodd" clip-rule="evenodd" d="M154.242 195.256C153.925 195.256 153.667 195.513 153.667 195.831C153.667 196.149 153.925 196.407 154.242 196.407C154.56 196.407 154.818 196.149 154.818 195.831C154.818 195.513 154.56 195.256 154.242 195.256Z" fill="#E4D9E1"/>
<path fill-rule="evenodd" clip-rule="evenodd" d="M151.364 195.256C151.045 195.256 150.788 195.513 150.788 195.831C150.788 196.149 151.045 196.407 151.364 196.407C151.682 196.407 151.938 196.149 151.938 195.831C151.938 195.513 151.682 195.256 151.364 195.256Z" fill="#E4D9E1"/>
<path fill-rule="evenodd" clip-rule="evenodd" d="M9.78757 49.6356C9.78757 49.3181 9.52976 49.0608 9.21238 49.0608C8.89392 49.0608 8.63696 49.3181 8.63696 49.6356C8.63696 49.9536 8.89392 50.2113 9.21238 50.2113C9.52976 50.2113 9.78757 49.9536 9.78757 49.6356Z" fill="#E4D9E1"/>
<path fill-rule="evenodd" clip-rule="evenodd" d="M9.78757 46.757C9.78757 46.4395 9.52976 46.1817 9.21238 46.1817C8.89392 46.1817 8.63696 46.4395 8.63696 46.757C8.63696 47.075 8.89392 47.3327 9.21238 47.3327C9.52976 47.3327 9.78757 47.075 9.78757 46.757Z" fill="#E4D9E1"/>
<path fill-rule="evenodd" clip-rule="evenodd" d="M9.78757 43.8779C9.78757 43.5604 9.52976 43.3031 9.21238 43.3031C8.89392 43.3031 8.63696 43.5604 8.63696 43.8779C8.63696 44.1963 8.89392 44.4532 9.21238 44.4532C9.52976 44.4532 9.78757 44.1963 9.78757 43.8779Z" fill="#E4D9E1"/>
<path fill-rule="evenodd" clip-rule="evenodd" d="M9.78757 40.9993C9.78757 40.6813 9.52976 40.424 9.21238 40.424C8.89392 40.424 8.63696 40.6813 8.63696 40.9993C8.63696 41.3177 8.89392 41.575 9.21238 41.575C9.52976 41.575 9.78757 41.3177 9.78757 40.9993Z" fill="#E4D9E1"/>
<path fill-rule="evenodd" clip-rule="evenodd" d="M9.78757 38.1206C9.78757 37.8027 9.52976 37.5454 9.21238 37.5454C8.89392 37.5454 8.63696 37.8027 8.63696 38.1206C8.63696 38.4386 8.89392 38.6964 9.21238 38.6964C9.52976 38.6964 9.78757 38.4386 9.78757 38.1206Z" fill="#E4D9E1"/>
<path fill-rule="evenodd" clip-rule="evenodd" d="M9.78757 35.242C9.78757 34.9236 9.52976 34.6667 9.21238 34.6667C8.89392 34.6667 8.63696 34.9236 8.63696 35.242C8.63696 35.5595 8.89392 35.8177 9.21238 35.8177C9.52976 35.8177 9.78757 35.5595 9.78757 35.242Z" fill="#E4D9E1"/>
<path fill-rule="evenodd" clip-rule="evenodd" d="M9.78757 32.3629C9.78757 32.0454 9.52976 31.7877 9.21238 31.7877C8.89392 31.7877 8.63696 32.0454 8.63696 32.3629C8.63696 32.6809 8.89392 32.9387 9.21238 32.9387C9.52976 32.9387 9.78757 32.6809 9.78757 32.3629Z" fill="#E4D9E1"/>
<path fill-rule="evenodd" clip-rule="evenodd" d="M9.78757 29.4847C9.78757 29.1668 9.52976 28.909 9.21238 28.909C8.89392 28.909 8.63696 29.1668 8.63696 29.4847C8.63696 29.8023 8.89392 30.06 9.21238 30.06C9.52976 30.06 9.78757 29.8023 9.78757 29.4847Z" fill="#E4D9E1"/>
<path fill-rule="evenodd" clip-rule="evenodd" d="M9.78757 26.6052C9.78757 26.2873 9.52976 26.03 9.21238 26.03C8.89392 26.03 8.63696 26.2873 8.63696 26.6052C8.63696 26.9237 8.89392 27.1814 9.21238 27.1814C9.52976 27.1814 9.78757 26.9237 9.78757 26.6052Z" fill="#E4D9E1"/>
<path fill-rule="evenodd" clip-rule="evenodd" d="M9.78757 23.7266C9.78757 23.4086 9.52976 23.1513 9.21238 23.1513C8.89392 23.1513 8.63696 23.4086 8.63696 23.7266C8.63696 24.0446 8.89392 24.3023 9.21238 24.3023C9.52976 24.3023 9.78757 24.0446 9.78757 23.7266Z" fill="#E4D9E1"/>
<path fill-rule="evenodd" clip-rule="evenodd" d="M9.78757 20.8479C9.78757 20.5304 9.52976 20.2727 9.21238 20.2727C8.89392 20.2727 8.63696 20.5304 8.63696 20.8479C8.63696 21.1659 8.89392 21.4237 9.21238 21.4237C9.52976 21.4237 9.78757 21.1659 9.78757 20.8479Z" fill="#E4D9E1"/>
<path fill-rule="evenodd" clip-rule="evenodd" d="M9.78757 17.9693C9.78757 17.6509 9.52976 17.3941 9.21238 17.3941C8.89392 17.3941 8.63696 17.6509 8.63696 17.9693C8.63696 18.2869 8.89392 18.5451 9.21238 18.5451C9.52976 18.5451 9.78757 18.2869 9.78757 17.9693Z" fill="#E4D9E1"/>
<path fill-rule="evenodd" clip-rule="evenodd" d="M9.78757 15.0907C9.78757 14.7727 9.52976 14.515 9.21238 14.515C8.89392 14.515 8.63696 14.7727 8.63696 15.0907C8.63696 15.4082 8.89392 15.666 9.21238 15.666C9.52976 15.666 9.78757 15.4082 9.78757 15.0907Z" fill="#E4D9E1"/>
<path fill-rule="evenodd" clip-rule="evenodd" d="M9.78757 12.2121C9.78757 11.8941 9.52976 11.6364 9.21238 11.6364C8.89392 11.6364 8.63696 11.8941 8.63696 12.2121C8.63696 12.5296 8.89392 12.7873 9.21238 12.7873C9.52976 12.7873 9.78757 12.5296 9.78757 12.2121Z" fill="#E4D9E1"/>
<path fill-rule="evenodd" clip-rule="evenodd" d="M9.78757 9.33253C9.78757 9.01546 9.52976 8.75725 9.21238 8.75725C8.89392 8.75725 8.63696 9.01546 8.63696 9.33253C8.63696 9.65094 8.89392 9.90826 9.21238 9.90826C9.52976 9.90826 9.78757 9.65094 9.78757 9.33253Z" fill="#E4D9E1"/>
<path fill-rule="evenodd" clip-rule="evenodd" d="M9.78757 6.45391C9.78757 6.13594 9.52976 5.87861 9.21238 5.87861C8.89392 5.87861 8.63696 6.13594 8.63696 6.45391C8.63696 6.77187 8.89392 7.02962 9.21238 7.02962C9.52976 7.02962 9.78757 6.77187 9.78757 6.45391Z" fill="#E4D9E1"/>
<path fill-rule="evenodd" clip-rule="evenodd" d="M9.78757 3.57527C9.78757 3.25775 9.52976 2.99999 9.21238 2.99999C8.89392 2.99999 8.63696 3.25775 8.63696 3.57527C8.63696 3.89323 8.89392 4.151 9.21238 4.151C9.52976 4.151 9.78757 3.89323 9.78757 3.57527Z" fill="#E4D9E1"/>
<path fill-rule="evenodd" clip-rule="evenodd" d="M6.90798 49.6356C6.90798 49.3181 6.65102 49.0608 6.33225 49.0608C6.01518 49.0608 5.75684 49.3181 5.75684 49.6356C5.75684 49.9536 6.01518 50.2113 6.33225 50.2113C6.65102 50.2113 6.90798 49.9536 6.90798 49.6356Z" fill="#E4D9E1"/>
<path fill-rule="evenodd" clip-rule="evenodd" d="M6.90798 46.757C6.90798 46.4395 6.65102 46.1817 6.33225 46.1817C6.01518 46.1817 5.75684 46.4395 5.75684 46.757C5.75684 47.075 6.01518 47.3327 6.33225 47.3327C6.65102 47.3327 6.90798 47.075 6.90798 46.757Z" fill="#E4D9E1"/>
<path fill-rule="evenodd" clip-rule="evenodd" d="M6.90798 43.8779C6.90798 43.5604 6.65102 43.3031 6.33225 43.3031C6.01518 43.3031 5.75684 43.5604 5.75684 43.8779C5.75684 44.1963 6.01518 44.4532 6.33225 44.4532C6.65102 44.4532 6.90798 44.1963 6.90798 43.8779Z" fill="#E4D9E1"/>
<path fill-rule="evenodd" clip-rule="evenodd" d="M6.90798 40.9993C6.90798 40.6813 6.65102 40.424 6.33225 40.424C6.01518 40.424 5.75684 40.6813 5.75684 40.9993C5.75684 41.3177 6.01518 41.575 6.33225 41.575C6.65102 41.575 6.90798 41.3177 6.90798 40.9993Z" fill="#E4D9E1"/>
<path fill-rule="evenodd" clip-rule="evenodd" d="M6.90798 38.1206C6.90798 37.8027 6.65102 37.5454 6.33225 37.5454C6.01518 37.5454 5.75684 37.8027 5.75684 38.1206C5.75684 38.4386 6.01518 38.6964 6.33225 38.6964C6.65102 38.6964 6.90798 38.4386 6.90798 38.1206Z" fill="#E4D9E1"/>
<path fill-rule="evenodd" clip-rule="evenodd" d="M6.90798 35.242C6.90798 34.9236 6.65102 34.6667 6.33225 34.6667C6.01518 34.6667 5.75684 34.9236 5.75684 35.242C5.75684 35.5595 6.01518 35.8177 6.33225 35.8177C6.65102 35.8177 6.90798 35.5595 6.90798 35.242Z" fill="#E4D9E1"/>
<path fill-rule="evenodd" clip-rule="evenodd" d="M6.90798 32.3629C6.90798 32.0454 6.65102 31.7877 6.33225 31.7877C6.01518 31.7877 5.75684 32.0454 5.75684 32.3629C5.75684 32.6809 6.01518 32.9387 6.33225 32.9387C6.65102 32.9387 6.90798 32.6809 6.90798 32.3629Z" fill="#E4D9E1"/>
<path fill-rule="evenodd" clip-rule="evenodd" d="M6.90798 29.4847C6.90798 29.1668 6.65102 28.909 6.33225 28.909C6.01518 28.909 5.75684 29.1668 5.75684 29.4847C5.75684 29.8023 6.01518 30.06 6.33225 30.06C6.65102 30.06 6.90798 29.8023 6.90798 29.4847Z" fill="#E4D9E1"/>
<path fill-rule="evenodd" clip-rule="evenodd" d="M6.90798 26.6052C6.90798 26.2873 6.65102 26.03 6.33225 26.03C6.01518 26.03 5.75684 26.2873 5.75684 26.6052C5.75684 26.9237 6.01518 27.1814 6.33225 27.1814C6.65102 27.1814 6.90798 26.9237 6.90798 26.6052Z" fill="#E4D9E1"/>
<path fill-rule="evenodd" clip-rule="evenodd" d="M6.90798 23.7266C6.90798 23.4086 6.65102 23.1513 6.33225 23.1513C6.01518 23.1513 5.75684 23.4086 5.75684 23.7266C5.75684 24.0446 6.01518 24.3023 6.33225 24.3023C6.65102 24.3023 6.90798 24.0446 6.90798 23.7266Z" fill="#E4D9E1"/>
<path fill-rule="evenodd" clip-rule="evenodd" d="M6.90798 20.8479C6.90798 20.5304 6.65102 20.2727 6.33225 20.2727C6.01518 20.2727 5.75684 20.5304 5.75684 20.8479C5.75684 21.1659 6.01518 21.4237 6.33225 21.4237C6.65102 21.4237 6.90798 21.1659 6.90798 20.8479Z" fill="#E4D9E1"/>
<path fill-rule="evenodd" clip-rule="evenodd" d="M6.90798 17.9693C6.90798 17.6509 6.65102 17.3941 6.33225 17.3941C6.01518 17.3941 5.75684 17.6509 5.75684 17.9693C5.75684 18.2869 6.01518 18.5451 6.33225 18.5451C6.65102 18.5451 6.90798 18.2869 6.90798 17.9693Z" fill="#E4D9E1"/>
<path fill-rule="evenodd" clip-rule="evenodd" d="M6.90798 15.0907C6.90798 14.7727 6.65102 14.515 6.33225 14.515C6.01518 14.515 5.75684 14.7727 5.75684 15.0907C5.75684 15.4082 6.01518 15.666 6.33225 15.666C6.65102 15.666 6.90798 15.4082 6.90798 15.0907Z" fill="#E4D9E1"/>
<path fill-rule="evenodd" clip-rule="evenodd" d="M6.90798 12.2121C6.90798 11.8941 6.65102 11.6364 6.33225 11.6364C6.01518 11.6364 5.75684 11.8941 5.75684 12.2121C5.75684 12.5296 6.01518 12.7873 6.33225 12.7873C6.65102 12.7873 6.90798 12.5296 6.90798 12.2121Z" fill="#E4D9E1"/>
<path fill-rule="evenodd" clip-rule="evenodd" d="M6.90798 9.33253C6.90798 9.01546 6.65102 8.75725 6.33225 8.75725C6.01518 8.75725 5.75684 9.01546 5.75684 9.33253C5.75684 9.65094 6.01518 9.90826 6.33225 9.90826C6.65102 9.90826 6.90798 9.65094 6.90798 9.33253Z" fill="#E4D9E1"/>
<path fill-rule="evenodd" clip-rule="evenodd" d="M6.90798 6.45391C6.90798 6.13594 6.65102 5.87861 6.33225 5.87861C6.01518 5.87861 5.75684 6.13594 5.75684 6.45391C5.75684 6.77187 6.01518 7.02962 6.33225 7.02962C6.65102 7.02962 6.90798 6.77187 6.90798 6.45391Z" fill="#E4D9E1"/>
<path fill-rule="evenodd" clip-rule="evenodd" d="M6.90798 3.57527C6.90798 3.25775 6.65102 2.99999 6.33225 2.99999C6.01518 2.99999 5.75684 3.25775 5.75684 3.57527C5.75684 3.89323 6.01518 4.151 6.33225 4.151C6.65102 4.151 6.90798 3.89323 6.90798 3.57527Z" fill="#E4D9E1"/>
<path fill-rule="evenodd" clip-rule="evenodd" d="M4.03024 49.6356C4.03024 49.3181 3.77239 49.0608 3.45483 49.0608C3.13571 49.0608 2.87964 49.3181 2.87964 49.6356C2.87964 49.9536 3.13571 50.2113 3.45483 50.2113C3.77239 50.2113 4.03024 49.9536 4.03024 49.6356Z" fill="#E4D9E1"/>
<path fill-rule="evenodd" clip-rule="evenodd" d="M4.03024 46.757C4.03024 46.4395 3.77239 46.1817 3.45483 46.1817C3.13571 46.1817 2.87964 46.4395 2.87964 46.757C2.87964 47.075 3.13571 47.3327 3.45483 47.3327C3.77239 47.3327 4.03024 47.075 4.03024 46.757Z" fill="#E4D9E1"/>
<path fill-rule="evenodd" clip-rule="evenodd" d="M4.03024 43.8779C4.03024 43.5604 3.77239 43.3031 3.45483 43.3031C3.13571 43.3031 2.87964 43.5604 2.87964 43.8779C2.87964 44.1963 3.13571 44.4532 3.45483 44.4532C3.77239 44.4532 4.03024 44.1963 4.03024 43.8779Z" fill="#E4D9E1"/>
<path fill-rule="evenodd" clip-rule="evenodd" d="M4.03024 40.9993C4.03024 40.6813 3.77239 40.424 3.45483 40.424C3.13571 40.424 2.87964 40.6813 2.87964 40.9993C2.87964 41.3177 3.13571 41.575 3.45483 41.575C3.77239 41.575 4.03024 41.3177 4.03024 40.9993Z" fill="#E4D9E1"/>
<path fill-rule="evenodd" clip-rule="evenodd" d="M4.03024 38.1206C4.03024 37.8027 3.77239 37.5454 3.45483 37.5454C3.13571 37.5454 2.87964 37.8027 2.87964 38.1206C2.87964 38.4386 3.13571 38.6964 3.45483 38.6964C3.77239 38.6964 4.03024 38.4386 4.03024 38.1206Z" fill="#E4D9E1"/>
<path fill-rule="evenodd" clip-rule="evenodd" d="M4.03024 35.242C4.03024 34.9236 3.77239 34.6667 3.45483 34.6667C3.13571 34.6667 2.87964 34.9236 2.87964 35.242C2.87964 35.5595 3.13571 35.8177 3.45483 35.8177C3.77239 35.8177 4.03024 35.5595 4.03024 35.242Z" fill="#E4D9E1"/>
<path fill-rule="evenodd" clip-rule="evenodd" d="M4.03024 32.3629C4.03024 32.0454 3.77239 31.7877 3.45483 31.7877C3.13571 31.7877 2.87964 32.0454 2.87964 32.3629C2.87964 32.6809 3.13571 32.9387 3.45483 32.9387C3.77239 32.9387 4.03024 32.6809 4.03024 32.3629Z" fill="#E4D9E1"/>
<path fill-rule="evenodd" clip-rule="evenodd" d="M4.03024 29.4847C4.03024 29.1668 3.77239 28.909 3.45483 28.909C3.13571 28.909 2.87964 29.1668 2.87964 29.4847C2.87964 29.8023 3.13571 30.06 3.45483 30.06C3.77239 30.06 4.03024 29.8023 4.03024 29.4847Z" fill="#E4D9E1"/>
<path fill-rule="evenodd" clip-rule="evenodd" d="M4.03024 26.6052C4.03024 26.2873 3.77239 26.03 3.45483 26.03C3.13571 26.03 2.87964 26.2873 2.87964 26.6052C2.87964 26.9237 3.13571 27.1814 3.45483 27.1814C3.77239 27.1814 4.03024 26.9237 4.03024 26.6052Z" fill="#E4D9E1"/>
<path fill-rule="evenodd" clip-rule="evenodd" d="M4.03024 23.7266C4.03024 23.4086 3.77239 23.1513 3.45483 23.1513C3.13571 23.1513 2.87964 23.4086 2.87964 23.7266C2.87964 24.0446 3.13571 24.3023 3.45483 24.3023C3.77239 24.3023 4.03024 24.0446 4.03024 23.7266Z" fill="#E4D9E1"/>
<path fill-rule="evenodd" clip-rule="evenodd" d="M4.03024 20.8479C4.03024 20.5304 3.77239 20.2727 3.45483 20.2727C3.13571 20.2727 2.87964 20.5304 2.87964 20.8479C2.87964 21.1659 3.13571 21.4237 3.45483 21.4237C3.77239 21.4237 4.03024 21.1659 4.03024 20.8479Z" fill="#E4D9E1"/>
<path fill-rule="evenodd" clip-rule="evenodd" d="M4.03024 17.9693C4.03024 17.6509 3.77239 17.3941 3.45483 17.3941C3.13571 17.3941 2.87964 17.6509 2.87964 17.9693C2.87964 18.2869 3.13571 18.5451 3.45483 18.5451C3.77239 18.5451 4.03024 18.2869 4.03024 17.9693Z" fill="#E4D9E1"/>
<path fill-rule="evenodd" clip-rule="evenodd" d="M4.03024 15.0907C4.03024 14.7727 3.77239 14.515 3.45483 14.515C3.13571 14.515 2.87964 14.7727 2.87964 15.0907C2.87964 15.4082 3.13571 15.666 3.45483 15.666C3.77239 15.666 4.03024 15.4082 4.03024 15.0907Z" fill="#E4D9E1"/>
<path fill-rule="evenodd" clip-rule="evenodd" d="M4.03024 12.2121C4.03024 11.8941 3.77239 11.6364 3.45483 11.6364C3.13571 11.6364 2.87964 11.8941 2.87964 12.2121C2.87964 12.5296 3.13571 12.7873 3.45483 12.7873C3.77239 12.7873 4.03024 12.5296 4.03024 12.2121Z" fill="#E4D9E1"/>
<path fill-rule="evenodd" clip-rule="evenodd" d="M4.03024 9.33253C4.03024 9.01546 3.77239 8.75725 3.45483 8.75725C3.13571 8.75725 2.87964 9.01546 2.87964 9.33253C2.87964 9.65094 3.13571 9.90826 3.45483 9.90826C3.77239 9.90826 4.03024 9.65094 4.03024 9.33253Z" fill="#E4D9E1"/>
<path fill-rule="evenodd" clip-rule="evenodd" d="M4.03024 6.45391C4.03024 6.13594 3.77239 5.87861 3.45483 5.87861C3.13571 5.87861 2.87964 6.13594 2.87964 6.45391C2.87964 6.77187 3.13571 7.02962 3.45483 7.02962C3.77239 7.02962 4.03024 6.77187 4.03024 6.45391Z" fill="#E4D9E1"/>
<path fill-rule="evenodd" clip-rule="evenodd" d="M4.03024 3.57527C4.03024 3.25775 3.77239 2.99999 3.45483 2.99999C3.13571 2.99999 2.87964 3.25775 2.87964 3.57527C2.87964 3.89323 3.13571 4.151 3.45483 4.151C3.77239 4.151 4.03024 3.89323 4.03024 3.57527Z" fill="#E4D9E1"/>
<path fill-rule="evenodd" clip-rule="evenodd" d="M1.15056 49.6356C1.15056 49.3181 0.892755 49.0608 0.57537 49.0608C0.257806 49.0608 0 49.3181 0 49.6356C0 49.9536 0.257806 50.2113 0.57537 50.2113C0.892755 50.2113 1.15056 49.9536 1.15056 49.6356Z" fill="#E4D9E1"/>
<path fill-rule="evenodd" clip-rule="evenodd" d="M1.15056 46.757C1.15056 46.4395 0.892755 46.1817 0.57537 46.1817C0.257806 46.1817 0 46.4395 0 46.757C0 47.075 0.257806 47.3327 0.57537 47.3327C0.892755 47.3327 1.15056 47.075 1.15056 46.757Z" fill="#E4D9E1"/>
<path fill-rule="evenodd" clip-rule="evenodd" d="M1.15056 43.8779C1.15056 43.5604 0.892755 43.3031 0.57537 43.3031C0.257806 43.3031 0 43.5604 0 43.8779C0 44.1963 0.257806 44.4532 0.57537 44.4532C0.892755 44.4532 1.15056 44.1963 1.15056 43.8779Z" fill="#E4D9E1"/>
<path fill-rule="evenodd" clip-rule="evenodd" d="M1.15056 40.9993C1.15056 40.6813 0.892755 40.424 0.57537 40.424C0.257806 40.424 0 40.6813 0 40.9993C0 41.3177 0.257806 41.575 0.57537 41.575C0.892755 41.575 1.15056 41.3177 1.15056 40.9993Z" fill="#E4D9E1"/>
<path fill-rule="evenodd" clip-rule="evenodd" d="M1.15056 38.1206C1.15056 37.8027 0.892755 37.5454 0.57537 37.5454C0.257806 37.5454 0 37.8027 0 38.1206C0 38.4386 0.257806 38.6964 0.57537 38.6964C0.892755 38.6964 1.15056 38.4386 1.15056 38.1206Z" fill="#E4D9E1"/>
<path fill-rule="evenodd" clip-rule="evenodd" d="M1.15056 35.242C1.15056 34.9236 0.892755 34.6667 0.57537 34.6667C0.257806 34.6667 0 34.9236 0 35.242C0 35.5595 0.257806 35.8177 0.57537 35.8177C0.892755 35.8177 1.15056 35.5595 1.15056 35.242Z" fill="#E4D9E1"/>
<path fill-rule="evenodd" clip-rule="evenodd" d="M1.15056 32.3629C1.15056 32.0454 0.892755 31.7877 0.57537 31.7877C0.257806 31.7877 0 32.0454 0 32.3629C0 32.6809 0.257806 32.9387 0.57537 32.9387C0.892755 32.9387 1.15056 32.6809 1.15056 32.3629Z" fill="#E4D9E1"/>
<path fill-rule="evenodd" clip-rule="evenodd" d="M1.15056 29.4847C1.15056 29.1668 0.892755 28.909 0.57537 28.909C0.257806 28.909 0 29.1668 0 29.4847C0 29.8023 0.257806 30.06 0.57537 30.06C0.892755 30.06 1.15056 29.8023 1.15056 29.4847Z" fill="#E4D9E1"/>
<path fill-rule="evenodd" clip-rule="evenodd" d="M1.15056 26.6052C1.15056 26.2873 0.892755 26.03 0.57537 26.03C0.257806 26.03 0 26.2873 0 26.6052C0 26.9237 0.257806 27.1814 0.57537 27.1814C0.892755 27.1814 1.15056 26.9237 1.15056 26.6052Z" fill="#E4D9E1"/>
<path fill-rule="evenodd" clip-rule="evenodd" d="M1.15056 23.7266C1.15056 23.4086 0.892755 23.1513 0.57537 23.1513C0.257806 23.1513 0 23.4086 0 23.7266C0 24.0446 0.257806 24.3023 0.57537 24.3023C0.892755 24.3023 1.15056 24.0446 1.15056 23.7266Z" fill="#E4D9E1"/>
<path fill-rule="evenodd" clip-rule="evenodd" d="M1.15056 20.8479C1.15056 20.5304 0.892755 20.2727 0.57537 20.2727C0.257806 20.2727 0 20.5304 0 20.8479C0 21.1659 0.257806 21.4237 0.57537 21.4237C0.892755 21.4237 1.15056 21.1659 1.15056 20.8479Z" fill="#E4D9E1"/>
<path fill-rule="evenodd" clip-rule="evenodd" d="M1.15056 17.9693C1.15056 17.6509 0.892755 17.3941 0.57537 17.3941C0.257806 17.3941 0 17.6509 0 17.9693C0 18.2869 0.257806 18.5451 0.57537 18.5451C0.892755 18.5451 1.15056 18.2869 1.15056 17.9693Z" fill="#E4D9E1"/>
<path fill-rule="evenodd" clip-rule="evenodd" d="M1.15056 15.0907C1.15056 14.7727 0.892755 14.515 0.57537 14.515C0.257806 14.515 0 14.7727 0 15.0907C0 15.4082 0.257806 15.666 0.57537 15.666C0.892755 15.666 1.15056 15.4082 1.15056 15.0907Z" fill="#E4D9E1"/>
<path fill-rule="evenodd" clip-rule="evenodd" d="M1.15056 12.2121C1.15056 11.8941 0.892755 11.6364 0.57537 11.6364C0.257806 11.6364 0 11.8941 0 12.2121C0 12.5296 0.257806 12.7873 0.57537 12.7873C0.892755 12.7873 1.15056 12.5296 1.15056 12.2121Z" fill="#E4D9E1"/>
<path fill-rule="evenodd" clip-rule="evenodd" d="M1.15056 9.33253C1.15056 9.01546 0.892755 8.75725 0.57537 8.75725C0.257806 8.75725 0 9.01546 0 9.33253C0 9.65094 0.257806 9.90826 0.57537 9.90826C0.892755 9.90826 1.15056 9.65094 1.15056 9.33253Z" fill="#E4D9E1"/>
<path fill-rule="evenodd" clip-rule="evenodd" d="M1.15056 6.45391C1.15056 6.13594 0.892755 5.87861 0.57537 5.87861C0.257806 5.87861 0 6.13594 0 6.45391C0 6.77187 0.257806 7.02962 0.57537 7.02962C0.892755 7.02962 1.15056 6.77187 1.15056 6.45391Z" fill="#E4D9E1"/>
<path fill-rule="evenodd" clip-rule="evenodd" d="M1.15056 3.57527C1.15056 3.25775 0.892755 2.99999 0.57537 2.99999C0.257806 2.99999 0 3.25775 0 3.57527C0 3.89323 0.257806 4.151 0.57537 4.151C0.892755 4.151 1.15056 3.89323 1.15056 3.57527Z" fill="#E4D9E1"/>
<path fill-rule="evenodd" clip-rule="evenodd" d="M29.6151 62.9857H46.8364C47.9357 62.9857 48.8365 63.8861 48.8365 64.9858V72.4386C48.8365 73.5383 47.9366 74.4391 46.8364 74.4391H44.0595L41.683 76.9673C41.4163 77.2509 40.9784 77.2513 40.7117 76.9681L38.3339 74.4391H29.6151C28.5141 74.4391 27.6152 73.5383 27.6152 72.4386V64.9858C27.6152 63.8852 28.5153 62.9857 29.6151 62.9857Z" fill="#F2994A"/>
<path d="M29.6151 63.2635C28.6657 63.2635 27.8931 64.0359 27.8931 64.9858V72.4386C27.8931 73.3885 28.6657 74.1613 29.6151 74.1613H38.3339C38.4106 74.1613 38.4838 74.193 38.5364 74.2487L40.9138 76.7777C41.0649 76.9387 41.3285 76.9392 41.4806 76.7764L43.8571 74.2487C43.9097 74.193 43.9833 74.1613 44.0595 74.1613H46.8365C47.7859 74.1613 48.5587 73.3885 48.5587 72.4386V64.9858C48.5587 64.0359 47.7859 63.2635 46.8365 63.2635H29.6151ZM41.1969 77.4578C40.9356 77.4578 40.6912 77.3517 40.5093 77.1586L38.2135 74.717H29.6151C28.3591 74.717 27.3374 73.6949 27.3374 72.4386V64.9858C27.3374 63.7296 28.3591 62.7074 29.6151 62.7074H46.8365C48.0927 62.7074 49.1144 63.7296 49.1144 64.9858V72.4386C49.1144 73.6949 48.0927 74.717 46.8365 74.717H44.1799L41.8859 77.1572C41.7035 77.3512 41.4583 77.4578 41.1969 77.4578" fill="white"/>
<path fill-rule="evenodd" clip-rule="evenodd" d="M33.9607 67.4787C34.5101 67.4787 34.9551 67.9242 34.9551 68.4727C34.9551 69.0221 34.5101 69.4667 33.9607 69.4667C33.4117 69.4667 32.9675 69.0221 32.9675 68.4727C32.9675 67.9242 33.4117 67.4787 33.9607 67.4787Z" fill="white"/>
<path fill-rule="evenodd" clip-rule="evenodd" d="M38.2259 67.4787C38.7748 67.4787 39.219 67.9242 39.219 68.4727C39.219 69.0221 38.7748 69.4667 38.2259 69.4667C37.676 69.4667 37.231 69.0221 37.231 68.4727C37.231 67.9242 37.676 67.4787 38.2259 67.4787Z" fill="white"/>
<path fill-rule="evenodd" clip-rule="evenodd" d="M42.4891 67.4787C43.0385 67.4787 43.484 67.9242 43.484 68.4727C43.484 69.0221 43.0385 69.4667 42.4891 69.4667C41.9415 69.4667 41.4946 69.0221 41.4946 68.4727C41.4946 67.9242 41.9415 67.4787 42.4891 67.4787Z" fill="white"/>
<path fill-rule="evenodd" clip-rule="evenodd" d="M138.485 40.9346C138.383 40.8994 138.271 40.8802 138.155 40.8802C138.097 40.8802 138.041 40.8851 137.986 40.8936C138.102 40.6238 138.165 40.3259 138.165 40.0142C138.165 39.3903 137.912 38.8271 137.5 38.4212C137.769 38.5064 138.008 38.6545 138.203 38.8489C138.518 39.1637 138.712 39.5972 138.712 40.0771C138.712 40.3888 138.629 40.6822 138.485 40.9346V40.9346ZM134.518 37.3041C134.462 37.2948 134.404 37.289 134.345 37.289L134.316 37.2903C134.321 37.2096 134.323 37.1284 134.323 37.0464C134.323 35.2773 133.181 33.7757 131.594 33.2366C132.371 33.3302 133.067 33.6843 133.591 34.2088C134.207 34.8251 134.588 35.6755 134.588 36.6151C134.588 36.8519 134.564 37.0816 134.518 37.3041V37.3041ZM144.292 42.5677C143.817 42.5677 143.362 42.6529 142.94 42.8094C142.749 42.6003 142.476 42.4683 142.17 42.4683C142.027 42.4683 141.892 42.4968 141.77 42.5485C141.702 41.6531 140.954 40.948 140.041 40.948C139.644 40.948 139.278 41.0809 138.986 41.3048C138.922 41.2174 138.846 41.1407 138.759 41.0764C138.925 40.7812 139.02 40.4396 139.02 40.0771C139.02 39.5125 138.791 39.001 138.421 38.6313C138.051 38.2616 137.54 38.0319 136.975 38.0319H136.969C136.658 37.8687 136.303 37.7755 135.927 37.7755C135.697 37.7755 135.476 37.8107 135.266 37.8749C135.171 37.672 135.01 37.5057 134.812 37.4031C134.868 37.1489 134.897 36.8854 134.897 36.6151C134.897 35.5899 134.481 34.6623 133.809 33.9911C133.137 33.3195 132.209 32.9039 131.185 32.9039C130.859 32.9039 130.541 32.9458 130.241 33.0248C128.047 33.0573 126.279 34.8451 126.279 37.0464L126.28 37.1396C126.086 37.0901 125.883 37.0637 125.673 37.0637C125.257 37.0637 124.865 37.1672 124.522 37.3496C123.935 36.5496 122.989 36.03 121.921 36.03C120.141 36.03 118.7 37.4727 118.7 39.252C118.7 39.6017 118.755 39.9384 118.859 40.2537L118.761 40.251C117.885 40.251 117.174 40.9609 117.174 41.8377C117.174 41.9403 117.185 42.041 117.202 42.1383L117.169 42.1378C116.675 42.1378 116.271 42.5311 116.255 43.0221C116.117 42.9963 115.976 42.982 115.83 42.982C115.259 42.982 114.723 43.1809 114.338 43.5452C113.308 44.5201 114.432 44.7743 115.518 44.7743H116.931H118.04H140.79H142.566H145.483C146.614 44.7743 148.229 44.9589 147.106 43.7771C146.4 43.0319 145.4 42.5677 144.292 42.5677" fill="#FFFFE7"/>
<path d="M97.1899 92.2193C97.0807 92.2193 96.9915 92.1306 96.9915 92.0209V91.5892H96.5598C96.4506 91.5892 96.3618 91.5 96.3618 91.3908C96.3618 91.2811 96.4506 91.1923 96.5598 91.1923H96.9915V90.7602C96.9915 90.6509 97.0807 90.5617 97.1899 90.5617C97.2996 90.5617 97.3888 90.6509 97.3888 90.7602V91.1923H97.8205C97.9298 91.1923 98.0194 91.2811 98.0194 91.3908C98.0194 91.5 97.9298 91.5892 97.8205 91.5892H97.3888V92.0209C97.3888 92.1306 97.2996 92.2193 97.1899 92.2193Z" fill="white"/>
<path d="M79.9646 35.7103C79.8553 35.7103 79.7661 35.6215 79.7661 35.5118V35.0801H79.3344C79.2247 35.0801 79.136 34.9914 79.136 34.8817C79.136 34.772 79.2247 34.6832 79.3344 34.6832H79.7661V34.2516C79.7661 34.1418 79.8553 34.0531 79.9646 34.0531C80.0743 34.0531 80.1635 34.1418 80.1635 34.2516V34.6832H80.5947C80.7044 34.6832 80.7936 34.772 80.7936 34.8817C80.7936 34.9914 80.7044 35.0801 80.5947 35.0801H80.1635V35.5118C80.1635 35.6215 80.0743 35.7103 79.9646 35.7103" fill="white"/>
<path d="M40.8909 99.5713C40.7812 99.5713 40.6925 99.4821 40.6925 99.3724V98.9412H40.2617C40.1524 98.9412 40.0632 98.852 40.0632 98.7423C40.0632 98.6326 40.1524 98.5438 40.2617 98.5438H40.6925V98.1122C40.6925 98.0025 40.7812 97.9137 40.8909 97.9137C41.0002 97.9137 41.0898 98.0025 41.0898 98.1122V98.5438H41.5219C41.6312 98.5438 41.7208 98.6326 41.7208 98.7423C41.7208 98.852 41.6312 98.9412 41.5219 98.9412H41.0898V99.3724C41.0898 99.4821 41.0002 99.5713 40.8909 99.5713Z" fill="white"/>
<path d="M17.7833 88.6477C17.6741 88.6477 17.5847 88.5589 17.5847 88.4492V88.0175H17.1544C17.0447 88.0175 16.9558 87.9288 16.9558 87.8191C16.9558 87.7089 17.0447 87.6202 17.1544 87.6202H17.5847V87.1889C17.5847 87.0788 17.6741 86.99 17.7833 86.99C17.893 86.99 17.9819 87.0788 17.9819 87.1889V87.6202H18.4135C18.5228 87.6202 18.6119 87.7089 18.6119 87.8191C18.6119 87.9288 18.5228 88.0175 18.4135 88.0175H17.9819V88.4492C17.9819 88.5589 17.893 88.6477 17.7833 88.6477Z" fill="white"/>
<path d="M147.396 32.3495C147.287 32.3495 147.198 32.2604 147.198 32.1507V31.719H146.766C146.657 31.719 146.568 31.6302 146.568 31.5205C146.568 31.4108 146.657 31.3216 146.766 31.3216H147.198V30.8904C147.198 30.7807 147.287 30.6919 147.396 30.6919C147.506 30.6919 147.595 30.7807 147.595 30.8904V31.3216H148.026C148.136 31.3216 148.225 31.4108 148.225 31.5205C148.225 31.6302 148.136 31.719 148.026 31.719H147.595V32.1507C147.595 32.2604 147.506 32.3495 147.396 32.3495Z" fill="white"/>
<path d="M170.714 71.6323C170.605 71.6323 170.515 71.5431 170.515 71.4334V71.0022H170.084C169.974 71.0022 169.885 70.913 169.885 70.8033C169.885 70.6936 169.974 70.6048 170.084 70.6048H170.515V70.1731C170.515 70.0634 170.605 69.9747 170.714 69.9747C170.824 69.9747 170.913 70.0634 170.913 70.1731V70.6048H171.344C171.454 70.6048 171.543 70.6936 171.543 70.8033C171.543 70.913 171.454 71.0022 171.344 71.0022H170.913V71.4334C170.913 71.5431 170.824 71.6323 170.714 71.6323Z" fill="white"/>
<path d="M153.068 100.832C152.959 100.832 152.87 100.743 152.87 100.633V100.201H152.438C152.329 100.201 152.24 100.112 152.24 100.003C152.24 99.8933 152.329 99.8045 152.438 99.8045H152.87V99.3724C152.87 99.2631 152.959 99.1739 153.068 99.1739C153.178 99.1739 153.267 99.2631 153.267 99.3724V99.8045H153.698C153.808 99.8045 153.897 99.8933 153.897 100.003C153.897 100.112 153.808 100.201 153.698 100.201H153.267V100.633C153.267 100.743 153.178 100.832 153.068 100.832Z" fill="white"/>
<path d="M152.858 163.432C152.749 163.432 152.66 163.343 152.66 163.233V162.802H152.228C152.118 162.802 152.029 162.713 152.029 162.603C152.029 162.494 152.118 162.405 152.228 162.405H152.66V161.973C152.66 161.863 152.749 161.774 152.858 161.774C152.968 161.774 153.057 161.863 153.057 161.973V162.405H153.488C153.598 162.405 153.687 162.494 153.687 162.603C153.687 162.713 153.598 162.802 153.488 162.802H153.057V163.233C153.057 163.343 152.968 163.432 152.858 163.432Z" fill="white"/>
<path d="M140.561 95.6072L140.448 95.5724C140.358 95.5109 140.334 95.3869 140.396 95.2968L140.681 94.8808C140.744 94.7893 140.867 94.7675 140.957 94.8286C141.048 94.8906 141.071 95.0141 141.009 95.1042L140.724 95.5207C140.686 95.5769 140.624 95.6072 140.561 95.6072ZM138.496 98.6276L138.423 98.6138L104.377 85.2254C104.318 85.2018 104.272 85.1514 104.257 85.0889C104.242 85.0265 104.257 84.9605 104.298 84.9119L130.397 54.459C130.445 54.4042 130.515 54.3779 130.588 54.3935L163.887 61.1497C163.952 61.1631 164.006 61.2081 164.031 61.2696C164.056 61.3316 164.049 61.4012 164.012 61.4565L141.463 94.4406C141.4 94.5307 141.277 94.5539 141.187 94.4919C141.096 94.4303 141.073 94.3064 141.135 94.2158L163.515 61.4793L130.624 54.806L104.782 84.9583L138.569 98.2446C138.671 98.2843 138.721 98.3998 138.681 98.5019C138.65 98.5795 138.575 98.6276 138.496 98.6276" fill="white"/>
</g>
</svg>
