<svg width="30" height="30" viewBox="0 0 30 30" fill="none" xmlns="http://www.w3.org/2000/svg">
<path d="M15 5C9.49 5 5 9.48 5 15C5 20.51 9.49 25 15 25C20.52 25 25 20.51 25 15C25 9.57356 20.6706 5.15216 15.2798 5.00384L15 5Z" fill="#F2994A"/>
<path d="M13.2399 17.94C12.9399 18.23 12.9399 18.7 13.2299 19C13.3799 19.15 13.5699 19.22 13.7699 19.22C13.9599 19.22 14.1499 19.15 14.2899 19L17.7799 15.53C17.9199 15.39 17.9999 15.2 17.9999 15C17.9999 14.8 17.9199 14.61 17.7799 14.47L14.2899 11C13.9999 10.7 13.5299 10.7 13.2299 11C12.9399 11.29 12.9399 11.77 13.2399 12.06L16.1899 15L13.2399 17.94Z" fill="white"/>
</svg>
