<svg width="338" height="100" viewBox="0 0 338 100" fill="none" xmlns="http://www.w3.org/2000/svg">
<path d="M138.015 65.3971C138.897 66.7206 139.339 67.9706 139.339 69.1471C139.339 70.7157 138.677 72.0392 137.353 73.1176C136.079 74.1471 134.584 74.6618 132.868 74.6618C131.692 74.6618 130.589 74.3922 129.559 73.8529C128.53 73.3137 127.647 72.5049 126.912 71.4265L117.353 57.4559C116.667 56.4755 115.932 55.7647 115.147 55.3235C114.412 54.8333 113.53 54.5882 112.5 54.5882H107.721V67.75C107.721 69.8088 107.133 71.451 105.956 72.6765C104.78 73.8529 103.162 74.4412 101.103 74.4412C99.0445 74.4412 97.4024 73.8529 96.1769 72.6765C95.0004 71.451 94.4122 69.8088 94.4122 67.75V28.4118C94.4122 26.402 94.9514 24.8578 96.0298 23.7794C97.1083 22.701 98.6524 22.1618 100.662 22.1618H119.118C125.393 22.1618 130.098 23.5343 133.236 26.2794C136.422 28.9755 138.015 32.8971 138.015 38.0441C138.015 41.9657 136.937 45.299 134.78 48.0441C132.623 50.7402 129.584 52.5539 125.662 53.4853C127.28 53.7304 128.677 54.2696 129.853 55.1029C131.079 55.9363 132.28 57.1863 133.456 58.8529L138.015 65.3971ZM116.986 44.4412C119.976 44.4412 122.108 43.9755 123.383 43.0441C124.706 42.1127 125.368 40.5931 125.368 38.4853C125.368 36.3284 124.706 34.7843 123.383 33.8529C122.108 32.8726 119.976 32.3824 116.986 32.3824H107.574V44.4412H116.986ZM174.194 62.3824C175.321 62.3824 176.228 62.8235 176.914 63.7059C177.65 64.5882 178.017 65.7402 178.017 67.1618C178.017 69.1225 177.062 70.6176 175.15 71.6471C173.483 72.4804 171.498 73.1912 169.194 73.7794C166.939 74.3186 164.856 74.5882 162.944 74.5882C158.924 74.5882 155.419 73.8284 152.429 72.3088C149.439 70.7892 147.135 68.6078 145.517 65.7647C143.9 62.9216 143.091 59.5882 143.091 55.7647C143.091 52.1373 143.851 48.902 145.37 46.0588C146.939 43.1667 149.096 40.9363 151.841 39.3676C154.635 37.75 157.772 36.9412 161.253 36.9412C164.635 36.9412 167.601 37.6765 170.15 39.1471C172.699 40.6176 174.66 42.701 176.032 45.3971C177.454 48.0931 178.164 51.2549 178.164 54.8824C178.164 56.0098 177.895 56.8922 177.356 57.5294C176.865 58.1176 176.13 58.4118 175.15 58.4118H155.738C156.081 60.7647 156.841 62.4559 158.017 63.4853C159.194 64.5147 160.934 65.0294 163.238 65.0294C164.463 65.0294 165.591 64.9069 166.62 64.6618C167.65 64.3676 168.802 63.9755 170.076 63.4853C170.812 63.1912 171.522 62.9461 172.209 62.75C172.944 62.5049 173.606 62.3824 174.194 62.3824ZM161.62 45.7647C159.905 45.7647 158.532 46.3284 157.503 47.4559C156.473 48.5343 155.861 50.1275 155.664 52.2353H167.209C166.914 47.9216 165.052 45.7647 161.62 45.7647ZM207.367 36.9412C210.455 36.9412 213.2 37.75 215.602 39.3676C218.053 40.9363 219.941 43.1667 221.264 46.0588C222.637 48.951 223.323 52.2598 223.323 55.9853C223.323 59.7108 222.637 62.9951 221.264 65.8382C219.941 68.6324 218.078 70.7892 215.676 72.3088C213.274 73.8284 210.504 74.5882 207.367 74.5882C205.063 74.5882 202.931 74.1225 200.97 73.1912C199.058 72.2598 197.563 71.0098 196.485 69.4412V81.9412C196.485 83.6569 195.897 85.0294 194.72 86.0588C193.544 87.0882 191.999 87.6029 190.088 87.6029C188.078 87.6029 186.46 87.0392 185.235 85.9118C184.009 84.8333 183.397 83.4363 183.397 81.7206V43.1176C183.397 41.3039 183.96 39.8578 185.088 38.7794C186.264 37.652 187.833 37.0882 189.794 37.0882C191.656 37.0882 193.151 37.5784 194.279 38.5588C195.455 39.5392 196.117 40.8382 196.264 42.4559C197.294 40.7402 198.789 39.3922 200.749 38.4118C202.759 37.4314 204.965 36.9412 207.367 36.9412ZM203.397 64.8088C205.651 64.8088 207.367 64.049 208.544 62.5294C209.769 61.0098 210.382 58.8284 210.382 55.9853C210.382 52.9951 209.769 50.7157 208.544 49.1471C207.318 47.5294 205.578 46.7206 203.323 46.7206C201.068 46.7206 199.328 47.5049 198.102 49.0735C196.877 50.6422 196.264 52.8971 196.264 55.8382C196.264 58.7304 196.877 60.9608 198.102 62.5294C199.328 64.049 201.093 64.8088 203.397 64.8088ZM246.852 74.5882C242.882 74.5882 239.377 73.8284 236.338 72.3088C233.348 70.7402 231.019 68.5343 229.352 65.6912C227.735 62.848 226.926 59.5147 226.926 55.6912C226.926 51.8676 227.735 48.5588 229.352 45.7647C231.019 42.9216 233.348 40.7402 236.338 39.2206C239.328 37.701 242.833 36.9412 246.852 36.9412C250.872 36.9412 254.377 37.701 257.367 39.2206C260.357 40.7402 262.661 42.9216 264.279 45.7647C265.946 48.5588 266.779 51.8676 266.779 55.6912C266.779 59.5147 265.946 62.848 264.279 65.6912C262.661 68.5343 260.357 70.7402 257.367 72.3088C254.377 73.8284 250.872 74.5882 246.852 74.5882ZM246.852 64.8088C251.509 64.8088 253.838 61.7696 253.838 55.6912C253.838 49.6127 251.509 46.5735 246.852 46.5735C242.196 46.5735 239.867 49.6127 239.867 55.6912C239.867 61.7696 242.196 64.8088 246.852 64.8088ZM294.912 37.0882C296.579 36.9412 297.902 37.3333 298.883 38.2647C299.863 39.1471 300.353 40.4706 300.353 42.2353C300.353 44.1961 299.887 45.6176 298.956 46.5C298.074 47.3824 296.456 47.9461 294.103 48.1912L291.897 48.4118C289.446 48.7059 287.682 49.4902 286.603 50.7647C285.574 51.9902 285.059 53.6814 285.059 55.8382V68.4118C285.059 70.4216 284.422 71.9412 283.147 72.9706C281.922 73.951 280.378 74.4412 278.515 74.4412C276.652 74.4412 275.084 73.951 273.809 72.9706C272.584 71.9412 271.971 70.4216 271.971 68.4118V42.9706C271.971 41.1078 272.584 39.6618 273.809 38.6324C275.084 37.6029 276.603 37.0882 278.368 37.0882C280.182 37.0882 281.628 37.5784 282.706 38.5588C283.834 39.5392 284.397 40.9118 284.397 42.6765V44.0735C285.182 41.9167 286.456 40.25 288.221 39.0735C290.034 37.8971 291.922 37.2598 293.883 37.1618L294.912 37.0882ZM331.526 65.1029C334.81 65.299 336.452 66.7696 336.452 69.5147C336.452 71.2304 335.79 72.5049 334.467 73.3382C333.143 74.1716 331.256 74.5147 328.805 74.3676L326.746 74.2206C322.334 73.8775 318.977 72.5539 316.673 70.25C314.418 67.8971 313.29 64.6373 313.29 60.4706V47.4559H311.158C307.236 47.4559 305.276 45.8382 305.276 42.6029C305.276 39.4167 307.236 37.8235 311.158 37.8235H313.29V33.0441C313.29 31.1814 313.878 29.7108 315.055 28.6324C316.231 27.5049 317.825 26.9412 319.834 26.9412C321.844 26.9412 323.437 27.5049 324.614 28.6324C325.79 29.7108 326.378 31.1814 326.378 33.0441V37.8235H330.423C334.344 37.8235 336.305 39.4167 336.305 42.6029C336.305 45.8382 334.344 47.4559 330.423 47.4559H326.378V61.5735C326.378 62.5049 326.648 63.2892 327.187 63.9265C327.776 64.5637 328.511 64.9069 329.393 64.9559L331.526 65.1029Z" fill="#F2994A"/>
<path d="M138.015 65.3971L139.421 64.46L139.411 64.4456L139.401 64.4315L138.015 65.3971ZM137.353 73.1176L138.415 74.4318L138.42 74.4272L137.353 73.1176ZM129.559 73.8529L130.343 72.3565L129.559 73.8529ZM126.912 71.4265L128.308 70.4748L128.306 70.4726L126.912 71.4265ZM117.353 57.4559L118.748 56.502L118.742 56.4945L118.737 56.4872L117.353 57.4559ZM115.147 55.3235L114.21 56.7291L114.264 56.7645L114.319 56.7958L115.147 55.3235ZM107.721 54.5882V52.899H106.032V54.5882H107.721ZM105.956 72.6765L107.151 73.871L107.163 73.8588L107.175 73.8463L105.956 72.6765ZM96.1769 72.6765L94.9583 73.8463L94.9822 73.8712L95.007 73.8951L96.1769 72.6765ZM133.236 26.2794L132.123 27.5507L132.134 27.5599L132.145 27.569L133.236 26.2794ZM134.78 48.0441L136.099 49.0994L136.104 49.0936L136.108 49.0878L134.78 48.0441ZM125.662 53.4853L125.272 51.8418L125.409 55.1555L125.662 53.4853ZM129.853 55.1029L128.877 56.4814L128.89 56.4908L128.903 56.4998L129.853 55.1029ZM133.456 58.8529L134.842 57.8873L134.836 57.8788L133.456 58.8529ZM123.383 43.0441L122.411 41.6626L122.398 41.6713L122.386 41.6802L123.383 43.0441ZM123.383 33.8529L122.353 35.1919L122.381 35.2138L122.411 35.2344L123.383 33.8529ZM107.574 32.3824V30.6931H105.885V32.3824H107.574ZM107.574 44.4412H105.885V46.1304H107.574V44.4412ZM136.61 66.3341C137.37 67.4754 137.649 68.4027 137.649 69.1471H141.028C141.028 67.5385 140.424 65.9658 139.421 64.46L136.61 66.3341ZM137.649 69.1471C137.649 70.1588 137.256 71.0181 136.286 71.8081L138.42 74.4272C140.098 73.0603 141.028 71.2726 141.028 69.1471H137.649ZM136.292 71.8035C135.333 72.5781 134.217 72.9725 132.868 72.9725V76.351C134.95 76.351 136.825 75.716 138.415 74.4318L136.292 71.8035ZM132.868 72.9725C131.961 72.9725 131.128 72.7674 130.343 72.3565L128.775 75.3493C130.05 76.0169 131.422 76.351 132.868 76.351V72.9725ZM130.343 72.3565C129.588 71.9611 128.907 71.3529 128.308 70.4749L125.516 72.3781C126.388 73.657 127.471 74.6663 128.775 75.3493L130.343 72.3565ZM128.306 70.4726L118.748 56.502L115.959 58.4098L125.518 72.3804L128.306 70.4726ZM118.737 56.4872C117.952 55.3647 117.041 54.4504 115.976 53.8512L114.319 56.7958C114.823 57.079 115.383 57.5863 115.969 58.4246L118.737 56.4872ZM116.085 53.918C115.028 53.2138 113.807 52.899 112.5 52.899V56.2775C113.253 56.2775 113.796 56.4528 114.21 56.7291L116.085 53.918ZM112.5 52.899H107.721V56.2775H112.5V52.899ZM106.032 54.5882V67.75H109.41V54.5882H106.032ZM106.032 67.75C106.032 69.4707 105.55 70.6599 104.738 71.5066L107.175 73.8463C108.715 72.242 109.41 70.1469 109.41 67.75H106.032ZM104.762 71.482C103.974 72.27 102.827 72.7519 101.103 72.7519V76.1304C103.497 76.1304 105.586 75.4359 107.151 73.871L104.762 71.482ZM101.103 72.7519C99.3826 72.7519 98.1934 72.2707 97.3468 71.4579L95.007 73.8951C96.6113 75.4352 98.7064 76.1304 101.103 76.1304V72.7519ZM97.3955 71.5066C96.5827 70.6599 96.1014 69.4707 96.1014 67.75H92.7229C92.7229 70.1469 93.4181 72.242 94.9583 73.8463L97.3955 71.5066ZM96.1014 67.75V28.4118H92.7229V67.75H96.1014ZM96.1014 28.4118C96.1014 26.7023 96.5537 25.6445 97.2243 24.9739L94.8353 22.5849C93.3491 24.0712 92.7229 26.1016 92.7229 28.4118H96.1014ZM97.2243 24.9739C97.8949 24.3033 98.9527 23.851 100.662 23.851V20.4725C98.3521 20.4725 96.3216 21.0987 94.8353 22.5849L97.2243 24.9739ZM100.662 23.851H119.118V20.4725H100.662V23.851ZM119.118 23.851C125.183 23.851 129.417 25.1827 132.123 27.5507L134.348 25.0081C130.78 21.8859 125.602 20.4725 119.118 20.4725V23.851ZM132.145 27.569C134.865 29.8706 136.326 33.2676 136.326 38.0441H139.704C139.704 32.5265 137.979 28.0804 134.327 24.9899L132.145 27.569ZM136.326 38.0441C136.326 41.6364 135.346 44.5895 133.452 47.0005L136.108 49.0878C138.528 46.0085 139.704 42.2949 139.704 38.0441H136.326ZM133.461 46.9888C131.577 49.3433 128.891 50.9822 125.272 51.8418L126.053 55.1288C130.277 54.1256 133.669 52.1371 136.099 49.0994L133.461 46.9888ZM125.409 55.1555C126.802 55.3665 127.943 55.8198 128.877 56.4814L130.83 53.7245C129.411 52.7194 127.758 52.0943 125.915 51.8151L125.409 55.1555ZM128.903 56.4998C129.911 57.1851 130.976 58.268 132.076 59.8271L134.836 57.8788C133.584 56.1045 132.246 54.6874 130.803 53.7061L128.903 56.4998ZM132.07 59.8185L136.629 66.3626L139.401 64.4315L134.842 57.8874L132.07 59.8185ZM116.986 46.1304C120.06 46.1304 122.653 45.6695 124.379 44.408L122.386 41.6802C121.563 42.2815 119.892 42.7519 116.986 42.7519V46.1304ZM124.355 44.4256C126.26 43.085 127.057 40.9589 127.057 38.4853H123.679C123.679 40.2273 123.153 41.1405 122.411 41.6626L124.355 44.4256ZM127.057 38.4853C127.057 35.9794 126.27 33.8194 124.355 32.4715L122.411 35.2344C123.142 35.7493 123.679 36.6775 123.679 38.4853H127.057ZM124.413 32.514C122.68 31.181 120.07 30.6931 116.986 30.6931V34.0716C119.882 34.0716 121.537 34.5641 122.353 35.1919L124.413 32.514ZM116.986 30.6931H107.574V34.0716H116.986V30.6931ZM105.885 32.3824V44.4412H109.263V32.3824H105.885ZM107.574 46.1304H116.986V42.7519H107.574V46.1304ZM176.914 63.7059L175.581 64.743L175.599 64.7655L175.617 64.7873L176.914 63.7059ZM175.15 71.6471L175.905 73.158L175.928 73.1465L175.951 73.1344L175.15 71.6471ZM169.194 73.7794L169.587 75.4223L169.599 75.4193L169.612 75.4162L169.194 73.7794ZM152.429 72.3088L151.664 73.8148L152.429 72.3088ZM145.517 65.7647L146.986 64.9293L145.517 65.7647ZM145.37 46.0588L143.885 45.2534L143.881 45.2625L145.37 46.0588ZM151.841 39.3676L152.679 40.8344L152.687 40.8296L151.841 39.3676ZM170.15 39.1471L170.994 37.6838L170.15 39.1471ZM176.032 45.3971L174.527 46.1634L174.532 46.1742L174.538 46.1849L176.032 45.3971ZM177.356 57.5294L176.066 56.4382L176.058 56.448L177.356 57.5294ZM155.738 58.4118V56.7225H153.785L154.066 58.6555L155.738 58.4118ZM166.62 64.6618L167.012 66.3051L167.048 66.2964L167.084 66.286L166.62 64.6618ZM170.076 63.4853L170.683 65.062L170.693 65.0579L170.704 65.0537L170.076 63.4853ZM172.209 62.75L172.673 64.3743L172.708 64.3642L172.743 64.3526L172.209 62.75ZM157.503 47.4559L158.725 48.6223L158.738 48.6087L158.75 48.5949L157.503 47.4559ZM155.664 52.2353L153.982 52.0788L153.811 53.9246H155.664V52.2353ZM167.209 52.2353V53.9246H169.017L168.894 52.1204L167.209 52.2353ZM174.194 64.0716C174.805 64.0716 175.218 64.2763 175.581 64.743L178.248 62.6688C177.238 61.3708 175.837 60.6931 174.194 60.6931V64.0716ZM175.617 64.7873C176.043 65.2991 176.328 66.0384 176.328 67.1618H179.707C179.707 65.442 179.256 63.8773 178.212 62.6244L175.617 64.7873ZM176.328 67.1618C176.328 67.8547 176.164 68.396 175.877 68.8437C175.585 69.3004 175.108 69.7511 174.349 70.1597L175.951 73.1344C177.104 72.5136 178.06 71.7021 178.724 70.6636C179.393 69.6163 179.707 68.4296 179.707 67.1618H176.328ZM174.394 70.1361C172.86 70.9032 170.994 71.5765 168.776 72.1427L169.612 75.4162C172.002 74.8059 174.106 74.0575 175.905 73.158L174.394 70.1361ZM168.801 72.1365C166.649 72.6512 164.699 72.899 162.944 72.899V76.2775C165.012 76.2775 167.229 75.9861 169.587 75.4223L168.801 72.1365ZM162.944 72.899C159.138 72.899 155.905 72.1803 153.194 70.8029L151.664 73.8148C154.934 75.4765 158.711 76.2775 162.944 76.2775V72.899ZM153.194 70.8029C150.491 69.4291 148.435 67.4773 146.986 64.9293L144.049 66.6001C145.835 69.7384 148.387 72.1493 151.664 73.8148L153.194 70.8029ZM146.986 64.9293C145.536 62.3809 144.78 59.3452 144.78 55.7647H141.402C141.402 59.8313 142.264 63.4623 144.049 66.6001L146.986 64.9293ZM144.78 55.7647C144.78 52.3798 145.487 49.4239 146.86 46.8551L143.881 45.2625C142.214 48.38 141.402 51.8947 141.402 55.7647H144.78ZM146.855 46.8642C148.28 44.2366 150.218 42.2405 152.679 40.8343L151.003 37.901C147.973 39.6321 145.598 42.0968 143.885 45.2534L146.855 46.8642ZM152.687 40.8296C155.204 39.3724 158.046 38.6304 161.253 38.6304V35.2519C157.499 35.2519 154.066 36.1276 150.995 37.9057L152.687 40.8296ZM161.253 38.6304C164.384 38.6304 167.05 39.3087 169.306 40.6103L170.994 37.6838C168.152 36.0443 164.887 35.2519 161.253 35.2519V38.6304ZM169.306 40.6103C171.563 41.9127 173.298 43.7501 174.527 46.1634L177.538 44.6307C176.021 41.6519 173.834 39.3226 170.994 37.6838L169.306 40.6103ZM174.538 46.1849C175.809 48.596 176.475 51.4775 176.475 54.8824H179.854C179.854 51.0323 179.098 47.5903 177.526 44.6092L174.538 46.1849ZM176.475 54.8824C176.475 55.7509 176.269 56.1985 176.066 56.4383L178.645 58.6206C179.521 57.5859 179.854 56.2687 179.854 54.8824H176.475ZM176.058 56.448C175.975 56.548 175.781 56.7225 175.15 56.7225V60.101C176.48 60.101 177.756 59.6873 178.653 58.6109L176.058 56.448ZM175.15 56.7225H155.738V60.101H175.15V56.7225ZM154.066 58.6555C154.439 61.2073 155.302 63.3544 156.905 64.7566L159.13 62.214C158.379 61.5574 157.724 60.3221 157.41 58.168L154.066 58.6555ZM156.905 64.7566C158.507 66.1583 160.714 66.7187 163.238 66.7187V63.3402C161.154 63.3402 159.881 62.8711 159.13 62.214L156.905 64.7566ZM163.238 66.7187C164.575 66.7187 165.836 66.5851 167.012 66.3051L166.229 63.0184C165.346 63.2287 164.352 63.3402 163.238 63.3402V66.7187ZM167.084 66.286C168.173 65.975 169.373 65.5655 170.683 65.062L169.47 61.9086C168.23 62.3855 167.127 62.7603 166.156 63.0375L167.084 66.286ZM170.704 65.0537C171.391 64.7787 172.047 64.5529 172.673 64.3743L171.745 61.1257C170.997 61.3392 170.232 61.6036 169.449 61.9169L170.704 65.0537ZM172.743 64.3526C173.357 64.1477 173.834 64.0716 174.194 64.0716V60.6931C173.377 60.6931 172.531 60.8621 171.674 61.1474L172.743 64.3526ZM161.62 44.0755C159.495 44.0755 157.646 44.7935 156.255 46.3169L158.75 48.5949C159.418 47.8633 160.314 47.454 161.62 47.454V44.0755ZM156.281 46.2895C154.898 47.7381 154.199 49.7476 153.982 52.0788L157.346 52.3918C157.522 50.5073 158.049 49.3306 158.725 48.6223L156.281 46.2895ZM155.664 53.9246H167.209V50.546H155.664V53.9246ZM168.894 52.1204C168.734 49.7771 168.135 47.7439 166.869 46.2782C165.552 44.7526 163.717 44.0755 161.62 44.0755V47.454C162.955 47.454 163.767 47.8553 164.312 48.4865C164.909 49.1776 165.389 50.3798 165.523 52.3502L168.894 52.1204ZM215.602 39.3676L214.659 40.7688L214.675 40.7798L214.692 40.7905L215.602 39.3676ZM221.264 46.0588L219.728 46.7618L219.733 46.7725L219.738 46.7831L221.264 46.0588ZM221.264 65.8382L219.743 65.1038L219.738 65.1151L221.264 65.8382ZM215.676 72.3088L214.773 70.8813L215.676 72.3088ZM200.97 73.1912L200.23 74.7098L200.238 74.7135L200.245 74.717L200.97 73.1912ZM196.485 69.4412L197.877 68.4842L194.796 64.0023V69.4412H196.485ZM194.72 86.0588L195.832 87.3301L194.72 86.0588ZM185.235 85.9118L186.379 84.6686L186.365 84.6559L186.351 84.6436L185.235 85.9118ZM185.088 38.7794L186.255 40.0001L186.257 39.999L185.088 38.7794ZM194.279 38.5588L193.17 39.8335L193.184 39.8452L193.197 39.8565L194.279 38.5588ZM196.264 42.4559L194.582 42.6088L195.05 47.7622L197.713 43.325L196.264 42.4559ZM200.749 38.4118L200.009 36.8935L200.001 36.8971L199.994 36.9008L200.749 38.4118ZM208.544 62.5294L207.229 61.469L207.218 61.482L207.208 61.4953L208.544 62.5294ZM208.544 49.1471L207.197 50.1671L207.205 50.1771L207.212 50.187L208.544 49.1471ZM198.102 49.0735L196.771 48.0336L198.102 49.0735ZM198.102 62.5294L196.771 63.5694L196.779 63.5797L196.787 63.5898L198.102 62.5294ZM207.367 38.6304C210.143 38.6304 212.555 39.3516 214.659 40.7688L216.546 37.9665C213.846 36.1484 210.768 35.2519 207.367 35.2519V38.6304ZM214.692 40.7905C216.844 42.168 218.527 44.1361 219.728 46.7618L222.8 45.3559C221.355 42.1972 219.263 39.7046 216.513 37.9448L214.692 40.7905ZM219.738 46.7831C220.987 49.4147 221.634 52.4695 221.634 55.9853H225.012C225.012 52.0501 224.287 48.4873 222.79 45.3346L219.738 46.7831ZM221.634 55.9853C221.634 59.5019 220.987 62.5274 219.743 65.1038L222.785 66.5726C224.287 63.4628 225.012 59.9197 225.012 55.9853H221.634ZM219.738 65.1151C218.538 67.6465 216.881 69.5476 214.773 70.8813L216.579 73.7364C219.275 72.0308 221.343 69.6182 222.791 66.5614L219.738 65.1151ZM214.773 70.8813C212.669 72.2124 210.219 72.899 207.367 72.899V76.2775C210.79 76.2775 213.879 75.4444 216.579 73.7364L214.773 70.8813ZM207.367 72.899C205.298 72.899 203.415 72.4826 201.695 71.6653L200.245 74.717C202.446 75.7625 204.828 76.2775 207.367 76.2775V72.899ZM201.71 71.6726C200.029 70.8537 198.771 69.7852 197.877 68.4842L195.093 70.3982C196.355 72.2344 198.088 73.666 200.23 74.7098L201.71 71.6726ZM194.796 69.4412V81.9412H198.174V69.4412H194.796ZM194.796 81.9412C194.796 83.2231 194.379 84.1124 193.608 84.7875L195.832 87.3301C197.414 85.9464 198.174 84.0906 198.174 81.9412H194.796ZM193.608 84.7875C192.804 85.4908 191.685 85.9137 190.088 85.9137V89.2922C192.314 89.2922 194.283 88.6856 195.832 87.3301L193.608 84.7875ZM190.088 85.9137C188.409 85.9137 187.23 85.4522 186.379 84.6686L184.091 87.1549C185.69 88.6263 187.747 89.2922 190.088 89.2922V85.9137ZM186.351 84.6436C185.51 83.904 185.086 82.979 185.086 81.7206H181.707C181.707 83.8936 182.508 85.7626 184.119 87.1799L186.351 84.6436ZM185.086 81.7206V43.1176H181.707V81.7206H185.086ZM185.086 43.1176C185.086 41.6834 185.516 40.7076 186.255 40.0001L183.92 37.5587C182.405 39.0081 181.707 40.9244 181.707 43.1176H185.086ZM186.257 39.999C187.057 39.2323 188.174 38.7775 189.794 38.7775V35.399C187.491 35.399 185.472 36.0716 183.919 37.5598L186.257 39.999ZM189.794 38.7775C191.353 38.7775 192.421 39.1817 193.17 39.8335L195.387 37.2841C193.882 35.9752 191.96 35.399 189.794 35.399V38.7775ZM193.197 39.8565C194.007 40.5314 194.473 41.4073 194.582 42.6088L197.947 42.3029C197.762 40.2692 196.903 38.5471 195.36 37.2611L193.197 39.8565ZM197.713 43.325C198.561 41.9109 199.803 40.7737 201.505 39.9227L199.994 36.9008C197.774 38.0107 196.026 39.5695 194.816 41.5868L197.713 43.325ZM201.49 39.93C203.252 39.0704 205.202 38.6304 207.367 38.6304V35.2519C204.728 35.2519 202.266 35.7924 200.009 36.8935L201.49 39.93ZM203.397 66.4981C206.072 66.4981 208.325 65.5708 209.879 63.5635L207.208 61.4953C206.409 62.5272 205.231 63.1196 203.397 63.1196V66.4981ZM209.859 63.5898C211.415 61.6595 212.071 59.0435 212.071 55.9853H208.693C208.693 58.6134 208.123 60.3601 207.229 61.469L209.859 63.5898ZM212.071 55.9853C212.071 52.7989 211.423 50.0891 209.875 48.1071L207.212 50.187C208.115 51.3422 208.693 53.1913 208.693 55.9853H212.071ZM209.89 48.127C208.307 46.0368 206.039 45.0313 203.323 45.0313V48.4098C205.117 48.4098 206.33 49.0221 207.197 50.1671L209.89 48.127ZM203.323 45.0313C200.627 45.0313 198.362 45.9971 196.771 48.0336L199.434 50.1135C200.294 49.0127 201.51 48.4098 203.323 48.4098V45.0313ZM196.771 48.0336C195.226 50.0115 194.575 52.6931 194.575 55.8382H197.953C197.953 53.101 198.528 51.2728 199.434 50.1135L196.771 48.0336ZM194.575 55.8382C194.575 58.9422 195.229 61.5956 196.771 63.5694L199.434 61.4894C198.525 60.3259 197.953 58.5186 197.953 55.8382H194.575ZM196.787 63.5898C198.393 65.5807 200.684 66.4981 203.397 66.4981V63.1196C201.501 63.1196 200.263 62.5174 199.417 61.469L196.787 63.5898ZM236.338 72.3088L235.553 73.8047L235.568 73.8124L235.582 73.8197L236.338 72.3088ZM229.352 65.6912L227.884 66.5266L227.89 66.536L227.895 66.5455L229.352 65.6912ZM229.352 45.7647L227.895 44.9104L227.891 44.9183L229.352 45.7647ZM264.279 45.7647L262.811 46.6001L262.819 46.6152L262.828 46.6301L264.279 45.7647ZM264.279 65.6912L262.822 64.8369L262.816 64.8463L262.811 64.8558L264.279 65.6912ZM257.367 72.3088L258.132 73.8148L258.142 73.8098L258.152 73.8047L257.367 72.3088ZM246.852 72.899C243.1 72.899 239.861 72.182 237.093 70.7979L235.582 73.8197C238.893 75.4749 242.664 76.2775 246.852 76.2775V72.899ZM237.122 70.8129C234.405 69.3872 232.313 67.4005 230.81 64.8369L227.895 66.5455C229.726 69.6682 232.29 72.0931 235.553 73.8047L237.122 70.8129ZM230.821 64.8558C229.371 62.3073 228.615 59.2716 228.615 55.6912H225.237C225.237 59.7578 226.099 63.3887 227.884 66.5266L230.821 64.8558ZM228.615 55.6912C228.615 52.1098 229.371 49.1042 230.814 46.6111L227.891 44.9183C226.099 48.0135 225.237 51.6255 225.237 55.6912H228.615ZM230.81 46.619C232.31 44.06 234.396 42.1024 237.103 40.7265L235.572 37.7146C232.299 39.378 229.728 41.7831 227.895 44.9104L230.81 46.619ZM237.103 40.7265C239.814 39.3491 243.046 38.6304 246.852 38.6304V35.2519C242.619 35.2519 238.842 36.0529 235.572 37.7146L237.103 40.7265ZM246.852 38.6304C250.658 38.6304 253.891 39.3491 256.602 40.7265L258.132 37.7146C254.863 36.0529 251.086 35.2519 246.852 35.2519V38.6304ZM256.602 40.7265C259.305 42.1003 261.361 44.0521 262.811 46.6001L265.747 44.9293C263.962 41.791 261.41 39.3801 258.132 37.7146L256.602 40.7265ZM262.828 46.6301C264.313 49.1198 265.09 52.1184 265.09 55.6912H268.468C268.468 51.6169 267.578 47.9979 265.73 44.8993L262.828 46.6301ZM265.09 55.6912C265.09 59.2631 264.313 62.2919 262.822 64.8369L265.736 66.5455C267.578 63.4042 268.468 59.7663 268.468 55.6912H265.09ZM262.811 64.8558C261.358 67.4085 259.296 69.3894 256.582 70.8129L258.152 73.8047C261.419 72.091 263.964 69.6602 265.747 66.5266L262.811 64.8558ZM256.602 70.8029C253.891 72.1803 250.658 72.899 246.852 72.899V76.2775C251.086 76.2775 254.863 75.4765 258.132 73.8148L256.602 70.8029ZM246.852 66.4981C249.58 66.4981 251.879 65.5849 253.432 63.5568C254.921 61.6138 255.527 58.8986 255.527 55.6912H252.148C252.148 58.5622 251.59 60.4058 250.75 61.5021C249.976 62.5132 248.782 63.1196 246.852 63.1196V66.4981ZM255.527 55.6912C255.527 52.4838 254.921 49.7685 253.432 47.8256C251.879 45.7975 249.58 44.8843 246.852 44.8843V48.2628C248.782 48.2628 249.976 48.8692 250.75 49.8803C251.59 50.9766 252.148 52.8201 252.148 55.6912H255.527ZM246.852 44.8843C244.125 44.8843 241.826 45.7975 240.273 47.8256C238.784 49.7685 238.178 52.4838 238.178 55.6912H241.556C241.556 52.8201 242.115 50.9766 242.954 49.8803C243.729 48.8692 244.923 48.2628 246.852 48.2628V44.8843ZM238.178 55.6912C238.178 58.8986 238.784 61.6138 240.273 63.5568C241.826 65.5849 244.125 66.4981 246.852 66.4981V63.1196C244.923 63.1196 243.729 62.5132 242.954 61.5021C242.115 60.4058 241.556 58.5622 241.556 55.6912H238.178ZM294.912 37.0882L295.032 38.7732L295.046 38.7722L295.06 38.771L294.912 37.0882ZM298.883 38.2647L297.719 39.4894L297.736 39.5051L297.752 39.5203L298.883 38.2647ZM298.956 46.5L297.794 45.2737L297.778 45.2894L297.762 45.3055L298.956 46.5ZM294.103 48.1912L294.271 49.8721L294.278 49.8713L294.103 48.1912ZM291.897 48.4118L291.729 46.7309L291.713 46.7326L291.696 46.7345L291.897 48.4118ZM286.603 50.7647L285.314 49.6735L285.31 49.6782L286.603 50.7647ZM283.147 72.9706L284.203 74.2897L284.209 74.2847L283.147 72.9706ZM273.809 72.9706L272.722 74.2641L272.75 74.2874L272.779 74.3095L273.809 72.9706ZM273.809 38.6324L272.748 37.3182L272.735 37.3284L272.722 37.3389L273.809 38.6324ZM282.706 38.5588L281.57 39.8088L281.584 39.8213L281.598 39.8335L282.706 38.5588ZM284.397 44.0735H282.708L285.985 44.6508L284.397 44.0735ZM288.221 39.0735L287.301 37.6563L287.293 37.6621L287.284 37.668L288.221 39.0735ZM293.883 37.1618L293.967 38.8489L293.985 38.848L294.003 38.8467L293.883 37.1618ZM295.06 38.771C296.368 38.6556 297.171 38.9689 297.719 39.4894L300.046 37.04C298.633 35.6978 296.789 35.2268 294.763 35.4055L295.06 38.771ZM297.752 39.5203C298.268 39.984 298.664 40.7796 298.664 42.2353H302.042C302.042 40.1615 301.458 38.3101 300.013 37.0091L297.752 39.5203ZM298.664 42.2353C298.664 43.9746 298.246 44.8456 297.794 45.2737L300.118 47.7263C301.529 46.3897 302.042 44.4176 302.042 42.2353H298.664ZM297.762 45.3055C297.309 45.758 296.195 46.2749 293.928 46.511L294.278 49.8713C296.717 49.6173 298.838 49.0068 300.151 47.6945L297.762 45.3055ZM293.935 46.5103L291.729 46.7309L292.065 50.0926L294.271 49.8721L293.935 46.5103ZM291.696 46.7345C289.021 47.0556 286.775 47.9469 285.314 49.6735L287.893 51.8559C288.588 51.0335 289.872 50.3562 292.098 50.089L291.696 46.7345ZM285.31 49.6782C283.948 51.2996 283.37 53.4226 283.37 55.8382H286.748C286.748 53.9402 287.2 52.6808 287.897 51.8512L285.31 49.6782ZM283.37 55.8382V68.4118H286.748V55.8382H283.37ZM283.37 68.4118C283.37 70.0386 282.874 71.0201 282.086 71.6564L284.209 74.2847C285.97 72.8623 286.748 70.8045 286.748 68.4118H283.37ZM282.092 71.6515C281.219 72.3495 280.069 72.7519 278.515 72.7519V76.1304C280.687 76.1304 282.624 75.5525 284.202 74.2897L282.092 71.6515ZM278.515 72.7519C276.963 72.7519 275.773 72.35 274.839 71.6316L272.779 74.3095C274.394 75.552 276.341 76.1304 278.515 76.1304V72.7519ZM274.896 71.6771C274.147 71.0482 273.66 70.0611 273.66 68.4118H270.282C270.282 70.7821 271.02 72.8341 272.722 74.2641L274.896 71.6771ZM273.66 68.4118V42.9706H270.282V68.4118H273.66ZM273.66 42.9706C273.66 41.5159 274.117 40.58 274.896 39.9258L272.722 37.3389C271.05 38.7435 270.282 40.6998 270.282 42.9706H273.66ZM274.87 39.9465C275.82 39.1791 276.957 38.7775 278.368 38.7775V35.399C276.249 35.399 274.347 36.0267 272.748 37.3182L274.87 39.9465ZM278.368 38.7775C279.868 38.7775 280.873 39.1757 281.57 39.8088L283.842 37.3089C282.382 35.9812 280.495 35.399 278.368 35.399V38.7775ZM281.598 39.8335C282.288 40.4343 282.708 41.3032 282.708 42.6765H286.086C286.086 40.5203 285.379 38.6442 283.815 37.2841L281.598 39.8335ZM282.708 42.6765V44.0735H286.086V42.6765H282.708ZM285.985 44.6508C286.657 42.8029 287.718 41.4392 289.158 40.4791L287.284 37.668C285.194 39.0608 283.706 41.0304 282.81 43.4962L285.985 44.6508ZM289.14 40.4908C290.73 39.4594 292.333 38.9306 293.967 38.8489L293.798 35.4746C291.511 35.589 289.339 36.3347 287.301 37.6563L289.14 40.4908ZM294.003 38.8467L295.032 38.7732L294.792 35.4033L293.762 35.4768L294.003 38.8467ZM331.526 65.1029L331.409 66.7882L331.417 66.7887L331.425 66.7892L331.526 65.1029ZM334.467 73.3382L333.567 71.9087L334.467 73.3382ZM328.805 74.3676L328.685 76.0526L328.694 76.0533L328.704 76.0539L328.805 74.3676ZM326.746 74.2206L326.615 75.9048L326.626 75.9056L326.746 74.2206ZM316.673 70.25L315.453 71.4188L315.465 71.4318L315.478 71.4445L316.673 70.25ZM313.29 47.4559H314.98V45.7666H313.29V47.4559ZM313.29 37.8235V39.5128H314.98V37.8235H313.29ZM315.055 28.6324L316.196 29.8776L316.21 29.8649L316.224 29.852L315.055 28.6324ZM324.614 28.6324L323.445 29.852L323.458 29.8649L323.472 29.8776L324.614 28.6324ZM326.378 37.8235H324.689V39.5128H326.378V37.8235ZM326.378 47.4559V45.7666H324.689V47.4559H326.378ZM327.187 63.9265L325.898 65.0176L325.921 65.0455L325.946 65.0723L327.187 63.9265ZM329.393 64.9559L329.509 63.2706L329.498 63.2699L329.487 63.2692L329.393 64.9559ZM331.425 66.7892C332.866 66.8752 333.666 67.2289 334.093 67.6114C334.472 67.9503 334.763 68.4956 334.763 69.5147H338.141C338.141 67.7887 337.611 66.2261 336.347 65.0945C335.132 64.0064 333.469 63.5267 331.626 63.4167L331.425 66.7892ZM334.763 69.5147C334.763 70.7171 334.345 71.4188 333.567 71.9087L335.367 74.7677C337.236 73.591 338.141 71.7437 338.141 69.5147H334.763ZM333.567 71.9087C332.668 72.4743 331.191 72.8185 328.906 72.6814L328.704 76.0539C331.321 76.2109 333.618 75.8688 335.367 74.7677L333.567 71.9087ZM328.925 72.6827L326.866 72.5356L326.626 75.9056L328.685 76.0526L328.925 72.6827ZM326.877 72.5364C322.723 72.2133 319.798 70.9868 317.867 69.0555L315.478 71.4445C318.155 74.1211 321.946 75.5416 326.615 75.9048L326.877 72.5364ZM317.892 69.0812C316.016 67.1235 314.98 64.328 314.98 60.4706H311.601C311.601 64.9465 312.819 68.6707 315.453 71.4188L317.892 69.0812ZM314.98 60.4706V47.4559H311.601V60.4706H314.98ZM313.29 45.7666H311.158V49.1451H313.29V45.7666ZM311.158 45.7666C309.387 45.7666 308.373 45.3947 307.821 44.9396C307.332 44.5358 306.965 43.8654 306.965 42.6029H303.586C303.586 44.5758 304.2 46.3318 305.671 47.5457C307.08 48.7082 309.007 49.1451 311.158 49.1451V45.7666ZM306.965 42.6029C306.965 41.3737 307.326 40.7239 307.811 40.3294C308.364 39.8805 309.382 39.5128 311.158 39.5128V36.1343C309.012 36.1343 307.089 36.5631 305.681 37.7073C304.206 38.906 303.586 40.646 303.586 42.6029H306.965ZM311.158 39.5128H313.29V36.1343H311.158V39.5128ZM314.98 37.8235V33.0441H311.601V37.8235H314.98ZM314.98 33.0441C314.98 31.5682 315.428 30.5819 316.196 29.8776L313.913 27.3871C312.329 28.8397 311.601 30.7945 311.601 33.0441H314.98ZM316.224 29.852C317.016 29.0927 318.153 28.6304 319.834 28.6304V25.2519C317.496 25.2519 315.447 25.9171 313.886 27.4127L316.224 29.852ZM319.834 28.6304C321.516 28.6304 322.653 29.0927 323.445 29.852L325.783 27.4127C324.222 25.9171 322.173 25.2519 319.834 25.2519V28.6304ZM323.472 29.8776C324.241 30.5819 324.689 31.5682 324.689 33.0441H328.068C328.068 30.7945 327.34 28.8397 325.755 27.3871L323.472 29.8776ZM324.689 33.0441V37.8235H328.068V33.0441H324.689ZM326.378 39.5128H330.423V36.1343H326.378V39.5128ZM330.423 39.5128C332.198 39.5128 333.217 39.8805 333.769 40.3294C334.255 40.7239 334.616 41.3737 334.616 42.6029H337.994C337.994 40.646 337.375 38.906 335.9 37.7073C334.491 36.5631 332.569 36.1343 330.423 36.1343V39.5128ZM334.616 42.6029C334.616 43.8654 334.249 44.5358 333.759 44.9396C333.208 45.3947 332.194 45.7666 330.423 45.7666V49.1451C332.573 49.1451 334.5 48.7082 335.909 47.5457C337.381 46.3318 337.994 44.5758 337.994 42.6029H334.616ZM330.423 45.7666H326.378V49.1451H330.423V45.7666ZM324.689 47.4559V61.5735H328.068V47.4559H324.689ZM324.689 61.5735C324.689 62.8551 325.07 64.0397 325.898 65.0176L328.477 62.8353C328.226 62.5387 328.068 62.1547 328.068 61.5735H324.689ZM325.946 65.0723C326.838 66.0388 327.988 66.5697 329.299 66.6425L329.487 63.2692C329.034 63.244 328.713 63.0886 328.429 62.7807L325.946 65.0723ZM329.277 66.6411L331.409 66.7882L331.642 63.4177L329.509 63.2706L329.277 66.6411Z" fill="#CC7D07"/>
<path d="M286.839 83.4705C287.138 83.5538 287.368 83.7058 287.53 83.9264C287.696 84.147 287.78 84.4166 287.78 84.7352C287.78 85.1764 287.62 85.522 287.302 85.772C286.988 86.022 286.554 86.147 286 86.147H284.103C283.961 86.147 283.848 86.1078 283.765 86.0293C283.687 85.9509 283.647 85.8406 283.647 85.6984V81.4117C283.647 81.2695 283.687 81.1592 283.765 81.0808C283.848 81.0024 283.961 80.9631 284.103 80.9631H285.927C286.466 80.9631 286.888 81.0832 287.192 81.3234C287.5 81.5587 287.655 81.8896 287.655 82.3161C287.655 82.5906 287.581 82.8283 287.434 83.0293C287.292 83.2303 287.094 83.3774 286.839 83.4705ZM284.574 83.147H285.772C286.424 83.147 286.75 82.9043 286.75 82.419C286.75 82.1739 286.67 81.9926 286.508 81.8749C286.346 81.7573 286.101 81.6984 285.772 81.6984H284.574V83.147ZM285.897 85.4117C286.241 85.4117 286.491 85.3504 286.647 85.2279C286.804 85.1053 286.883 84.9141 286.883 84.6543C286.883 84.3945 286.802 84.2009 286.64 84.0734C286.483 83.946 286.236 83.8823 285.897 83.8823H284.574V85.4117H285.897ZM291.093 82.7426C291.132 82.6543 291.184 82.5906 291.248 82.5514C291.316 82.5073 291.39 82.4852 291.468 82.4852C291.581 82.4852 291.681 82.5244 291.77 82.6029C291.863 82.6764 291.909 82.7695 291.909 82.8823C291.909 82.9362 291.895 82.9926 291.865 83.0514L289.858 87.2573C289.775 87.4239 289.645 87.5073 289.468 87.5073C289.355 87.5073 289.255 87.4705 289.167 87.397C289.083 87.3283 289.042 87.2401 289.042 87.1323C289.042 87.0783 289.056 87.0171 289.086 86.9484L289.586 85.897L288.218 83.0514C288.194 83.0024 288.181 82.946 288.181 82.8823C288.181 82.7695 288.228 82.6739 288.321 82.5955C288.419 82.5171 288.529 82.4779 288.652 82.4779C288.735 82.4779 288.811 82.4999 288.88 82.544C288.949 82.5832 289.002 82.647 289.042 82.7352L290.071 85.0073L291.093 82.7426ZM294.438 86.1911C294.06 86.2058 293.871 86.0759 293.871 85.8014C293.871 85.6837 293.903 85.5955 293.967 85.5367C294.026 85.473 294.121 85.4362 294.254 85.4264L294.489 85.4117C294.69 85.4019 294.842 85.3381 294.945 85.2205C295.048 85.1029 295.099 84.9239 295.099 84.6837V81.397C295.099 81.2548 295.141 81.1421 295.224 81.0587C295.313 80.9705 295.428 80.9264 295.57 80.9264C295.717 80.9264 295.832 80.9705 295.916 81.0587C296.004 81.1421 296.048 81.2548 296.048 81.397V84.6837C296.048 85.6102 295.59 86.1078 294.673 86.1764L294.438 86.1911ZM298.646 82.4631C299.146 82.4631 299.517 82.5881 299.757 82.8381C300.002 83.0832 300.124 83.4582 300.124 83.9631V85.7573C300.124 85.8896 300.085 85.995 300.007 86.0734C299.928 86.147 299.82 86.1837 299.683 86.1837C299.556 86.1837 299.45 86.1445 299.367 86.0661C299.289 85.9877 299.249 85.8847 299.249 85.7573V85.5955C299.166 85.7867 299.034 85.9362 298.852 86.044C298.676 86.1519 298.47 86.2058 298.235 86.2058C297.995 86.2058 297.776 86.1568 297.58 86.0587C297.384 85.9607 297.23 85.8259 297.117 85.6543C297.004 85.4828 296.948 85.2916 296.948 85.0808C296.948 84.8161 297.014 84.6078 297.146 84.4558C297.284 84.3038 297.504 84.1935 297.808 84.1249C298.112 84.0563 298.531 84.022 299.066 84.022H299.249V83.8529C299.249 83.6127 299.198 83.4386 299.095 83.3308C298.992 83.2181 298.825 83.1617 298.595 83.1617C298.453 83.1617 298.308 83.1837 298.161 83.2279C298.014 83.2671 297.84 83.3259 297.639 83.4043C297.512 83.4681 297.419 83.4999 297.36 83.4999C297.271 83.4999 297.198 83.4681 297.139 83.4043C297.085 83.3406 297.058 83.2573 297.058 83.1543C297.058 83.071 297.078 82.9999 297.117 82.9411C297.161 82.8774 297.232 82.8185 297.33 82.7646C297.502 82.6715 297.705 82.598 297.941 82.544C298.181 82.4901 298.416 82.4631 298.646 82.4631ZM298.419 85.544C298.664 85.544 298.862 85.4631 299.014 85.3014C299.171 85.1347 299.249 84.9215 299.249 84.6617V84.5073H299.117C298.789 84.5073 298.534 84.522 298.352 84.5514C298.171 84.5808 298.041 84.6323 297.963 84.7058C297.884 84.7793 297.845 84.8798 297.845 85.0073C297.845 85.1641 297.899 85.294 298.007 85.397C298.12 85.495 298.257 85.544 298.419 85.544ZM303.066 82.4779C303.193 82.4681 303.294 82.495 303.367 82.5587C303.441 82.6225 303.478 82.7181 303.478 82.8455C303.478 82.9779 303.446 83.0759 303.382 83.1396C303.318 83.2033 303.203 83.245 303.036 83.2646L302.816 83.2867C302.527 83.3161 302.313 83.4141 302.176 83.5808C302.044 83.7475 301.978 83.9558 301.978 84.2058V85.7499C301.978 85.8921 301.934 86.0024 301.845 86.0808C301.757 86.1543 301.647 86.1911 301.514 86.1911C301.382 86.1911 301.272 86.1543 301.184 86.0808C301.1 86.0024 301.059 85.8921 301.059 85.7499V82.9043C301.059 82.7671 301.1 82.6617 301.184 82.5881C301.272 82.5146 301.38 82.4779 301.507 82.4779C301.635 82.4779 301.737 82.5146 301.816 82.5881C301.894 82.6568 301.934 82.7573 301.934 82.8896V83.1837C302.027 82.9681 302.164 82.8014 302.345 82.6837C302.532 82.5661 302.737 82.4999 302.963 82.4852L303.066 82.4779ZM304.329 86.1911C304.197 86.1911 304.087 86.1543 303.998 86.0808C303.915 86.0024 303.873 85.8921 303.873 85.7499V82.9117C303.873 82.7695 303.915 82.6617 303.998 82.5881C304.087 82.5146 304.197 82.4779 304.329 82.4779C304.462 82.4779 304.572 82.5146 304.66 82.5881C304.748 82.6617 304.792 82.7695 304.792 82.9117V85.7499C304.792 85.8921 304.748 86.0024 304.66 86.0808C304.572 86.1543 304.462 86.1911 304.329 86.1911ZM304.329 81.8234C304.163 81.8234 304.03 81.7793 303.932 81.6911C303.834 81.598 303.785 81.4779 303.785 81.3308C303.785 81.1837 303.834 81.0661 303.932 80.9779C304.03 80.8896 304.163 80.8455 304.329 80.8455C304.491 80.8455 304.621 80.8896 304.719 80.9779C304.822 81.0661 304.873 81.1837 304.873 81.3308C304.873 81.4779 304.824 81.598 304.726 81.6911C304.628 81.7793 304.496 81.8234 304.329 81.8234ZM307.829 82.4631C308.26 82.4631 308.581 82.5857 308.792 82.8308C309.003 83.0759 309.108 83.446 309.108 83.9411V85.7499C309.108 85.8872 309.066 85.995 308.983 86.0734C308.904 86.1519 308.794 86.1911 308.652 86.1911C308.51 86.1911 308.397 86.1519 308.314 86.0734C308.23 85.995 308.189 85.8872 308.189 85.7499V83.9926C308.189 83.7131 308.135 83.5097 308.027 83.3823C307.924 83.2548 307.76 83.1911 307.534 83.1911C307.27 83.1911 307.056 83.2744 306.895 83.4411C306.738 83.6078 306.659 83.8308 306.659 84.1102V85.7499C306.659 85.8872 306.618 85.995 306.534 86.0734C306.451 86.1519 306.338 86.1911 306.196 86.1911C306.054 86.1911 305.941 86.1519 305.858 86.0734C305.779 85.995 305.74 85.8872 305.74 85.7499V82.9043C305.74 82.7769 305.782 82.6739 305.865 82.5955C305.949 82.5171 306.061 82.4779 306.204 82.4779C306.331 82.4779 306.434 82.5171 306.512 82.5955C306.596 82.669 306.637 82.7671 306.637 82.8896V83.0881C306.76 82.8872 306.924 82.7328 307.13 82.6249C307.336 82.5171 307.569 82.4631 307.829 82.4631ZM313.086 82.4779C313.223 82.4779 313.333 82.5171 313.416 82.5955C313.5 82.6739 313.541 82.7793 313.541 82.9117V85.8161C313.541 86.3798 313.385 86.8063 313.071 87.0955C312.757 87.3847 312.294 87.5293 311.681 87.5293C311.147 87.5293 310.701 87.4288 310.343 87.2279C310.162 87.12 310.071 86.9901 310.071 86.8381C310.071 86.7303 310.095 86.6445 310.144 86.5808C310.198 86.5171 310.267 86.4852 310.35 86.4852C310.394 86.4852 310.448 86.495 310.512 86.5146C310.576 86.5391 310.642 86.5661 310.711 86.5955C310.887 86.669 311.044 86.7254 311.181 86.7646C311.323 86.8038 311.485 86.8234 311.666 86.8234C312.309 86.8234 312.63 86.5097 312.63 85.8823V85.4117C312.522 85.6127 312.365 85.7695 312.159 85.8823C311.953 85.9901 311.718 86.044 311.453 86.044C311.139 86.044 310.86 85.9705 310.615 85.8234C310.375 85.6715 310.186 85.4607 310.049 85.1911C309.912 84.9215 309.843 84.6102 309.843 84.2573C309.843 83.9043 309.909 83.5931 310.041 83.3234C310.179 83.0489 310.37 82.8381 310.615 82.6911C310.86 82.5391 311.139 82.4631 311.453 82.4631C311.718 82.4631 311.953 82.5195 312.159 82.6323C312.365 82.7401 312.522 82.8945 312.63 83.0955V82.9043C312.63 82.7769 312.671 82.6739 312.755 82.5955C312.838 82.5171 312.948 82.4779 313.086 82.4779ZM311.696 85.3308C311.99 85.3308 312.218 85.2352 312.38 85.044C312.546 84.8529 312.63 84.5906 312.63 84.2573C312.63 83.919 312.546 83.6543 312.38 83.4631C312.218 83.272 311.99 83.1764 311.696 83.1764C311.407 83.1764 311.179 83.272 311.012 83.4631C310.845 83.6543 310.762 83.919 310.762 84.2573C310.762 84.5906 310.845 84.8529 311.012 85.044C311.179 85.2352 311.407 85.3308 311.696 85.3308ZM316.052 82.4631C316.552 82.4631 316.922 82.5881 317.163 82.8381C317.408 83.0832 317.53 83.4582 317.53 83.9631V85.7573C317.53 85.8896 317.491 85.995 317.413 86.0734C317.334 86.147 317.226 86.1837 317.089 86.1837C316.962 86.1837 316.856 86.1445 316.773 86.0661C316.694 85.9877 316.655 85.8847 316.655 85.7573V85.5955C316.572 85.7867 316.44 85.9362 316.258 86.044C316.082 86.1519 315.876 86.2058 315.64 86.2058C315.4 86.2058 315.182 86.1568 314.986 86.0587C314.79 85.9607 314.636 85.8259 314.523 85.6543C314.41 85.4828 314.354 85.2916 314.354 85.0808C314.354 84.8161 314.42 84.6078 314.552 84.4558C314.69 84.3038 314.91 84.1935 315.214 84.1249C315.518 84.0563 315.937 84.022 316.471 84.022H316.655V83.8529C316.655 83.6127 316.604 83.4386 316.501 83.3308C316.398 83.2181 316.231 83.1617 316.001 83.1617C315.859 83.1617 315.714 83.1837 315.567 83.2279C315.42 83.2671 315.246 83.3259 315.045 83.4043C314.917 83.4681 314.824 83.4999 314.765 83.4999C314.677 83.4999 314.604 83.4681 314.545 83.4043C314.491 83.3406 314.464 83.2573 314.464 83.1543C314.464 83.071 314.484 82.9999 314.523 82.9411C314.567 82.8774 314.638 82.8185 314.736 82.7646C314.908 82.6715 315.111 82.598 315.346 82.544C315.587 82.4901 315.822 82.4631 316.052 82.4631ZM315.824 85.544C316.069 85.544 316.268 85.4631 316.42 85.3014C316.577 85.1347 316.655 84.9215 316.655 84.6617V84.5073H316.523C316.194 84.5073 315.94 84.522 315.758 84.5514C315.577 84.5808 315.447 84.6323 315.368 84.7058C315.29 84.7793 315.251 84.8798 315.251 85.0073C315.251 85.1641 315.305 85.294 315.413 85.397C315.525 85.495 315.663 85.544 315.824 85.544ZM320.553 82.4631C320.984 82.4631 321.305 82.5857 321.516 82.8308C321.727 83.0759 321.832 83.446 321.832 83.9411V85.7499C321.832 85.8872 321.79 85.995 321.707 86.0734C321.629 86.1519 321.518 86.1911 321.376 86.1911C321.234 86.1911 321.121 86.1519 321.038 86.0734C320.955 85.995 320.913 85.8872 320.913 85.7499V83.9926C320.913 83.7131 320.859 83.5097 320.751 83.3823C320.648 83.2548 320.484 83.1911 320.258 83.1911C319.994 83.1911 319.78 83.2744 319.619 83.4411C319.462 83.6078 319.383 83.8308 319.383 84.1102V85.7499C319.383 85.8872 319.342 85.995 319.258 86.0734C319.175 86.1519 319.062 86.1911 318.92 86.1911C318.778 86.1911 318.665 86.1519 318.582 86.0734C318.504 85.995 318.464 85.8872 318.464 85.7499V82.9043C318.464 82.7769 318.506 82.6739 318.589 82.5955C318.673 82.5171 318.785 82.4779 318.928 82.4779C319.055 82.4779 319.158 82.5171 319.236 82.5955C319.32 82.669 319.361 82.7671 319.361 82.8896V83.0881C319.484 82.8872 319.648 82.7328 319.854 82.6249C320.06 82.5171 320.293 82.4631 320.553 82.4631ZM325.313 86.1911C325.171 86.1911 325.056 86.147 324.968 86.0587C324.884 85.9705 324.843 85.8553 324.843 85.7131V81.397C324.843 81.2548 324.884 81.1421 324.968 81.0587C325.056 80.9705 325.171 80.9264 325.313 80.9264C325.46 80.9264 325.575 80.9705 325.659 81.0587C325.747 81.1421 325.791 81.2548 325.791 81.397V85.7131C325.791 85.8553 325.747 85.9705 325.659 86.0587C325.575 86.147 325.46 86.1911 325.313 86.1911ZM327.366 86.147C327.224 86.147 327.112 86.1078 327.028 86.0293C326.95 85.9509 326.911 85.8406 326.911 85.6984V81.4117C326.911 81.2695 326.95 81.1592 327.028 81.0808C327.112 81.0024 327.224 80.9631 327.366 80.9631H328.822C329.67 80.9631 330.327 81.1911 330.793 81.647C331.264 82.098 331.499 82.7328 331.499 83.5514C331.499 84.3749 331.264 85.0146 330.793 85.4705C330.327 85.9215 329.67 86.147 328.822 86.147H327.366ZM328.764 85.3749C329.955 85.3749 330.55 84.7671 330.55 83.5514C330.55 82.3406 329.955 81.7352 328.764 81.7352H327.859V85.3749H328.764ZM336.381 80.9264C336.518 80.9264 336.626 80.9705 336.704 81.0587C336.787 81.1421 336.829 81.2548 336.829 81.397V85.7131C336.829 85.8553 336.787 85.9705 336.704 86.0587C336.621 86.147 336.513 86.1911 336.381 86.1911C336.224 86.1911 336.104 86.1347 336.02 86.022L333.336 82.5293V85.7131C333.336 85.8553 333.297 85.9705 333.219 86.0587C333.14 86.147 333.032 86.1911 332.895 86.1911C332.758 86.1911 332.65 86.147 332.572 86.0587C332.493 85.9705 332.454 85.8553 332.454 85.7131V81.397C332.454 81.2548 332.496 81.1421 332.579 81.0587C332.662 80.9705 332.773 80.9264 332.91 80.9264C333.062 80.9264 333.18 80.9828 333.263 81.0955L335.939 84.5734V81.397C335.939 81.2548 335.979 81.1421 336.057 81.0587C336.14 80.9705 336.248 80.9264 336.381 80.9264Z" fill="black"/>
<path d="M160.067 24.2722C160.361 24.5516 160.508 24.8677 160.508 25.2207C160.508 25.5589 160.375 25.8604 160.111 26.1251C159.861 26.3751 159.559 26.5001 159.206 26.5001C158.839 26.5001 158.5 26.3457 158.192 26.0369L150.846 19.1545V25.1104C150.846 25.5369 150.714 25.8825 150.449 26.1472C150.199 26.4119 149.853 26.5442 149.412 26.5442C148.986 26.5442 148.64 26.4119 148.375 26.1472C148.125 25.8825 148 25.5369 148 25.1104V12.1619C148 11.7354 148.125 11.3972 148.375 11.1472C148.64 10.8825 148.986 10.7501 149.412 10.7501C149.853 10.7501 150.199 10.8825 150.449 11.1472C150.714 11.3972 150.846 11.7354 150.846 12.1619V17.831L157.949 11.1692C158.214 10.9045 158.515 10.7722 158.853 10.7722C159.192 10.7722 159.486 10.9045 159.736 11.1692C160 11.4192 160.133 11.7133 160.133 12.0516C160.133 12.3898 159.986 12.6986 159.692 12.978L153.758 18.4045L160.067 24.2722ZM170.087 23.456C170.337 23.456 170.536 23.5516 170.683 23.7427C170.845 23.9339 170.926 24.1913 170.926 24.5148C170.926 24.9707 170.654 25.353 170.109 25.6619C169.609 25.9413 169.043 26.1692 168.411 26.3457C167.779 26.5075 167.176 26.5883 166.602 26.5883C164.867 26.5883 163.492 26.0883 162.477 25.0883C161.462 24.0883 160.955 22.7207 160.955 20.9854C160.955 19.8825 161.176 18.9045 161.617 18.0516C162.058 17.1986 162.676 16.5369 163.47 16.0663C164.279 15.5957 165.19 15.3604 166.205 15.3604C167.176 15.3604 168.021 15.5736 168.742 16.0001C169.462 16.4266 170.021 17.0295 170.418 17.8089C170.815 18.5883 171.014 19.5075 171.014 20.5663C171.014 21.1986 170.734 21.5148 170.176 21.5148H163.668C163.756 22.5295 164.043 23.2795 164.529 23.7648C165.014 24.2354 165.72 24.4707 166.646 24.4707C167.117 24.4707 167.529 24.4119 167.881 24.2942C168.249 24.1766 168.661 24.0148 169.117 23.8089C169.558 23.5736 169.881 23.456 170.087 23.456ZM166.271 17.3016C165.521 17.3016 164.918 17.5369 164.462 18.0075C164.021 18.478 163.756 19.1545 163.668 20.0369H168.654C168.624 19.1398 168.404 18.4633 167.992 18.0075C167.58 17.5369 167.006 17.3016 166.271 17.3016ZM178.806 15.3604C179.733 15.3604 180.556 15.5957 181.277 16.0663C182.012 16.5369 182.578 17.206 182.975 18.0736C183.387 18.9266 183.593 19.9119 183.593 21.0295C183.593 22.1472 183.387 23.1251 182.975 23.9633C182.578 24.8016 182.019 25.4486 181.299 25.9045C180.578 26.3604 179.747 26.5883 178.806 26.5883C178.041 26.5883 177.358 26.4266 176.755 26.103C176.152 25.7795 175.688 25.331 175.365 24.7575V29.2575C175.365 29.6398 175.24 29.9413 174.99 30.1619C174.74 30.3825 174.409 30.4927 173.997 30.4927C173.586 30.4927 173.247 30.3751 172.983 30.1398C172.733 29.9045 172.608 29.5957 172.608 29.2133V16.706C172.608 16.3089 172.725 15.9927 172.961 15.7575C173.211 15.5222 173.541 15.4045 173.953 15.4045C174.365 15.4045 174.696 15.5222 174.946 15.7575C175.196 15.9927 175.321 16.3089 175.321 16.706V17.2575C175.644 16.6545 176.108 16.1913 176.711 15.8677C177.328 15.5295 178.027 15.3604 178.806 15.3604ZM178.078 24.4486C178.946 24.4486 179.622 24.1545 180.108 23.5663C180.593 22.9633 180.836 22.1177 180.836 21.0295C180.836 19.9119 180.593 19.0442 180.108 18.4266C179.622 17.8089 178.946 17.5001 178.078 17.5001C177.196 17.5001 176.512 17.8016 176.027 18.4045C175.556 19.0075 175.321 19.8677 175.321 20.9854C175.321 22.0883 175.556 22.9413 176.027 23.5442C176.512 24.1472 177.196 24.4486 178.078 24.4486ZM189.098 26.5883C187.496 26.5883 186.201 26.2722 185.216 25.6398C184.746 25.3604 184.51 24.9633 184.51 24.4486C184.51 24.1545 184.591 23.9192 184.753 23.7427C184.915 23.5516 185.113 23.456 185.348 23.456C185.598 23.456 185.944 23.5736 186.385 23.8089C186.856 24.0295 187.282 24.1986 187.665 24.3163C188.062 24.4339 188.562 24.4927 189.165 24.4927C189.782 24.4927 190.26 24.3898 190.598 24.1839C190.951 23.978 191.128 23.6913 191.128 23.3236C191.128 23.0736 191.054 22.8751 190.907 22.728C190.775 22.581 190.525 22.4486 190.157 22.331C189.804 22.1986 189.26 22.0516 188.525 21.8898C187.216 21.6251 186.275 21.2501 185.701 20.7648C185.143 20.2795 184.863 19.6104 184.863 18.7575C184.863 18.1104 185.054 17.5295 185.437 17.0148C185.819 16.4854 186.341 16.081 187.003 15.8016C187.679 15.5075 188.444 15.3604 189.297 15.3604C189.915 15.3604 190.51 15.4413 191.084 15.603C191.657 15.7501 192.172 15.9707 192.628 16.2648C193.098 16.5589 193.334 16.9486 193.334 17.4339C193.334 17.728 193.253 17.978 193.091 18.1839C192.929 18.3751 192.731 18.4707 192.496 18.4707C192.334 18.4707 192.172 18.4413 192.01 18.3825C191.863 18.3089 191.672 18.206 191.437 18.0736C191.01 17.853 190.643 17.6913 190.334 17.5883C190.025 17.4707 189.643 17.4119 189.187 17.4119C188.643 17.4119 188.209 17.5222 187.885 17.7427C187.576 17.9633 187.422 18.2648 187.422 18.6472C187.422 19.0148 187.584 19.2942 187.907 19.4854C188.231 19.6766 188.856 19.8677 189.782 20.0589C190.768 20.2648 191.54 20.5001 192.098 20.7648C192.657 21.0295 193.054 21.3604 193.29 21.7575C193.54 22.1545 193.665 22.6619 193.665 23.2795C193.665 24.2795 193.246 25.081 192.407 25.6839C191.584 26.2869 190.481 26.5883 189.098 26.5883ZM203.775 23.456C204.025 23.456 204.224 23.5516 204.371 23.7427C204.533 23.9339 204.614 24.1913 204.614 24.5148C204.614 24.9707 204.341 25.353 203.797 25.6619C203.297 25.9413 202.731 26.1692 202.099 26.3457C201.466 26.5075 200.864 26.5883 200.29 26.5883C198.555 26.5883 197.18 26.0883 196.165 25.0883C195.15 24.0883 194.643 22.7207 194.643 20.9854C194.643 19.8825 194.864 18.9045 195.305 18.0516C195.746 17.1986 196.364 16.5369 197.158 16.0663C197.966 15.5957 198.878 15.3604 199.893 15.3604C200.864 15.3604 201.709 15.5736 202.43 16.0001C203.15 16.4266 203.709 17.0295 204.106 17.8089C204.503 18.5883 204.702 19.5075 204.702 20.5663C204.702 21.1986 204.422 21.5148 203.864 21.5148H197.356C197.444 22.5295 197.731 23.2795 198.216 23.7648C198.702 24.2354 199.408 24.4707 200.334 24.4707C200.805 24.4707 201.216 24.4119 201.569 24.2942C201.937 24.1766 202.349 24.0148 202.805 23.8089C203.246 23.5736 203.569 23.456 203.775 23.456ZM199.959 17.3016C199.209 17.3016 198.606 17.5369 198.15 18.0075C197.709 18.478 197.444 19.1545 197.356 20.0369H202.341C202.312 19.1398 202.091 18.4633 201.68 18.0075C201.268 17.5369 200.694 17.3016 199.959 17.3016ZM215.891 24.2722C216.185 24.5516 216.332 24.8677 216.332 25.2207C216.332 25.5589 216.207 25.8604 215.957 26.1251C215.722 26.3898 215.443 26.5222 215.119 26.5222C214.796 26.5222 214.494 26.3898 214.215 26.1251L209.053 21.4486V25.2207C209.053 25.6472 208.921 25.9707 208.656 26.1913C208.391 26.4119 208.06 26.5222 207.663 26.5222C207.266 26.5222 206.935 26.4119 206.671 26.1913C206.421 25.9707 206.296 25.6472 206.296 25.2207V12.0516C206.296 11.6251 206.421 11.3016 206.671 11.081C206.935 10.8604 207.266 10.7501 207.663 10.7501C208.06 10.7501 208.391 10.8604 208.656 11.081C208.921 11.3016 209.053 11.6251 209.053 12.0516V20.3457L213.773 15.8236C214.038 15.5589 214.34 15.4266 214.678 15.4266C215.016 15.4266 215.31 15.5516 215.56 15.8016C215.81 16.0516 215.935 16.3457 215.935 16.6839C215.935 17.0222 215.796 17.331 215.516 17.6104L212.053 20.831L215.891 24.2722Z" fill="#2A2A2A"/>
<path d="M5.01594 37.295C2.11775 34.0624 0.334257 29.8266 -0.000148773 25.2563H17.0552L5.01594 37.295Z" fill="#CC4746"/>
<path d="M18.615 4.41162V23.0262H0.00038147C0.557724 12.9941 8.58346 4.96833 18.615 4.41162Z" fill="#F2994A"/>
<path d="M20.8444 4.41162C31.2109 4.96896 39.459 13.552 39.459 24.1422C39.459 35.0661 30.5415 43.8728 19.7284 43.8728C14.7123 43.8728 10.0306 41.9778 6.57512 38.8567L20.8431 24.5887L20.8444 4.41162Z" fill="#00BAA0"/>
<path fill-rule="evenodd" clip-rule="evenodd" d="M71.1155 23.7355H57.8805C55.0378 23.7355 52.7334 21.4311 52.7334 18.5884V5.74878H31.6562C37.6756 9.65082 41.6884 16.4504 41.6884 24.1417V24.1405C41.6884 36.2912 31.8785 46.1004 19.7285 46.1004C17.2762 46.1004 14.8239 45.6545 12.483 44.8742V69.7311C12.483 72.8522 15.0468 75.416 18.1679 75.416H53.3144C53.0759 75.2006 52.8343 74.9764 52.5893 74.7431L45.5427 67.6965C45.1624 67.2488 45.0925 66.88 45.1502 66.5235C45.2078 66.1669 45.4322 65.8018 45.7636 65.5174C46.0951 65.2326 46.5259 65.0398 46.9138 64.9987C47.3017 64.9577 47.6223 65.0439 47.8936 65.299L51.8311 69.2366C51.9967 69.4031 52.2407 69.4645 52.4656 69.396C52.6902 69.3277 52.8588 69.1407 52.9033 68.9103C52.9169 68.8413 52.9276 68.7792 52.9371 68.7245L52.9371 68.7245C52.949 68.6554 52.9589 68.598 52.97 68.553C53.021 68.3387 52.9575 68.1134 52.8019 67.9573L48.1615 63.3169C47.7867 62.8725 47.7182 62.5051 47.7756 62.1506C47.8333 61.7941 48.0536 61.4285 48.3848 61.1439C48.7162 60.859 49.1481 60.6683 49.5361 60.6277C49.924 60.5867 50.2464 60.6711 50.5177 60.9262L55.0738 65.4823C55.1977 65.6062 55.3669 65.6735 55.5422 65.668C55.7173 65.6627 55.8822 65.5849 55.9982 65.4533C56.0009 65.4505 56.0046 65.4466 56.0091 65.4418C56.0194 65.4308 56.0339 65.4149 56.0504 65.3967L56.0505 65.3966C56.0796 65.3646 56.1149 65.3258 56.1446 65.2948C56.1599 65.2796 56.1691 65.269 56.1806 65.2565C56.1831 65.2535 56.1868 65.2503 56.1896 65.2475C56.193 65.2439 56.1968 65.2402 56.2006 65.2366C56.2043 65.2329 56.2081 65.2293 56.2113 65.2259C56.2138 65.2233 56.2184 65.2169 56.2214 65.2134L56.2323 65.2026C56.2694 65.1562 56.3001 65.1052 56.3229 65.0506L56.3307 65.0524C56.3307 65.0524 56.3374 65.0222 56.3469 64.9943C56.354 64.9738 56.3623 64.9535 56.3623 64.9535C56.3623 64.9535 56.3681 64.9103 56.3736 64.8711C56.3771 64.8455 56.3831 64.8183 56.3831 64.8183L56.3753 64.8082H56.3757C56.3792 64.6373 56.3132 64.4721 56.1933 64.3508L50.823 58.9806C50.0391 57.8129 50.3055 57.0262 50.8632 56.5451C51.4231 56.0626 52.3468 55.9342 53.1702 56.5841L57.5983 61.0122C57.7277 61.1457 57.9097 61.2156 58.0949 61.2034C58.2805 61.1912 58.4516 61.098 58.5624 60.9485C58.712 60.839 58.8059 60.669 58.8195 60.4838C58.8331 60.2986 58.7648 60.1169 58.6325 59.9863L48.8504 50.0147L48.8481 50.0073C48.2978 49.457 48.1493 48.9713 48.1721 48.5462C48.1949 48.1212 48.4115 47.7229 48.7503 47.4255L48.7483 47.4236L48.748 47.4239L48.7473 47.4226L48.7483 47.4236C49.0869 47.1263 49.5367 46.95 49.9623 46.9564C50.3883 46.9626 50.7965 47.1195 51.1729 47.5849L51.1731 47.5846C51.1869 47.6017 51.2017 47.6179 51.2171 47.6333L63.4421 59.8583C63.652 60.0691 63.9797 60.1057 64.2306 59.9466C64.482 59.7875 64.5888 59.4754 64.4878 59.1959C63.8842 57.5065 63.8134 55.8702 64.0526 54.5743C64.2918 53.2784 64.8729 52.3493 65.3474 52.0391C65.5845 51.8842 65.7549 51.8549 65.9567 51.9114C66.1585 51.9679 66.4346 52.1494 66.7358 52.5848C67.3387 53.4557 67.9559 55.2976 68.2231 58.3343C68.2261 58.376 68.2335 58.4175 68.2448 58.4579C68.7339 60.1502 69.3694 61.7122 69.9638 63.1731C70.3926 64.2271 70.8 65.2284 71.1155 66.1879V23.7355ZM42.3975 41.1049C42.5176 40.987 42.68 40.922 42.8484 40.9238C43.0165 40.9259 43.1775 40.9946 43.2949 41.1152L45.9848 43.8051C46.2327 44.0531 46.2329 44.4551 45.9848 44.7032C45.7368 44.9512 45.3346 44.9512 45.0867 44.7032L42.3968 42.0133C42.2743 41.8936 42.2056 41.7299 42.2056 41.5588C42.2058 41.3879 42.275 41.2241 42.3975 41.1049ZM39.4055 48.8045C39.5374 48.6731 39.7205 48.6062 39.9059 48.6218L43.1782 48.8566C43.3474 48.8667 43.5052 48.9442 43.6168 49.0716C43.7287 49.1991 43.7845 49.3656 43.7725 49.5349C43.7605 49.7037 43.6809 49.8608 43.5525 49.9708C43.4238 50.081 43.2566 50.1352 43.0877 50.1214L39.8158 49.8855H39.8153C39.5667 49.8702 39.3497 49.7104 39.2613 49.4772C39.173 49.2442 39.2292 48.981 39.4055 48.8045ZM50.1973 38.4306C50.2116 38.4149 50.2268 38.4001 50.2427 38.3861C50.4293 38.2235 50.6934 38.1845 50.919 38.286C51.1447 38.3872 51.2907 38.6107 51.2933 38.8582L51.3749 41.7729C51.3844 41.9438 51.3244 42.1112 51.2082 42.2372C51.0924 42.3631 50.9305 42.4369 50.7594 42.4415C50.5885 42.4463 50.4229 42.3818 50.3 42.2625C50.177 42.1433 50.1078 41.9795 50.1078 41.8084L50.0269 38.8939C50.0186 38.7228 50.0802 38.5556 50.1973 38.4306Z" fill="#007DC4"/>
<path d="M55.1687 18.4251C55.124 19.9989 56.4117 21.2865 57.9854 21.2418L70.6289 20.8827L55.5279 5.78166L55.1687 18.4251Z" fill="#046399"/>
<path d="M55.1687 18.4251C55.124 19.9989 56.4117 21.2865 57.9854 21.2418L70.6289 20.8827L55.5279 5.78166L55.1687 18.4251Z" stroke="white"/>
</svg>
