<svg width="84" height="113" viewBox="0 0 84 113" fill="none" xmlns="http://www.w3.org/2000/svg">
<g filter="url(#filter0_d_171_214649)">
<path fill-rule="evenodd" clip-rule="evenodd" d="M21.1703 45.66H61.9383C62.0035 42.7422 62.034 39.943 61.9746 37.2518C61.8088 29.7333 60.9343 24.4461 59.1985 21.0325C56.0617 14.8634 47.9206 12 41.6124 12C38.8827 12 34.9404 12.6234 31.2946 14.2412C27.7041 15.8345 25.0197 18.0954 23.5262 21.0325C21.8398 24.3492 21.0478 29.5373 21.0024 37.0914C20.986 39.8328 21.063 42.6787 21.1703 45.66ZM11.1638 45.66H9.24C5.79374 45.66 3 48.4537 3 51.9V101.82C3 105.266 5.79374 108.06 9.24 108.06H74.76C78.2063 108.06 81 105.266 81 101.82V51.9C81 48.4537 78.2063 45.66 74.76 45.66H71.9408C72.18 34.6882 71.9438 24.0351 68.1124 16.5C62.4863 5.43536 49.5689 2 41.6124 2C33.6559 2 20.2385 5.43536 14.6124 16.5C10.781 24.0351 10.7767 34.6882 11.1638 45.66Z" fill="#707070"/>
</g>
<defs>
<filter id="filter0_d_171_214649" x="0" y="0" width="84" height="112.06" filterUnits="userSpaceOnUse" color-interpolation-filters="sRGB">
<feFlood flood-opacity="0" result="BackgroundImageFix"/>
<feColorMatrix in="SourceAlpha" type="matrix" values="0 0 0 0 0 0 0 0 0 0 0 0 0 0 0 0 0 0 127 0" result="hardAlpha"/>
<feOffset dy="1"/>
<feGaussianBlur stdDeviation="1.5"/>
<feColorMatrix type="matrix" values="0 0 0 0 0 0 0 0 0 0 0 0 0 0 0 0 0 0 0.2 0"/>
<feBlend mode="normal" in2="BackgroundImageFix" result="effect1_dropShadow_171_214649"/>
<feBlend mode="normal" in="SourceGraphic" in2="effect1_dropShadow_171_214649" result="shape"/>
</filter>
</defs>
</svg>
