<svg width="208" height="37" viewBox="0 0 208 37" fill="none" xmlns="http://www.w3.org/2000/svg">
<path d="M146.239 30.8993C145.802 30.8993 145.466 30.7821 145.232 30.5477C144.998 30.3132 144.88 29.9776 144.88 29.5407V20.989C144.88 20.5521 144.998 20.2164 145.232 19.982C145.466 19.7475 145.802 19.6303 146.239 19.6303H149.468C150.715 19.6303 151.786 19.8594 152.681 20.3176C153.587 20.7652 154.279 21.4099 154.759 22.2518C155.238 23.0936 155.478 24.0953 155.478 25.2568C155.478 26.429 155.238 27.4414 154.759 28.2939C154.29 29.1357 153.603 29.7804 152.697 30.228C151.802 30.6755 150.725 30.8993 149.468 30.8993H146.239ZM149.26 28.5336C150.358 28.5336 151.178 28.2672 151.722 27.7344C152.276 27.1909 152.553 26.3651 152.553 25.2568C152.553 24.1486 152.276 23.328 151.722 22.7952C151.178 22.2624 150.358 21.996 149.26 21.996H147.822V28.5336H149.26Z" fill="#2A2A2A"/>
<path d="M158.698 30.9952C158.25 30.9952 157.893 30.8674 157.627 30.6116C157.371 30.3452 157.243 29.9882 157.243 29.5407V20.989C157.243 20.5521 157.371 20.2057 157.627 19.95C157.893 19.6836 158.25 19.5504 158.698 19.5504C159.156 19.5504 159.518 19.6836 159.785 19.95C160.051 20.2057 160.184 20.5521 160.184 20.989V29.5407C160.184 29.9882 160.051 30.3452 159.785 30.6116C159.518 30.8674 159.156 30.9952 158.698 30.9952Z" fill="#2A2A2A"/>
<path d="M171.046 24.5375C171.398 24.5375 171.675 24.6388 171.877 24.8412C172.091 25.033 172.197 25.2941 172.197 25.6245V28.4058C172.197 28.9386 172.154 29.3488 172.069 29.6366C171.995 29.9136 171.851 30.1321 171.638 30.2919C171.435 30.4518 171.126 30.5903 170.711 30.7075C170.295 30.8141 169.831 30.894 169.32 30.9473C168.819 31.0112 168.35 31.0432 167.913 31.0432C166.688 31.0432 165.622 30.8141 164.716 30.3559C163.821 29.887 163.134 29.221 162.654 28.3578C162.175 27.484 161.935 26.4503 161.935 25.2568C161.935 24.0846 162.175 23.067 162.654 22.2038C163.134 21.33 163.816 20.6586 164.7 20.1898C165.585 19.7209 166.619 19.4865 167.801 19.4865C168.547 19.4865 169.213 19.577 169.799 19.7582C170.396 19.9287 170.95 20.1951 171.462 20.5574C171.643 20.6853 171.771 20.8238 171.845 20.973C171.931 21.1222 171.973 21.314 171.973 21.5484C171.973 21.8788 171.883 22.1612 171.702 22.3956C171.52 22.6194 171.302 22.7313 171.046 22.7313C170.876 22.7313 170.727 22.71 170.599 22.6673C170.481 22.6141 170.327 22.5288 170.135 22.4116C169.741 22.1985 169.368 22.044 169.016 21.9481C168.675 21.8521 168.302 21.8042 167.897 21.8042C166.885 21.8042 166.128 22.0866 165.628 22.6514C165.137 23.2161 164.892 24.0846 164.892 25.2568C164.892 26.461 165.148 27.3561 165.659 27.9422C166.182 28.5176 166.976 28.8054 168.041 28.8054C168.553 28.8054 169.059 28.7521 169.56 28.6455V26.5516H168.409C168.057 26.5516 167.785 26.4663 167.594 26.2958C167.402 26.1147 167.306 25.8642 167.306 25.5445C167.306 25.2249 167.402 24.9798 167.594 24.8093C167.785 24.6281 168.057 24.5375 168.409 24.5375H171.046Z" fill="#2A2A2A"/>
<path d="M175.572 30.9952C175.125 30.9952 174.768 30.8674 174.501 30.6116C174.245 30.3452 174.118 29.9882 174.118 29.5407V20.989C174.118 20.5521 174.245 20.2057 174.501 19.95C174.768 19.6836 175.125 19.5504 175.572 19.5504C176.03 19.5504 176.393 19.6836 176.659 19.95C176.925 20.2057 177.059 20.5521 177.059 20.989V29.5407C177.059 29.9882 176.925 30.3452 176.659 30.6116C176.393 30.8674 176.03 30.9952 175.572 30.9952Z" fill="#2A2A2A"/>
<path d="M183.125 30.9792C182.678 30.9792 182.315 30.8514 182.038 30.5956C181.772 30.3292 181.639 29.9776 181.639 29.5407V22.012H179.385C178.916 22.012 178.564 21.9161 178.33 21.7243C178.106 21.5218 177.994 21.2181 177.994 20.8132C177.994 20.4082 178.106 20.1098 178.33 19.918C178.564 19.7262 178.916 19.6303 179.385 19.6303H186.865C187.334 19.6303 187.681 19.7262 187.904 19.918C188.139 20.1098 188.256 20.4082 188.256 20.8132C188.256 21.2181 188.139 21.5218 187.904 21.7243C187.681 21.9161 187.334 22.012 186.865 22.012H184.612V29.5407C184.612 29.9776 184.473 30.3292 184.196 30.5956C183.93 30.8514 183.573 30.9792 183.125 30.9792Z" fill="#2A2A2A"/>
<path d="M198.519 29.0931C198.615 29.2956 198.663 29.4927 198.663 29.6845C198.663 30.0362 198.519 30.3345 198.231 30.5796C197.954 30.8247 197.634 30.9473 197.272 30.9473C197.027 30.9473 196.803 30.8833 196.601 30.7555C196.398 30.6276 196.238 30.4358 196.121 30.18L195.402 28.5656H190.223L189.488 30.18C189.37 30.4358 189.205 30.6276 188.992 30.7555C188.79 30.8833 188.566 30.9473 188.321 30.9473C187.958 30.9473 187.628 30.8247 187.33 30.5796C187.042 30.3345 186.898 30.0362 186.898 29.6845C186.898 29.4927 186.946 29.2956 187.042 29.0931L191.262 20.4295C191.4 20.1418 191.603 19.9234 191.869 19.7742C192.146 19.6143 192.45 19.5344 192.78 19.5344C193.1 19.5344 193.398 19.6143 193.675 19.7742C193.953 19.9234 194.16 20.1418 194.299 20.4295L198.519 29.0931ZM191.214 26.3598H194.411L192.812 22.7952L191.214 26.3598Z" fill="#2A2A2A"/>
<path d="M201.248 30.8993C200.811 30.8993 200.475 30.7821 200.241 30.5477C200.006 30.3132 199.889 29.9722 199.889 29.5247V20.989C199.889 20.5521 200.017 20.2057 200.273 19.95C200.539 19.6836 200.896 19.5504 201.344 19.5504C201.802 19.5504 202.164 19.6836 202.431 19.95C202.697 20.2057 202.83 20.5521 202.83 20.989V28.5176H206.507C207.434 28.5176 207.897 28.9173 207.897 29.7165C207.897 30.1214 207.78 30.4198 207.546 30.6116C207.322 30.8034 206.976 30.8993 206.507 30.8993H201.248Z" fill="#2A2A2A"/>
<path d="M146.861 16.6398C146.413 16.6398 146.056 16.5119 145.79 16.2562C145.534 15.9898 145.406 15.6328 145.406 15.1852V6.63354C145.406 6.19663 145.534 5.8503 145.79 5.59455C146.056 5.32814 146.413 5.19494 146.861 5.19494C147.319 5.19494 147.681 5.32814 147.948 5.59455C148.214 5.8503 148.347 6.19663 148.347 6.63354V15.1852C148.347 15.6328 148.214 15.9898 147.948 16.2562C147.681 16.5119 147.319 16.6398 146.861 16.6398Z" fill="#169859"/>
<path d="M159.049 5.19494C159.454 5.19494 159.784 5.32814 160.04 5.59455C160.307 5.86096 160.44 6.20729 160.44 6.63354V15.1852C160.44 15.6221 160.312 15.9738 160.056 16.2402C159.8 16.5066 159.47 16.6398 159.065 16.6398C158.586 16.6398 158.223 16.4799 157.978 16.1603L153.119 10.1022V15.1852C153.119 15.6221 152.996 15.9738 152.751 16.2402C152.506 16.5066 152.176 16.6398 151.76 16.6398C151.355 16.6398 151.025 16.5066 150.769 16.2402C150.513 15.9738 150.386 15.6221 150.386 15.1852V6.63354C150.386 6.20729 150.513 5.86096 150.769 5.59455C151.025 5.32814 151.355 5.19494 151.76 5.19494C152.218 5.19494 152.575 5.35478 152.831 5.67447L157.69 11.7166V6.63354C157.69 6.19663 157.813 5.8503 158.058 5.59455C158.314 5.32814 158.644 5.19494 159.049 5.19494Z" fill="#169859"/>
<path d="M163.938 16.6398C163.501 16.6398 163.149 16.5066 162.883 16.2402C162.616 15.9738 162.483 15.6221 162.483 15.1852V6.63354C162.483 6.19663 162.6 5.86096 162.835 5.62652C163.069 5.39208 163.405 5.27486 163.842 5.27486H169.213C169.692 5.27486 170.044 5.37077 170.268 5.56258C170.491 5.74374 170.603 6.03679 170.603 6.44172C170.603 6.83601 170.486 7.12373 170.252 7.30488C170.028 7.48604 169.681 7.57662 169.213 7.57662H165.376V9.65459H168.893C169.362 9.65459 169.708 9.7505 169.932 9.94231C170.166 10.1341 170.284 10.4272 170.284 10.8215C170.284 11.2157 170.166 11.5035 169.932 11.6846C169.708 11.8658 169.362 11.9564 168.893 11.9564H165.376V15.1852C165.376 15.6328 165.243 15.9898 164.977 16.2562C164.721 16.5119 164.375 16.6398 163.938 16.6398Z" fill="#169859"/>
<path d="M181.203 14.6737C181.395 14.9614 181.491 15.2332 181.491 15.4889C181.491 15.8299 181.347 16.1176 181.059 16.3521C180.782 16.5758 180.457 16.6877 180.084 16.6877C179.828 16.6877 179.588 16.6291 179.365 16.5119C179.141 16.3947 178.949 16.2189 178.789 15.9844L176.711 12.9474C176.562 12.7343 176.402 12.5797 176.232 12.4838C176.072 12.3773 175.88 12.324 175.656 12.324H174.617V15.1852C174.617 15.6328 174.489 15.9898 174.234 16.2562C173.978 16.5119 173.626 16.6398 173.179 16.6398C172.731 16.6398 172.374 16.5119 172.108 16.2562C171.852 15.9898 171.724 15.6328 171.724 15.1852V6.63354C171.724 6.19663 171.841 5.86096 172.076 5.62652C172.31 5.39208 172.646 5.27486 173.083 5.27486H177.095C178.459 5.27486 179.482 5.57324 180.164 6.16999C180.857 6.75608 181.203 7.60859 181.203 8.7275C181.203 9.58 180.968 10.3046 180.5 10.9014C180.031 11.4875 179.37 11.8818 178.517 12.0842C178.869 12.1375 179.173 12.2547 179.429 12.4359C179.695 12.617 179.956 12.8888 180.212 13.2511L181.203 14.6737ZM176.631 10.1181C177.281 10.1181 177.745 10.0169 178.022 9.81444C178.31 9.61197 178.454 9.28162 178.454 8.8234C178.454 8.35453 178.31 8.01885 178.022 7.81638C177.745 7.60326 177.281 7.4967 176.631 7.4967H174.585V10.1181H176.631Z" fill="#169859"/>
<path d="M193.643 14.7376C193.739 14.9401 193.787 15.1372 193.787 15.3291C193.787 15.6807 193.643 15.9791 193.356 16.2242C193.079 16.4693 192.759 16.5918 192.397 16.5918C192.151 16.5918 191.928 16.5279 191.725 16.4C191.523 16.2721 191.363 16.0803 191.246 15.8246L190.526 14.2102H185.347L184.612 15.8246C184.495 16.0803 184.33 16.2721 184.117 16.4C183.914 16.5279 183.69 16.5918 183.445 16.5918C183.083 16.5918 182.753 16.4693 182.454 16.2242C182.167 15.9791 182.023 15.6807 182.023 15.3291C182.023 15.1372 182.071 14.9401 182.167 14.7376L186.386 6.07408C186.525 5.78636 186.727 5.56791 186.994 5.41872C187.271 5.25888 187.575 5.17896 187.905 5.17896C188.225 5.17896 188.523 5.25888 188.8 5.41872C189.077 5.56791 189.285 5.78636 189.423 6.07408L193.643 14.7376ZM186.338 12.0043H189.535L187.937 8.43978L186.338 12.0043Z" fill="#169859"/>
<path fill-rule="evenodd" clip-rule="evenodd" d="M128 12.0618C128.685 12.7468 129.795 12.7474 130.479 12.0631C131.164 11.3788 131.163 10.2687 130.478 9.58371C129.793 8.8987 128.683 8.89813 127.999 9.58244C127.314 10.2668 127.315 11.3768 128 12.0618Z" fill="#2A2A2A"/>
<path fill-rule="evenodd" clip-rule="evenodd" d="M130.482 19.1636C129.798 19.8474 128.689 19.8478 128.004 19.1625C127.319 18.4774 127.318 17.3667 128.001 16.683C128.686 15.9981 129.797 15.9993 130.482 16.6844C131.167 17.3696 131.167 18.4788 130.482 19.1636Z" fill="#2A2A2A"/>
<path fill-rule="evenodd" clip-rule="evenodd" d="M115.944 19.3817C115.26 20.0654 114.15 20.0648 113.465 19.3797C112.78 18.6951 112.78 17.5847 113.463 16.901C114.148 16.2159 115.258 16.2169 115.943 16.9016C116.628 17.5869 116.629 18.6966 115.944 19.3817Z" fill="#2A2A2A"/>
<path fill-rule="evenodd" clip-rule="evenodd" d="M113.582 26.48C114.267 27.1651 115.377 27.1656 116.061 26.4813C116.745 25.797 116.745 24.6869 116.06 24.0019C115.375 23.3169 114.265 23.3163 113.581 24.0007C112.896 24.685 112.897 25.795 113.582 26.48Z" fill="#2A2A2A"/>
<path fill-rule="evenodd" clip-rule="evenodd" d="M120.221 5.40913C121.217 6.40551 122.832 6.40634 123.827 5.41098C124.823 4.41561 124.822 2.80098 123.826 1.8046C122.829 0.808216 121.215 0.80739 120.219 1.80275C119.224 2.79812 119.225 4.41275 120.221 5.40913Z" fill="#169859"/>
<path fill-rule="evenodd" clip-rule="evenodd" d="M138.26 19.8431C137.265 20.8389 135.65 20.8389 134.653 19.842C133.657 18.8459 133.657 17.2309 134.652 16.2351C135.647 15.2401 137.262 15.2407 138.258 16.2367C139.255 17.2337 139.255 18.848 138.26 19.8431Z" fill="#2A2A2A"/>
<path fill-rule="evenodd" clip-rule="evenodd" d="M123.323 12.0036C122.64 12.6873 121.529 12.6868 120.844 12.0017C120.16 11.317 120.159 10.2067 120.843 9.52296C121.528 8.83809 122.638 8.83889 123.322 9.52355C124.008 10.2089 124.008 11.3187 123.323 12.0036Z" fill="#2A2A2A"/>
<path fill-rule="evenodd" clip-rule="evenodd" d="M120.229 19.8347C121.225 20.8312 122.84 20.8321 123.835 19.8366C124.831 18.8411 124.83 17.2263 123.834 16.2298C122.837 15.2332 121.222 15.2324 120.227 16.2279C119.231 17.2234 119.232 18.8382 120.229 19.8347Z" fill="#169859"/>
<path fill-rule="evenodd" clip-rule="evenodd" d="M127.445 27.0513C128.442 28.0478 130.057 28.0486 131.052 27.0531C132.048 26.0576 132.047 24.4428 131.05 23.4463C130.054 22.4498 128.439 22.449 127.443 23.4445C126.448 24.4399 126.449 26.0548 127.445 27.0513Z" fill="#2A2A2A"/>
<path fill-rule="evenodd" clip-rule="evenodd" d="M113.012 12.6184C114.009 13.6149 115.624 13.6158 116.619 12.6203C117.615 11.6248 117.614 10.0099 116.617 9.01344C115.621 8.01694 114.006 8.01611 113.01 9.0116C112.015 10.0071 112.016 11.6219 113.012 12.6184Z" fill="#2A2A2A"/>
<path fill-rule="evenodd" clip-rule="evenodd" d="M123.106 26.5418C122.422 27.2255 121.312 27.2259 120.627 26.5405C119.942 25.8554 119.941 24.7447 120.625 24.0609C121.31 23.3758 122.42 23.3773 123.105 24.0624C123.791 24.7478 123.791 25.8567 123.106 26.5418Z" fill="#2A2A2A"/>
<path fill-rule="evenodd" clip-rule="evenodd" d="M109.41 19.828C108.415 20.8229 106.8 20.8218 105.804 19.8255C104.807 18.8287 104.807 17.2146 105.802 16.2198C106.798 15.2236 108.411 15.2251 109.407 16.2219C110.404 17.2184 110.406 18.8318 109.41 19.828Z" fill="#2A2A2A"/>
<path fill-rule="evenodd" clip-rule="evenodd" d="M123.827 34.1913C122.833 35.1861 121.218 35.1864 120.221 34.1894C119.225 33.1933 119.225 31.5781 120.219 30.5833C121.216 29.5871 122.83 29.5888 123.826 30.5849C124.823 31.5819 124.824 33.1951 123.827 34.1913Z" fill="#169859"/>
<path d="M2.12992 24.0165C1.91915 24.0165 1.75275 23.9555 1.63072 23.8335C1.5087 23.7004 1.44768 23.5284 1.44768 23.3177V12.8677C1.44768 12.6681 1.5087 12.5072 1.63072 12.3852C1.76384 12.2631 1.93579 12.2021 2.14656 12.2021H6.09025C7.32161 12.2021 8.27564 12.5017 8.95233 13.1007C9.64012 13.6997 9.98402 14.5484 9.98402 15.6466C9.98402 16.7449 9.64012 17.599 8.95233 18.2092C8.26455 18.8193 7.31052 19.1244 6.09025 19.1244H2.81216V23.3177C2.81216 23.5284 2.75115 23.7004 2.62912 23.8335C2.5071 23.9555 2.3407 24.0165 2.12992 24.0165ZM5.95713 17.9929C7.74316 17.9929 8.63617 17.2108 8.63617 15.6466C8.63617 14.1046 7.74316 13.3337 5.95713 13.3337H2.81216V17.9929H5.95713ZM15.0743 24.0498C14.3089 24.0498 13.6322 23.8779 13.0442 23.534C12.4674 23.1901 12.0181 22.702 11.6964 22.0697C11.3858 21.4263 11.2305 20.683 11.2305 19.8399C11.2305 18.9968 11.3858 18.2591 11.6964 17.6268C12.0181 16.9834 12.4674 16.4897 13.0442 16.1458C13.6322 15.8019 14.3089 15.63 15.0743 15.63C15.8397 15.63 16.5164 15.8019 17.1044 16.1458C17.6923 16.4897 18.1416 16.9834 18.4522 17.6268C18.7739 18.2591 18.9348 18.9968 18.9348 19.8399C18.9348 20.683 18.7739 21.4263 18.4522 22.0697C18.1416 22.702 17.6923 23.1901 17.1044 23.534C16.5164 23.8779 15.8397 24.0498 15.0743 24.0498ZM15.0743 22.9349C15.873 22.9349 16.4832 22.6743 16.9047 22.1529C17.3373 21.6204 17.5537 20.8494 17.5537 19.8399C17.5537 18.8526 17.3373 18.0927 16.9047 17.5602C16.4721 17.0166 15.8619 16.7449 15.0743 16.7449C14.2867 16.7449 13.6765 17.0166 13.2439 17.5602C12.8113 18.0927 12.5949 18.8526 12.5949 19.8399C12.5949 20.8383 12.8057 21.6037 13.2273 22.1362C13.6599 22.6687 14.2756 22.9349 15.0743 22.9349ZM31.9278 16.0959C32.0387 15.8297 32.2218 15.6965 32.4769 15.6965C32.6433 15.6965 32.7931 15.752 32.9262 15.8629C33.0593 15.9739 33.1259 16.1125 33.1259 16.2789C33.1259 16.3566 33.1092 16.4398 33.076 16.5285L30.3137 23.5173C30.2471 23.6616 30.1473 23.778 30.0142 23.8668C29.8922 23.9444 29.7535 23.9833 29.5982 23.9833C29.454 23.9833 29.3153 23.9444 29.1822 23.8668C29.0602 23.778 28.9659 23.6616 28.8993 23.5173L26.603 17.6767L24.3233 23.5173C24.2678 23.6616 24.1735 23.778 24.0404 23.8668C23.9073 23.9444 23.7631 23.9833 23.6078 23.9833C23.4636 23.9833 23.3249 23.9444 23.1918 23.8668C23.0587 23.778 22.9588 23.6616 22.8923 23.5173L20.13 16.5452C20.0967 16.4564 20.0801 16.3788 20.0801 16.3122C20.0801 16.1347 20.1522 15.985 20.2964 15.8629C20.4517 15.7409 20.6181 15.6799 20.7956 15.6799C21.0619 15.6799 21.2504 15.813 21.3614 16.0793L23.6411 22.2194L25.9873 16.1292C26.0539 15.985 26.1426 15.874 26.2535 15.7964C26.3756 15.7187 26.5031 15.6799 26.6363 15.6799C26.7805 15.6799 26.908 15.7187 27.019 15.7964C27.141 15.874 27.2298 15.985 27.2852 16.1292L29.6315 22.2028L31.9278 16.0959ZM41.0288 22.053C41.1509 22.053 41.2563 22.1029 41.345 22.2028C41.4338 22.3026 41.4781 22.4302 41.4781 22.5855C41.4781 22.8628 41.284 23.118 40.8957 23.3509C40.4964 23.5839 40.0748 23.7614 39.6311 23.8834C39.1873 23.9944 38.7547 24.0498 38.3332 24.0498C37.0796 24.0498 36.0868 23.6782 35.3546 22.9349C34.6335 22.1917 34.273 21.1656 34.273 19.8565C34.273 19.0245 34.4338 18.2924 34.7556 17.6601C35.0773 17.0166 35.5265 16.5174 36.1034 16.1625C36.6913 15.8075 37.3569 15.63 38.1002 15.63C39.1541 15.63 39.9916 15.9739 40.6128 16.6617C41.2341 17.3494 41.5447 18.2813 41.5447 19.4572C41.5447 19.679 41.5003 19.8399 41.4116 19.9397C41.3228 20.0396 41.1786 20.0895 40.9789 20.0895H35.6208C35.7207 21.9976 36.6248 22.9516 38.3332 22.9516C38.7658 22.9516 39.1374 22.8961 39.448 22.7852C39.7587 22.6632 40.0915 22.5023 40.4464 22.3026C40.7349 22.1362 40.929 22.053 41.0288 22.053ZM38.1168 16.6783C37.4069 16.6783 36.8356 16.9002 36.4029 17.3439C35.9814 17.7876 35.7318 18.4144 35.6541 19.2242H40.3632C40.3411 18.4033 40.1358 17.7765 39.7476 17.3439C39.3593 16.9002 38.8157 16.6783 38.1168 16.6783ZM47.5408 15.6633C48.0067 15.63 48.2397 15.8186 48.2397 16.229C48.2397 16.4065 48.1898 16.5507 48.0899 16.6617C47.9901 16.7615 47.8181 16.8225 47.5741 16.8447L47.0749 16.8946C46.3316 16.9612 45.777 17.2274 45.4109 17.6933C45.0559 18.1482 44.8784 18.6862 44.8784 19.3074V23.3509C44.8784 23.5728 44.8174 23.7392 44.6954 23.8501C44.5733 23.9611 44.4125 24.0165 44.2128 24.0165C44.0131 24.0165 43.8467 23.9611 43.7136 23.8501C43.5916 23.7281 43.5306 23.5617 43.5306 23.3509V16.3289C43.5306 16.1181 43.5971 15.9572 43.7302 15.8463C43.8634 15.7243 44.0242 15.6633 44.2128 15.6633C44.3903 15.6633 44.5401 15.7243 44.6621 15.8463C44.7841 15.9572 44.8451 16.1125 44.8451 16.3122V17.2441C45.0781 16.756 45.4053 16.3843 45.8269 16.1292C46.2595 15.874 46.7532 15.7243 47.3079 15.6799L47.5408 15.6633ZM55.5076 22.053C55.6296 22.053 55.735 22.1029 55.8238 22.2028C55.9125 22.3026 55.9569 22.4302 55.9569 22.5855C55.9569 22.8628 55.7628 23.118 55.3745 23.3509C54.9751 23.5839 54.5536 23.7614 54.1099 23.8834C53.6661 23.9944 53.2335 24.0498 52.8119 24.0498C51.5584 24.0498 50.5655 23.6782 49.8334 22.9349C49.1123 22.1917 48.7518 21.1656 48.7518 19.8565C48.7518 19.0245 48.9126 18.2924 49.2343 17.6601C49.556 17.0166 50.0053 16.5174 50.5822 16.1625C51.1701 15.8075 51.8357 15.63 52.579 15.63C53.6328 15.63 54.4704 15.9739 55.0916 16.6617C55.7128 17.3494 56.0235 18.2813 56.0235 19.4572C56.0235 19.679 55.9791 19.8399 55.8903 19.9397C55.8016 20.0396 55.6574 20.0895 55.4577 20.0895H50.0996C50.1994 21.9976 51.1036 22.9516 52.8119 22.9516C53.2446 22.9516 53.6162 22.8961 53.9268 22.7852C54.2374 22.6632 54.5702 22.5023 54.9252 22.3026C55.2136 22.1362 55.4078 22.053 55.5076 22.053ZM52.5956 16.6783C51.8856 16.6783 51.3143 16.9002 50.8817 17.3439C50.4601 17.7876 50.2105 18.4144 50.1329 19.2242H54.842C54.8198 18.4033 54.6146 17.7765 54.2263 17.3439C53.8381 16.9002 53.2945 16.6783 52.5956 16.6783ZM64.5156 12.1189C64.7264 12.1189 64.8928 12.1799 65.0148 12.302C65.1368 12.424 65.1978 12.5793 65.1978 12.7679V23.3509C65.1978 23.5506 65.1368 23.7115 65.0148 23.8335C64.8928 23.9555 64.7264 24.0165 64.5156 24.0165C64.3048 24.0165 64.1384 23.9555 64.0164 23.8335C63.9055 23.7115 63.85 23.5506 63.85 23.3509V22.4524C63.6059 22.9627 63.2454 23.3565 62.7684 23.6338C62.3025 23.9112 61.7533 24.0498 61.121 24.0498C60.411 24.0498 59.7843 23.8723 59.2407 23.5173C58.6971 23.1624 58.2756 22.6687 57.9761 22.0364C57.6765 21.393 57.5268 20.6497 57.5268 19.8066C57.5268 18.9746 57.6765 18.2425 57.9761 17.6101C58.2756 16.9778 58.6971 16.4897 59.2407 16.1458C59.7843 15.8019 60.411 15.63 61.121 15.63C61.7533 15.63 62.3025 15.7686 62.7684 16.046C63.2454 16.3233 63.6059 16.7171 63.85 17.2274V12.7679C63.85 12.5682 63.9055 12.4129 64.0164 12.302C64.1384 12.1799 64.3048 12.1189 64.5156 12.1189ZM61.3873 22.9349C62.1749 22.9349 62.7795 22.6687 63.201 22.1362C63.6337 21.5927 63.85 20.8272 63.85 19.8399C63.85 18.8526 63.6337 18.0927 63.201 17.5602C62.7795 17.0277 62.1749 16.7615 61.3873 16.7615C60.5996 16.7615 59.984 17.0277 59.5402 17.5602C59.1076 18.0927 58.8913 18.8415 58.8913 19.8066C58.8913 20.7939 59.1076 21.5649 59.5402 22.1196C59.984 22.6632 60.5996 22.9349 61.3873 22.9349ZM76.0612 15.63C76.7711 15.63 77.3979 15.8019 77.9415 16.1458C78.4851 16.4897 78.9066 16.9778 79.2061 17.6101C79.5057 18.2425 79.6554 18.9746 79.6554 19.8066C79.6554 20.6497 79.5057 21.393 79.2061 22.0364C78.9066 22.6687 78.4851 23.1624 77.9415 23.5173C77.3979 23.8723 76.7711 24.0498 76.0612 24.0498C75.4288 24.0498 74.8742 23.9112 74.3972 23.6338C73.9312 23.3565 73.5763 22.9627 73.3322 22.4524V23.3509C73.3322 23.5506 73.2712 23.7115 73.1492 23.8335C73.0382 23.9555 72.8774 24.0165 72.6666 24.0165C72.4558 24.0165 72.2894 23.9555 72.1674 23.8335C72.0454 23.7115 71.9844 23.5506 71.9844 23.3509V12.7679C71.9844 12.5793 72.0454 12.424 72.1674 12.302C72.2894 12.1799 72.4558 12.1189 72.6666 12.1189C72.8774 12.1189 73.0382 12.1799 73.1492 12.302C73.2712 12.4129 73.3322 12.5682 73.3322 12.7679V17.2274C73.5763 16.7171 73.9312 16.3233 74.3972 16.046C74.8742 15.7686 75.4288 15.63 76.0612 15.63ZM75.7949 22.9349C76.5826 22.9349 77.1927 22.6632 77.6253 22.1196C78.058 21.5649 78.2743 20.7939 78.2743 19.8066C78.2743 18.8415 78.058 18.0927 77.6253 17.5602C77.1927 17.0277 76.5826 16.7615 75.7949 16.7615C75.0073 16.7615 74.3972 17.0277 73.9645 17.5602C73.543 18.0927 73.3322 18.8526 73.3322 19.8399C73.3322 20.8272 73.543 21.5927 73.9645 22.1362C74.3972 22.6687 75.0073 22.9349 75.7949 22.9349ZM87.4125 16.0793C87.5346 15.813 87.7287 15.6799 87.9949 15.6799C88.1613 15.6799 88.3111 15.7354 88.4442 15.8463C88.5773 15.9572 88.6439 16.0959 88.6439 16.2623C88.6439 16.3621 88.6217 16.4509 88.5773 16.5285L83.9015 26.6124C83.846 26.7344 83.7628 26.8287 83.6519 26.8953C83.552 26.9618 83.4467 26.9951 83.3357 26.9951C83.1693 26.9951 83.0196 26.9396 82.8864 26.8287C82.7644 26.7289 82.7034 26.5958 82.7034 26.4294C82.7034 26.3406 82.7256 26.2519 82.77 26.1631L83.9348 23.6505L80.64 16.5285C80.5957 16.4509 80.5735 16.3677 80.5735 16.2789C80.5735 16.1125 80.6456 15.9683 80.7898 15.8463C80.9451 15.7243 81.1115 15.6633 81.289 15.6633C81.3999 15.6633 81.5053 15.6965 81.6052 15.7631C81.7161 15.8297 81.7993 15.924 81.8548 16.046L84.6336 22.286L87.4125 16.0793Z" fill="#2A2A2A"/>
</svg>
