<svg width="35" height="35" viewBox="0 0 35 35" fill="none" xmlns="http://www.w3.org/2000/svg">
<path d="M25.0732 19.6821C24.9909 19.4989 24.809 19.3809 24.6081 19.3809H19.8335L17.7726 15.2165C17.6865 15.0428 17.5094 14.933 17.3156 14.933C17.1218 14.933 16.9447 15.0431 16.8587 15.2169L14.7984 19.3812H10.1935C9.99491 19.3812 9.81404 19.4968 9.73075 19.677C9.64745 19.8572 9.67601 20.0693 9.80452 20.2213L13.2012 24.2249L12.15 28.8781C12.1065 29.0702 12.1776 29.2698 12.3322 29.3915C12.4869 29.5139 12.6981 29.535 12.8742 29.4476L17.3156 27.2452L21.7578 29.4476C21.8295 29.483 21.9067 29.5006 21.9842 29.5006C22.0964 29.5006 22.2075 29.4639 22.2993 29.3915C22.454 29.2701 22.5251 29.0706 22.4816 28.8785L21.4321 24.2324L24.9892 20.2302C25.1228 20.0795 25.1555 19.865 25.0732 19.6821ZM20.4958 23.7503C20.3866 23.873 20.3435 24.041 20.3795 24.2011L21.2509 28.0574L17.542 26.2192C17.471 26.1838 17.3931 26.1661 17.3156 26.1661C17.2381 26.1661 17.1603 26.1838 17.0889 26.2192L13.3811 28.0574L14.2521 24.2014C14.2875 24.045 14.2473 23.8812 14.1436 23.7588L11.295 20.4008H15.115C15.3087 20.4008 15.4859 20.291 15.5719 20.1169L17.3153 16.5927L19.0594 20.1169C19.1454 20.291 19.3225 20.4008 19.5166 20.4008H23.4726L20.4958 23.7503Z" fill="white"/>
<path d="M17.9363 11.1549V8.842H23.5459C23.8274 8.842 24.0558 8.61388 24.0558 8.33204V2.89241C24.0558 2.61057 23.8274 2.38245 23.5459 2.38245H11.6467C11.3649 2.38245 11.1367 2.61057 11.1367 2.89241V8.33204C11.1367 8.61388 11.3649 8.842 11.6467 8.842H16.9163V11.1569C10.892 11.4462 6.07959 16.4374 6.07959 22.5322C6.07959 28.8122 11.1888 33.9214 17.4688 33.9214C23.7488 33.9214 28.858 28.8122 28.858 22.5322C28.858 16.4089 24.0001 11.4013 17.9363 11.1549ZM12.1567 3.40238H23.0359V7.82207H12.1567V3.40238ZM17.4688 32.9015C11.7511 32.9015 7.09952 28.2496 7.09952 22.5322C7.09952 16.9147 11.5906 12.3295 17.1703 12.1704C17.3032 12.167 17.5453 12.167 17.686 12.1683C23.3031 12.2849 27.8381 16.8872 27.8381 22.5322C27.8381 28.2496 23.1862 32.9015 17.4688 32.9015Z" fill="white"/>
</svg>
