<svg width="28" height="33" viewBox="0 0 28 33" fill="none" xmlns="http://www.w3.org/2000/svg">
<path fill-rule="evenodd" clip-rule="evenodd" d="M4.64062 3.875C4.64062 2.28631 5.92589 1 7.5094 1H23.2304C24.8139 1 26.0992 2.28631 26.0992 3.875V28.625C26.0992 30.2137 24.8139 31.5 23.2304 31.5H7.5094C5.92589 31.5 4.64062 30.2137 4.64062 28.625V22.9246C4.64062 22.6901 4.45054 22.5 4.21606 22.5C3.98159 22.5 3.7915 22.3099 3.7915 22.0754V13.9246C3.7915 13.6901 3.98159 13.5 4.21606 13.5C4.45054 13.5 4.64062 13.3099 4.64062 13.0754V3.875ZM7.5094 0C5.37187 0 3.64062 1.73577 3.64062 3.875V28.625C3.64062 30.7642 5.37187 32.5 7.5094 32.5H23.2304C25.3679 32.5 27.0992 30.7642 27.0992 28.625V3.875C27.0992 1.73577 25.3679 0 23.2304 0H7.5094Z" fill="white"/>
<path d="M17.1166 11.8196C14.3647 11.8196 12.1257 14.0624 12.1257 16.8195C12.1257 17.0071 12.2775 17.1594 12.465 17.1594H21.7681C21.9553 17.1594 22.1073 17.0071 22.1073 16.8195C22.1073 14.0624 19.8684 11.8196 17.1166 11.8196ZM12.8176 16.4796C12.9913 14.2557 14.8533 12.4994 17.1166 12.4994C19.38 12.4994 21.242 14.2557 21.4154 16.4796H12.8176Z" fill="white"/>
<path d="M17.0354 11.3707C18.651 11.3707 19.9654 10.0539 19.9654 8.43535C19.9654 6.81676 18.6508 5.5 17.0354 5.5C15.4198 5.5 14.1055 6.81676 14.1055 8.43535C14.1055 10.0539 15.4198 11.3707 17.0354 11.3707ZM17.0354 6.17979C18.2767 6.17979 19.2868 7.19155 19.2868 8.43535C19.2868 9.67892 18.2767 10.6909 17.0354 10.6909C15.7939 10.6909 14.784 9.67915 14.784 8.43535C14.784 7.19155 15.7939 6.17979 17.0354 6.17979Z" fill="white"/>
<path d="M4.13975 18.9731C4.23983 18.9731 4.33914 18.934 4.41413 18.8579L10.0186 13.1718C10.1701 13.018 10.1701 12.7688 10.0186 12.6153C9.86706 12.4616 9.62165 12.4616 9.47011 12.6153L4.0976 18.0661L0.760826 15.6561C0.586009 15.5301 0.344214 15.5716 0.219825 15.7484C0.0956951 15.9255 0.136296 16.1714 0.311113 16.2973L3.91528 18.9002C3.98278 18.9492 4.06165 18.9731 4.13975 18.9731Z" fill="white"/>
<path d="M11.6354 22.5303H22.5187C22.799 22.5303 23.0265 22.2998 23.0265 22.0151C23.0265 21.7304 22.799 21.5 22.5187 21.5H11.6354C11.3548 21.5 11.1277 21.7304 11.1277 22.0151C11.1277 22.2998 11.3548 22.5303 11.6354 22.5303Z" fill="white"/>
<path d="M11.6354 25.9728H22.5187C22.799 25.9728 23.0265 25.7421 23.0265 25.4577C23.0265 25.1733 22.799 24.9426 22.5187 24.9426H11.6354C11.3548 24.9426 11.1277 25.1733 11.1277 25.4577C11.1277 25.7421 11.3548 25.9728 11.6354 25.9728Z" fill="white"/>
</svg>
