<svg width="32" height="18" viewBox="0 0 32 18" fill="none" xmlns="http://www.w3.org/2000/svg">
<path d="M15.9074 9.4733C11.7942 9.4733 8.44763 12.8195 8.44763 16.9328C8.44763 17.2127 8.67448 17.4399 8.95473 17.4399H22.8598C23.1397 17.4399 23.3669 17.2127 23.3669 16.9328C23.3669 12.8195 20.0204 9.4733 15.9074 9.4733ZM9.48178 16.4257C9.74142 13.1079 12.5244 10.4875 15.9074 10.4875C19.2905 10.4875 22.0735 13.1079 22.3328 16.4257H9.48178Z" fill="white"/>
<path d="M15.7861 8.80359C18.2009 8.80359 20.1654 6.83907 20.1654 4.42425C20.1654 2.00943 18.2006 0.0449219 15.7861 0.0449219C13.3713 0.0449219 11.4067 2.00943 11.4067 4.42425C11.4067 6.83907 13.3713 8.80359 15.7861 8.80359ZM15.7861 1.05913C17.6414 1.05913 19.1512 2.5686 19.1512 4.42425C19.1512 6.27957 17.6414 7.78938 15.7861 7.78938C13.9304 7.78938 12.4209 6.27991 12.4209 4.42425C12.4209 2.5686 13.9304 1.05913 15.7861 1.05913Z" fill="white"/>
<path d="M5.99336 12.2715C6.82534 12.2715 7.64245 12.4932 8.35645 12.9131C8.59783 13.0558 8.90885 12.9743 9.0505 12.7333C9.19249 12.4919 9.11203 12.1809 8.87031 12.0389C8.0008 11.5274 7.00587 11.2573 5.99336 11.2573C2.86386 11.2573 0.317871 13.8033 0.317871 16.9327C0.317871 17.2127 0.544715 17.4398 0.824973 17.4398H7.25232C7.53258 17.4398 7.75942 17.2127 7.75942 16.9327C7.75942 16.6528 7.53258 16.4256 7.25232 16.4256H1.35946C1.61301 14.093 3.59443 12.2715 5.99336 12.2715Z" fill="white"/>
<path d="M5.90348 10.4476C7.76995 10.4476 9.28889 8.92901 9.28889 7.0622C9.28889 5.19539 7.77029 3.67679 5.90348 3.67679C4.03667 3.67679 2.51807 5.19539 2.51807 7.0622C2.51807 8.92867 4.03667 10.4476 5.90348 10.4476ZM5.90348 4.69099C7.21079 4.69099 8.27469 5.75455 8.27469 7.0622C8.27469 8.36951 7.21113 9.43341 5.90348 9.43341C4.59583 9.43341 3.53227 8.36985 3.53227 7.0622C3.53227 5.75455 4.59583 4.69099 5.90348 4.69099Z" fill="white"/>
<path d="M25.8626 11.2573C24.8504 11.2573 23.8555 11.5277 22.9856 12.0389C22.7439 12.1809 22.6635 12.4915 22.8055 12.7329C22.9474 12.975 23.2591 13.0551 23.4995 12.9131C24.2138 12.4932 25.031 12.2715 25.8626 12.2715C28.2615 12.2715 30.243 14.093 30.4965 16.4256H24.6047C24.3247 16.4256 24.0976 16.6528 24.0976 16.9327C24.0976 17.2127 24.3247 17.4398 24.6047 17.4398H31.031C31.3109 17.4398 31.5381 17.2127 31.5381 16.9327C31.5381 13.8033 28.9921 11.2573 25.8626 11.2573Z" fill="white"/>
<path d="M25.9531 10.4476C27.8196 10.4476 29.3385 8.92898 29.3385 7.06217C29.3385 5.19536 27.8199 3.67676 25.9531 3.67676C24.0863 3.67676 22.5674 5.19536 22.5674 7.06217C22.5677 8.92864 24.0863 10.4476 25.9531 10.4476ZM25.9531 4.69096C27.2604 4.69096 28.3243 5.75452 28.3243 7.06217C28.3243 8.36948 27.2608 9.43338 25.9531 9.43338C24.6455 9.43338 23.5816 8.36982 23.5816 7.06217C23.5819 5.75452 24.6455 4.69096 25.9531 4.69096Z" fill="white"/>
</svg>
