<svg width="33" height="26" viewBox="0 0 33 26" fill="none" xmlns="http://www.w3.org/2000/svg">
<path d="M29.8232 6.89691C29.8232 8.17764 28.7871 9.21442 27.5109 9.21442C26.2346 9.21442 25.1985 8.17764 25.1985 6.89691C25.1985 5.61618 26.2346 4.57941 27.5109 4.57941C28.7871 4.57941 29.8232 5.61618 29.8232 6.89691Z" stroke="white" stroke-width="0.927002"/>
<path d="M18.7012 2.78101C18.7012 4.06174 17.6651 5.09851 16.3888 5.09851C15.1125 5.09851 14.0764 4.06174 14.0764 2.78101C14.0764 1.50028 15.1125 0.463501 16.3888 0.463501C17.6651 0.463501 18.7012 1.50028 18.7012 2.78101Z" stroke="white" stroke-width="0.927002"/>
<path d="M20.5518 9.66864V11.9861H12.2258V9.66864C12.2258 9.05372 12.4697 8.46416 12.9034 8.02961C13.3371 7.59509 13.9252 7.35114 14.5382 7.35114H18.2394C18.8524 7.35114 19.4405 7.59509 19.8742 8.02961C20.3079 8.46416 20.5518 9.05372 20.5518 9.66864Z" stroke="white" stroke-width="0.927002"/>
<path d="M7.68091 6.89691C7.68091 8.17764 6.64482 9.21442 5.36853 9.21442C4.09225 9.21442 3.05615 8.17764 3.05615 6.89691C3.05615 5.61618 4.09225 4.57941 5.36853 4.57941C6.64482 4.57941 7.68091 5.61618 7.68091 6.89691Z" stroke="white" stroke-width="0.927002"/>
<path d="M31.6738 13.8216V13.8216V20.3848H29.5255L24.7237 13.6817C24.7727 13.1468 25.0994 12.6282 25.6149 12.2177C26.1742 11.7723 26.898 11.5041 27.5478 11.5041H29.3952C30.0017 11.513 30.5807 11.7604 31.0071 12.1934C31.4342 12.627 31.6738 13.212 31.6738 13.8216ZM29.4116 24.9345H3.29273L4.78228 22.2221H9.39357H9.8312L9.85631 21.7852L9.91183 20.8193L9.93999 20.3292H9.44909H2.54456C2.17695 20.3292 1.82423 20.1829 1.56404 19.9222C1.30382 19.6615 1.15747 19.3077 1.15747 18.9387V13.7938C1.15747 13.1789 1.4013 12.5893 1.83505 12.1548C2.26877 11.7202 2.85684 11.4763 3.46985 11.4763H5.74792C6.43845 11.4763 7.02265 11.6622 7.42361 11.9806C7.78315 12.2661 8.02209 12.6776 8.05611 13.2368L4.90533 17.7462L4.39599 18.4752H5.28527H7.4227H7.67745L7.81399 18.2601L10.6291 13.8262H22.1524L29.4116 24.9345Z" stroke="white" stroke-width="0.927002"/>
</svg>
