<svg width="35" height="35" viewBox="0 0 35 35" fill="none" xmlns="http://www.w3.org/2000/svg">
<path d="M29.7302 4.28131H9.01131C7.77416 4.28131 6.78288 5.16219 6.75439 6.29995V10.7006C6.75439 10.9853 6.98195 11.2157 7.26309 11.2157C7.54423 11.2157 7.77179 10.9853 7.77179 10.7006V6.313C7.78569 5.76078 8.34187 5.31158 9.01131 5.31158H29.7302C30.4145 5.31158 30.971 5.77005 30.971 6.33395V23.1432C30.971 23.7074 30.4142 24.1662 29.7302 24.1662H9.01131C8.32796 24.1662 7.77179 23.7074 7.77179 23.1432V20.7368C7.77179 20.4524 7.54423 20.2217 7.26309 20.2217C6.98195 20.2217 6.75439 20.4524 6.75439 20.7368V23.1432C6.75439 24.2754 7.7667 25.1965 9.01131 25.1965H18.7844V29.6387H12.327C12.0459 29.6387 11.8183 29.8695 11.8183 30.1538C11.8183 30.4382 12.0459 30.6689 12.327 30.6689H26.2022C26.483 30.6689 26.7109 30.4382 26.7109 30.1538C26.7109 29.8695 26.483 29.6387 26.2022 29.6387H19.8018V25.1962H29.7302C30.9755 25.1962 31.9884 24.2751 31.9884 23.1428V6.33395C31.9884 5.20203 30.9755 4.28131 29.7302 4.28131Z" fill="white"/>
<path d="M15.9828 12.6866H26.8862C27.167 12.6866 27.3949 12.4561 27.3949 12.1714C27.3949 11.8867 27.167 11.6563 26.8862 11.6563H15.9828C15.7017 11.6563 15.4741 11.8867 15.4741 12.1714C15.4741 12.4561 15.7017 12.6866 15.9828 12.6866Z" fill="white"/>
<path d="M15.9828 15.9488H26.8862C27.167 15.9488 27.3949 15.7184 27.3949 15.4337C27.3949 15.149 27.167 14.9185 26.8862 14.9185H15.9828C15.7017 14.9185 15.4741 15.149 15.4741 15.4337C15.4741 15.7184 15.7017 15.9488 15.9828 15.9488Z" fill="white"/>
<path d="M15.9828 19.3914H26.8862C27.167 19.3914 27.3949 19.1606 27.3949 18.8763C27.3949 18.5919 27.167 18.3611 26.8862 18.3611H15.9828C15.7017 18.3611 15.4741 18.5919 15.4741 18.8763C15.4741 19.1606 15.7017 19.3914 15.9828 19.3914Z" fill="white"/>
<path d="M7.15961 17.0371C7.29085 17.0371 7.42108 16.986 7.51942 16.8864L14.8691 9.44336C15.0678 9.24212 15.0678 8.91586 14.8691 8.71496C14.6703 8.51371 14.3485 8.51371 14.1498 8.71496L7.10433 15.8499L2.72852 12.6952C2.49927 12.5304 2.18218 12.5847 2.01906 12.8161C1.85628 13.0479 1.90952 13.3697 2.13878 13.5346L6.86524 16.9417C6.95375 17.0059 7.05719 17.0371 7.15961 17.0371Z" fill="white"/>
</svg>
