<svg width="37" height="29" viewBox="0 0 37 29" fill="none" xmlns="http://www.w3.org/2000/svg">
<path d="M8.59284 28.8141C8.40517 28.8024 8.21643 28.7875 8.02876 28.7811C7.74037 28.7693 7.63858 28.6958 7.60465 28.4079C7.56754 28.0422 7.53573 27.6743 7.53467 27.3065C7.52477 24.6872 7.51983 22.0672 7.51983 19.4464V19.2151C7.19008 19.1511 6.86775 19.0925 6.54754 19.0242C3.60842 18.393 1.23974 15.9386 0.812444 12.9415C0.231406 8.87715 2.74005 5.60283 6.08526 4.64751C6.97272 4.39375 7.87396 4.34578 8.78369 4.34151C11.0909 4.33298 13.3981 4.32907 15.7053 4.32978C15.8686 4.33086 16.0291 4.28619 16.1686 4.20077C18.2432 2.99596 20.3196 1.79435 22.3978 0.595934C22.5876 0.489313 22.7859 0.38909 22.9841 0.29633C23.2768 0.159856 23.6829 0.431738 23.6829 0.75693C23.6829 3.36629 23.6829 5.97458 23.6829 8.58181V8.82704C24.7803 8.79825 25.6974 9.16502 26.3771 10.0318C26.8564 10.6226 27.1086 11.3669 27.0874 12.1291C27.0697 12.7022 26.8966 13.2596 26.587 13.7412C26.2825 14.2337 25.8533 14.6359 25.3433 14.9065C24.8305 15.1695 24.2576 15.2913 23.6829 15.2594V15.4929C23.6829 17.6403 23.68 19.788 23.6744 21.936C23.6744 22.2303 23.6585 22.5246 23.6394 22.8188C23.6139 23.2197 23.3457 23.4063 22.9841 23.2368C22.5165 23.0161 22.0585 22.7687 21.6142 22.5032C19.8043 21.4242 18.0018 20.3335 16.194 19.2524C16.0956 19.1955 15.9842 19.1654 15.8707 19.165C15.2928 19.165 14.7139 19.1884 14.1159 19.2023V28.265C14.1159 28.5284 14.0099 28.6776 13.7437 28.7384C13.5783 28.7768 13.4065 28.7864 13.238 28.8088L8.59284 28.8141ZM15.6968 5.48235H15.4508C13.2051 5.49194 10.9594 5.49834 8.71371 5.51327C8.17721 5.51327 7.63328 5.49728 7.10525 5.57298C6.02241 5.72701 5.00651 6.19116 4.17886 6.91C2.84184 8.06043 1.99891 9.47955 1.90984 11.2953C1.85471 12.4287 1.98088 13.513 2.49936 14.5451C3.3688 16.2798 4.76732 17.3407 6.58571 17.894C7.31413 17.9484 8.04255 18.0401 8.77203 18.0508C11.0177 18.0838 13.2634 18.086 15.5091 18.1009H15.6968V5.48235ZM19.8107 3.4427C19.7407 3.47042 19.7163 3.47575 19.6962 3.48748C18.796 4.00459 17.8937 4.5185 16.9999 5.04307C16.9702 5.06983 16.9467 5.10277 16.9309 5.13959C16.9152 5.17642 16.9076 5.21625 16.9087 5.25631C16.9037 9.56947 16.9013 13.8823 16.9013 18.1947C16.897 18.2421 16.9071 18.2896 16.9301 18.3311C16.9532 18.3726 16.9883 18.406 17.0306 18.4271C17.8916 18.9379 18.7493 19.4539 19.6082 19.9678C19.6622 20.0009 19.7206 20.0264 19.8107 20.0744V3.4427ZM13.0142 27.637V19.2033H8.68932V27.637H13.0142ZM22.4922 21.7121V1.84126C22.3978 1.88817 22.3427 1.91163 22.2918 1.94042C21.8952 2.17072 21.504 2.40742 21.1032 2.62812C21.0436 2.65553 20.9944 2.70133 20.9625 2.75887C20.9307 2.8164 20.9179 2.88265 20.9261 2.94798C20.9304 8.7261 20.9282 14.5046 20.9198 20.2834C20.9198 20.6566 21.012 20.8698 21.3439 21.0297C21.7489 21.2238 22.1158 21.4818 22.4964 21.7121H22.4922ZM23.6924 14.1634C24.4876 14.0824 25.2023 13.8787 25.6264 13.126C26.0282 12.4105 26.0802 11.6802 25.6433 10.9648C25.2065 10.2494 24.5184 9.95828 23.6924 9.92096V14.1634Z" fill="white"/>
<path d="M36.6448 11.9133C36.5388 12.2332 36.2779 12.3057 35.9779 12.3089C35.4043 12.3164 34.8306 12.3313 34.257 12.3334C32.5853 12.3377 30.9132 12.3395 29.2408 12.3388C29.1488 12.3346 29.0593 12.3072 28.9805 12.2591C28.9018 12.2111 28.8363 12.1439 28.7902 12.0637C28.744 11.9835 28.7187 11.893 28.7165 11.8004C28.7142 11.7078 28.7352 11.6161 28.7775 11.5338C28.8182 11.4403 28.8865 11.3617 28.9732 11.3087C29.0599 11.2557 29.1607 11.2308 29.262 11.2374C31.5381 11.2516 33.8145 11.2516 36.0913 11.2374C36.3628 11.2374 36.49 11.3525 36.5939 11.5572L36.6448 11.6521V11.9133Z" fill="white"/>
<path d="M35.3383 2.41708C35.2993 2.51889 35.2457 2.61443 35.1792 2.70069C34.577 3.34041 33.98 3.99186 33.3555 4.61346C31.9994 5.96434 30.6274 7.30136 29.2618 8.64265C29.1833 8.71942 29.0985 8.79085 29.0158 8.86335C28.7581 9.08619 28.5376 9.08406 28.3128 8.85802C28.088 8.63199 28.0785 8.38783 28.3128 8.13727C29.161 7.24379 29.9976 6.34498 30.8575 5.47176C31.9369 4.37037 33.0343 3.28817 34.1253 2.19851C34.2207 2.10362 34.3215 2.01406 34.4222 1.92449C34.4999 1.84934 34.5994 1.80122 34.7063 1.78721C34.8132 1.7732 34.9217 1.79404 35.016 1.84666C35.2259 1.94368 35.3224 2.11534 35.3383 2.41708Z" fill="white"/>
<path d="M28.675 14.1238C28.804 14.1824 28.9269 14.2538 29.0418 14.337C29.449 14.707 29.8551 15.0834 30.2431 15.4704C31.7982 17.0342 33.3462 18.6011 34.8872 20.1713C35.0197 20.3068 35.1426 20.4515 35.2551 20.6042C35.3877 20.7833 35.3484 21.0168 35.1714 21.2012C34.9943 21.3857 34.7568 21.4283 34.5787 21.2951C34.387 21.154 34.2056 20.9994 34.0358 20.8323C32.2941 19.0866 30.5552 17.3384 28.8192 15.5877C28.614 15.3692 28.4221 15.1385 28.2445 14.8968C28.1491 14.7742 28.0833 14.6313 28.1777 14.4703C28.2241 14.3745 28.2942 14.2924 28.3813 14.2317C28.4684 14.171 28.5695 14.1338 28.675 14.1238Z" fill="white"/>
<path d="M9.48176 13.7198H7.39723C7.15442 13.7198 6.88405 13.4351 6.86709 13.1653C6.8592 13.029 6.90491 12.895 6.99437 12.7923C7.08383 12.6896 7.20986 12.6264 7.34528 12.6162C8.13731 12.5896 8.92935 12.5629 9.72138 12.5608C10.331 12.5608 10.9407 12.5938 11.5493 12.6109C11.6572 12.6103 11.7626 12.6436 11.8508 12.7061C11.9389 12.7686 12.0056 12.8572 12.0413 12.9596C12.1272 13.1664 12.0614 13.3498 11.9236 13.5204C11.8719 13.5905 11.8033 13.6462 11.7243 13.6822C11.6453 13.7182 11.5584 13.7333 11.4719 13.7262C10.8114 13.7112 10.1466 13.7198 9.48176 13.7198Z" fill="white"/>
<path d="M9.52733 10.9222H7.40675C7.30544 10.9292 7.20445 10.9047 7.11742 10.852C7.03039 10.7994 6.96151 10.7212 6.92008 10.628C6.82572 10.4286 6.89252 10.2505 7.00066 10.0746C7.03999 10.0005 7.10022 9.93969 7.17379 9.89986C7.24735 9.86002 7.33098 9.84292 7.41418 9.85071C8.79891 9.86031 10.1836 9.85605 11.5684 9.85605C11.8865 9.85605 12.1579 10.2377 12.0604 10.5448C12.033 10.6692 11.9615 10.7793 11.8592 10.8545C11.757 10.9296 11.6309 10.9647 11.5048 10.9532H9.52839L9.52733 10.9222Z" fill="white"/>
<path d="M10.8479 21.9702C10.6104 21.9574 10.3665 21.9553 10.1248 21.9297C9.98301 21.9225 9.84958 21.8602 9.75264 21.756C9.6557 21.6517 9.60284 21.5137 9.60522 21.371C9.60309 21.2996 9.61523 21.2286 9.64092 21.1621C9.6666 21.0955 9.70532 21.0349 9.75476 20.9836C9.8042 20.9324 9.86337 20.8917 9.92874 20.8639C9.99412 20.8362 10.0644 20.8219 10.1354 20.8219C10.639 20.8078 11.1431 20.8221 11.6452 20.8645C11.9718 20.8944 12.1022 21.098 12.0884 21.4094C12.0765 21.541 12.0203 21.6645 11.9291 21.7597C11.8379 21.8549 11.7172 21.916 11.5869 21.9329C11.342 21.9595 11.0981 21.9606 10.8479 21.9702Z" fill="white"/>
</svg>
