<svg width="108" height="108" viewBox="0 0 108 108" fill="none" xmlns="http://www.w3.org/2000/svg">
<path d="M53.9998 102.031C45.5957 102.031 37.3406 99.8072 30.043 95.5839L11.3307 102.031L15.1711 82.212C9.13932 73.9462 5.95856 64.2231 5.95856 53.9893C5.95856 27.5007 27.5111 5.94815 53.9998 5.94815C80.4884 5.94815 102.041 27.5007 102.041 53.9893C102.041 80.4886 80.4884 102.031 53.9998 102.031ZM30.9047 87.7331L32.3514 88.6373C38.8725 92.7223 46.3617 94.8924 53.9998 94.8924C76.5523 94.8924 94.8922 76.5525 94.8922 54C94.8922 31.4581 76.5523 13.1075 53.9998 13.1075C31.4578 13.1075 13.1073 31.4474 13.1073 54C13.1073 63.1699 16.1072 71.8612 21.7879 79.1376L22.7879 80.4248L20.6815 91.2543L30.9047 87.7331Z" fill="#169859"/>
<path d="M29.7449 35.5431C29.7449 35.5431 32.564 30.6177 34.8618 30.3304C37.1596 30.0432 40.1169 30.0432 40.9148 31.5538C41.7126 33.0538 45.2764 41.7876 45.2764 41.7876C45.2764 41.7876 45.8934 43.2875 44.9466 44.7449C44.0105 46.2023 41.8935 48.3087 41.8935 48.3087C41.8935 48.3087 40.7233 49.8086 41.8935 51.4043C43.0637 53 44.8828 55.9361 48.6486 59.6913C52.4038 63.4572 59.627 66.1379 59.627 66.1379C59.627 66.1379 60.6589 66.2762 61.3185 65.6167C61.978 64.9571 65.5418 60.4998 65.5418 60.4998C65.5418 60.4998 66.6907 59.0211 68.5949 59.8934C70.4991 60.7658 78.7329 64.872 78.7329 64.872C78.7329 64.872 79.7009 65.2231 79.7009 66.6805C79.7009 68.1379 79.1158 71.691 77.9137 72.8931C76.7117 74.0952 73.1905 77.8078 67.9034 77.8078C62.6163 77.8078 50.0209 73.5101 43.319 66.7975C36.6064 60.0849 30.6491 53.2766 29.2449 47.0853C27.8301 40.894 28.0109 38.0962 29.7449 35.5431Z" fill="#169859"/>
</svg>
